<?xml version="1.0" encoding="UTF-8"?>
<svg width="311px" height="214px" viewBox="0 0 311 214" version="1.1" xmlns="http://www.w3.org/2000/svg" xmlns:xlink="http://www.w3.org/1999/xlink">
    <!-- Generator: Sketch 40.3 (33839) - http://www.bohemiancoding.com/sketch -->
    <title>Page 1</title>
    <desc>Created with Sketch.</desc>
    <defs>
        <rect id="path-1" x="0" y="0" width="371" height="214"></rect>
    </defs>
    <g id="Page-1" stroke="none" stroke-width="1" fill="none" fill-rule="evenodd">
        <g id="Ikuta-Website" transform="translate(-1059.000000, -842.000000)">
            <g id="Page-1" transform="translate(999.000000, 842.000000)">
                <mask id="mask-2" fill="white">
                    <use xlink:href="#path-1"></use>
                </mask>
                <g id="Mask"></g>
                <g mask="url(#mask-2)" fill="#B7D3E0">
                    <g transform="translate(60.000000, -169.000000)">
                        <path d="M322.768597,521.017594 C322.623355,520.229144 322.490302,519.386845 322.381625,518.516096 C322.071845,516.054225 321.980434,513.589305 322.112471,511.20262 L322.143957,510.482246 C322.195757,508.625936 322.073876,506.196578 321.78644,503.060053 L320.786001,493.054064 L319.814001,484.157594 L318.343305,470.499947 L315.614189,444.581711 L314.249124,431.535722 L313.347205,423.143209 L312.572246,416.049198 L312.301061,413.47861 L311.648998,407.157807 L310.58254,396.900856 L309.503895,386.864385 L308.456735,376.987433 L308.014917,373.287005 C307.783343,371.852353 307.494892,370.574171 307.160735,369.495134 L306.905801,368.711765 C306.552346,367.65 306.188735,366.552674 305.971381,364.905668 C305.74387,363.204813 305.755042,361.479572 305.838327,360.439144 L306.080058,358.956738 C306.482265,357.53123 307.225738,357.52107 307.879832,357.511925 L308.442515,357.463155 L309.258102,357.247754 L312.268559,356.554813 L313.046566,356.447112 C313.757537,356.368877 314.401475,356.296738 315.106352,357.153262 C315.683255,357.853316 316.14234,359.073583 316.469387,360.770374 C316.787293,362.413316 316.958942,364.292995 316.929487,365.685989 L316.883782,366.776203 L316.848233,369.055187 L316.95691,370.98262 L317.398729,375.595455 L317.921801,380.157487 L318.620584,386.322834 L321.104923,407.909679 L321.883945,414.422513 C321.883945,414.422513 322.446628,419.356417 322.768597,422.192193 L322.768597,521.017594 Z" id="Fill-1"></path>
                        <path d="M296.036362,209.279717 L296.52287,209.245171 L297.220638,209.072444 L299.885767,208.494316 L300.571347,208.407952 C301.198018,208.349021 301.760701,208.295171 302.348776,209.046027 C302.832237,209.656668 303.194833,210.720465 303.435547,212.204904 C303.663058,213.63854 303.76361,215.278433 303.694544,216.484476 L303.623447,217.429396 L303.525942,219.411695 L303.565554,221.090198 L303.821503,225.103567 L304.138394,228.992979 L304.580212,234.447096 L306.13013,253.242872 L306.619685,258.90731 L307.306281,267.350626 L308.824713,285.470733 L310.41729,304.065332 L311.583284,317.867257 C312.228237,325.259984 312.794983,331.001642 313.368839,335.938594 L313.677604,338.337471 L314.401779,342.065332 L314.538895,342.639396 C314.966494,344.441856 315.369717,346.145759 315.557616,348.483674 C315.708952,350.364369 315.689654,352.288754 315.501754,353.764048 C315.326043,355.174316 314.969541,355.293193 314.595773,355.419182 L314.43225,355.48116 L313.339384,355.735171 L312.58677,355.872337 L312.085027,355.945492 L307.07877,356.416936 C306.690782,356.473834 306.115911,356.460626 305.565416,355.691481 L305.026093,354.621588 C304.636074,353.566936 304.270431,351.57346 304.071359,349.420465 C303.868224,347.269503 303.86213,345.129717 304.046983,343.059021 L304.092688,342.433139 C304.191209,340.795278 304.158707,338.74592 303.996199,335.974155 L303.410155,327.26362 L302.820049,319.579289 L301.922193,307.630626 L300.282895,285.046027 L299.46934,273.708005 L298.922908,266.39961 L298.445541,260.226134 L298.285065,257.975599 L297.90114,252.48592 L297.263297,243.558968 L296.609203,234.842337 L295.975422,226.219182 L295.695096,222.999342 C295.534619,221.744529 295.322344,220.633995 295.061315,219.695171 L294.860212,219.009342 C294.582933,218.081695 294.296513,217.123567 294.152287,215.690947 C294.005014,214.20854 294.062908,212.710893 294.164475,211.801535 L294.422456,210.518273 C294.812475,209.281749 295.462507,209.281749 296.036362,209.279717" id="Fill-3"></path>
                        <path d="M290.722661,120.842439 L291.121821,120.821102 L291.697708,120.715433 L293.890548,120.362866 L294.452216,120.310032 C294.957006,120.271422 295.4232,120.234845 295.889394,120.68292 C296.266209,121.043615 296.535363,121.67661 296.690761,122.562599 C296.841081,123.414043 296.879676,124.391476 296.790297,125.109818 L296.710059,125.669658 L296.57599,126.85538 L296.565833,127.856182 L296.666385,130.248963 L296.822799,132.537091 L297.038122,135.809765 L297.812065,147.006556 L298.061921,150.38185 L298.397093,155.366556 L299.158849,166.201636 L299.970372,177.300888 L300.558448,185.496289 C300.786974,188.530193 301.103865,192.493775 301.542636,196.258214 L301.726473,197.688802 L302.223137,199.90784 L302.318611,200.25431 C302.61925,201.324203 302.904655,202.336182 302.996065,203.72816 C303.069194,204.850888 303.002159,205.996984 302.812228,206.871797 C302.630423,207.714096 302.337908,207.787251 302.029144,207.862439 L301.891012,207.902064 L301.001282,208.055487 L300.373595,208.140834 L299.968341,208.182492 L295.857908,208.486289 C295.540003,208.517786 295.066698,208.510674 294.642147,208.057519 L294.224705,207.42046 C293.937269,206.793561 293.691476,205.605807 293.581783,204.32661 C293.4792,203.05046 293.529984,201.776342 293.732103,200.53677 L293.786949,200.160834 C293.909846,199.19661 293.9393,197.939765 293.87836,196.31308 L293.630535,191.12415 L293.354272,186.586503 L292.935814,179.430513 L292.191325,165.965914 L291.825683,159.224471 L291.57278,154.896128 L291.348316,151.192652 L291.28636,150.069925 L291.103539,146.582866 L290.818134,141.264898 L290.514448,136.045487 L290.228028,130.940888 L290.081771,129.020567 C289.985282,128.270727 289.839024,127.609283 289.65214,127.054524 L289.509946,126.655219 C289.306811,126.104524 289.096567,125.529444 289.01836,124.666824 C288.933043,123.78185 289.020391,122.892813 289.133131,122.35431 L289.370799,121.586182 C289.723238,120.849551 290.255451,120.849551 290.722661,120.842439" id="Fill-5"></path>
                        <path d="M269.338864,220.901519 C270.548532,220.744032 271.647491,220.598738 272.79114,221.650342 C273.730638,222.51093 274.430438,224.052267 274.881397,226.221519 C275.318137,228.320663 275.499942,230.739861 275.359779,232.544353 L275.218601,233.956652 L275.015466,236.911305 L275.084532,239.396545 L275.553773,245.329219 L276.163177,251.189754 L276.971654,259.110824 L279.868356,286.841679 L280.790588,295.204727 L282.072369,307.683765 L284.914224,334.395529 L287.879992,361.718952 L290.074864,382.179005 C290.832557,389.052535 292.010739,399.287134 293.437761,408.810503 L294.018726,412.343283 C294.407729,414.475957 294.940958,416.278417 295.410199,417.796385 L295.672243,418.646813 C296.490876,421.271251 297.263804,423.751412 297.612181,427.196813 C297.893522,429.968578 297.842739,432.826706 297.473033,435.041679 C297.120594,437.14692 296.432983,437.366385 295.707792,437.599059 L295.380745,437.706759 L293.254939,438.205636 L291.786275,438.494193 L290.835604,438.652695 L281.067867,439.908524 C280.312206,440.030449 279.18887,440.069059 278.127491,438.994086 L277.080331,437.463925 C276.328732,435.934781 275.630964,433.018738 275.255165,429.851733 C274.882413,426.686759 274.877334,423.51061 275.250087,420.407615 L275.346576,419.473872 C275.542601,417.068898 275.492833,413.936439 275.191177,409.899701 L274.108469,397.035583 L273.0024,385.601037 L271.340757,368.048898 L268.29272,334.73184 L266.77835,317.962053 L265.76166,307.175743 L264.877008,298.054727 L264.576369,294.75462 L263.857271,286.630342 L262.674011,273.442107 L261.459265,260.543444 L260.283115,247.847989 L259.75598,243.095957 C259.453309,241.253872 259.043992,239.628203 258.540218,238.257561 L258.155278,237.264888 C257.622049,235.917615 257.073585,234.529701 256.801384,232.414299 C256.520043,230.230824 256.644971,227.999594 256.850137,226.645209 L257.352895,224.707615 C258.125823,222.834032 259.389322,222.759861 260.499453,222.694834 L261.455203,222.586118 L262.853786,222.244727 L268.0063,221.102695 L269.338864,220.901519 Z" id="Fill-13"></path>
                        <path d="M249.46507,31.8522299 L250.296907,31.7668824 L251.488292,31.4874706 L256.053747,30.524262 L257.221772,30.3596631 C258.289245,30.2326578 259.24601,30.120893 260.198712,31.0404118 C260.981797,31.7932995 261.535339,33.1415882 261.849182,35.0436203 C262.150838,36.8826578 262.221935,38.9919626 262.028957,40.5576845 L261.850198,41.7911604 L261.563778,44.3597166 L261.530261,46.5289679 L261.712066,51.7016417 L262.016769,56.7066684 L262.436242,63.726508 L263.912016,87.9225508 L264.39954,95.2146898 L265.044493,106.085332 L266.515189,129.408594 L268.082374,153.339449 L269.215866,171.102925 C269.853709,180.616134 270.468192,187.999717 271.141584,194.339824 L271.517383,197.420465 L272.521885,202.18469 L272.714863,202.916241 C273.329345,205.214529 273.90828,207.385813 274.087038,210.39838 C274.228217,212.818594 274.078913,215.30993 273.670612,217.231267 C273.281609,219.072337 272.672204,219.253193 272.031314,219.448273 L271.747941,219.541749 L269.881132,219.958326 L268.590211,220.19608 L267.733997,220.330198 L259.203352,221.340144 C258.544179,221.447845 257.56507,221.47731 256.677371,220.528326 L255.826236,219.18207 C255.229019,217.85207 254.731339,215.302818 254.523126,212.534102 C254.316944,209.762337 254.433747,206.995652 254.871502,204.304155 L254.987289,203.489289 C255.257458,201.361695 255.329571,198.71084 255.217847,195.142497 L254.760794,183.914209 L254.227565,174.021 L253.434324,158.634048 L252.03574,129.544743 L251.348129,114.94116 L250.868731,105.526508 L250.438085,97.5749572 L250.300969,94.6782193 L249.985095,87.6045294 L249.446787,76.1059733 L248.874963,64.8787005 L248.327515,53.7784332 L248.04922,49.6299305 C247.852179,48.0195027 247.559665,46.5980588 247.172693,45.4072567 L246.874085,44.5334599 C246.460706,43.3589144 246.032092,42.1427112 245.875678,40.2965615 C245.715201,38.3914813 245.907164,36.4488075 246.137722,35.2651176 L246.646574,33.5845829 C247.388016,31.9538342 248.491038,31.901 249.46507,31.8522299" id="Fill-15"></path>
                        <path d="M153.825856,256.34993 C147.135611,267.604636 140.22395,279.239342 137.507022,292.905118 C136.836677,296.289556 136.44158,299.754262 136.341028,303.207791 L136.302433,304.318326 C136.224226,306.486561 136.129768,309.193299 136.457831,311.475332 L136.994107,313.692337 C136.807223,312.381642 140.262545,309.124209 142.326395,307.174422 L143.618332,305.921642 L145.105279,304.147631 C151.399411,296.262123 155.170608,286.370947 158.030746,277.740679 C160.857367,269.206936 162.209229,260.103193 163.515386,251.301214 C164.741304,243.043834 166.008865,234.510091 168.490157,226.457952 C165.149605,237.297096 159.393781,246.984048 153.825856,256.34993" id="Fill-22"></path>
                        <path d="M196.50407,232.480139 C195.480271,233.41185 194.931807,234.759123 194.871882,236.484364 C194.80891,238.158802 195.162365,239.980567 195.789036,241.24046 L196.315155,242.210781 L197.308484,244.304845 L197.828509,246.137786 L198.664409,250.602278 L199.301236,255.094203 L200.169638,261.091904 C200.783105,265.009765 202.321851,275.324631 203.144547,282.205273 L203.985525,288.58907 L205.420672,298.554417 L208.152835,318.438374 L210.938829,339.307893 L213.056509,354.878749 C214.139218,363.203187 214.804484,369.708909 215.150829,375.343882 L215.251381,378.101422 C215.257475,379.618374 215.059418,380.967679 214.756747,382.522225 L214.616584,383.218214 C214.185939,385.392545 213.775606,387.448 214.152421,390.071422 C214.463218,392.185807 215.231067,394.250406 216.262992,395.732813 C217.243117,397.156289 218.201913,397.093294 219.215556,397.025219 L219.669562,396.995754 L222.591656,396.669604 L224.588471,396.406449 L225.891581,396.209337 L239.039481,393.964898 C240.057186,393.811476 241.54718,393.475166 242.679656,392.348374 L242.963029,392.040513 L243.67908,390.896449 C244.293562,389.549176 244.50076,387.202118 244.219418,384.764631 C243.937061,382.340353 243.159055,380.029872 241.913838,377.895166 L241.562415,377.244898 C240.709249,375.543027 240.012497,373.252866 239.42239,370.228107 L237.695744,360.51677 L236.354039,351.840781 L234.242453,338.532652 L230.092409,313.291102 L227.987932,300.610888 L227.121562,295.427037 L226.678729,292.411422 L225.615318,285.509444 L225.200923,283.015059 L224.155794,276.866984 L223.176685,271.017626 L222.489073,266.89046 L220.924935,257.066342 C220.295218,252.93308 219.693939,249.027412 219.370954,247.491155 C219.097738,246.22415 218.938277,245.00693 218.896634,243.863882 C218.845851,242.421102 218.988045,241.106342 219.313061,239.95415 L219.577136,239.099658 C219.948873,237.952545 220.331782,236.758695 220.171305,235.133027 C220.004735,233.457572 219.299857,231.875594 218.691468,230.954043 L217.855569,229.956289 L217.560008,229.710406 C216.084233,228.593775 214.404308,228.950406 212.924471,229.264364 L211.642691,229.491957 L209.796196,229.687037 L202.662102,230.530353 L200.634816,230.858535 C199.212873,231.096289 197.742177,231.348267 196.50407,232.480139" id="Fill-30"></path>
                        <path d="M179.147522,86.5796471 C178.240525,87.337615 177.73472,88.4796471 177.654482,89.9772941 C177.573228,91.4200749 177.852538,93.014246 178.378657,94.1359572 L178.825554,95.0036578 L179.660438,96.860984 L180.082958,98.4714118 L180.745177,102.379112 L181.22356,106.242107 L181.891873,111.534674 C182.36213,114.944513 183.534218,123.941572 184.148701,129.963658 L184.776387,135.531572 L185.824563,143.876332 L186.432952,148.709647 L187.938181,161.581893 L190.037579,179.83815 L191.632187,193.373872 C192.438632,200.624353 192.912952,206.287775 193.127259,211.19831 L193.16687,213.591091 C193.150619,215.040984 192.897717,216.319166 192.66208,217.397187 L192.532074,217.988524 C192.116663,219.856011 191.724613,221.617829 192.015096,223.912053 C192.248701,225.753123 192.88756,227.574888 193.764087,228.908952 C194.595924,230.18815 195.436902,230.175957 196.324601,230.162749 L196.724776,230.164781 L199.280212,230.015422 L201.041391,229.881305 L202.192149,229.770556 L213.732237,228.436492 C214.352814,228.374513 215.279108,228.241412 216.138369,227.775048 L216.946845,227.204032 C217.31655,226.868738 217.621253,226.460289 217.848764,225.991893 C218.4084,224.848845 218.62677,222.822856 218.421604,220.704406 C218.210344,218.589005 217.569453,216.550824 216.516199,214.645743 L216.219623,214.067615 C215.493416,212.548631 214.936826,210.58462 214.45946,207.890075 L213.106582,199.396973 L212.079735,191.847775 L210.446532,180.192749 L207.226845,158.131412 L205.607861,147.157134 L204.556638,139.669914 L203.765428,133.865262 L203.452601,131.746813 L202.629905,126.310984 L201.844789,121.051947 L201.331873,117.592321 L200.135409,109.071786 L198.920663,100.645743 C198.706356,99.5341925 198.586507,98.4703957 198.567209,97.4807701 C198.547911,96.2300214 198.688074,95.0991658 198.994808,94.1125882 L199.237554,93.3881497 C199.58593,92.4086845 199.942431,91.3967059 199.828676,89.9783102 C199.708826,88.5131765 199.115673,87.1120535 198.597679,86.2860107 L197.630757,85.154139 L196.871033,84.6898075 C195.788325,84.2102353 194.612174,84.392107 193.577203,84.5577219 L192.451836,84.6928556 L190.829804,84.7792193 L184.573253,85.1785241 L182.811058,85.366492 C181.55467,85.5056898 180.25867,85.6560642 179.147522,86.5796471" id="Fill-32"></path>
                        <path d="M81.8483925,283.448096 L81.7904991,283.484674 C81.1577342,284.775048 104.294787,299.948631 119.604041,309.98815 C126.935176,314.795048 132.717408,318.589968 134.050988,319.631412 C149.738073,330.517294 169.931703,345.382 187.030574,363.889219 C191.962687,368.558952 204.824167,386.386439 208.803577,392.824086 L209.736982,394.047401 C211.57332,396.25323 213.256292,396.62307 214.102349,396.012428 C214.807226,395.509487 214.955515,394.359326 214.492367,392.937882 C213.215665,387.475636 200.467941,370.59307 194.749697,364.614674 C180.62675,348.527668 162.947929,333.649754 139.120217,317.799487 C135.672004,315.081572 83.9985743,282.870984 81.8483925,283.448096" id="Fill-41"></path>
                        <path d="M129.332268,206.93662 L129.336331,207.831754 L129.332268,208.354 C129.267265,217.154963 128.131742,226.01892 127.037861,234.587209 L126.921058,235.487422 C125.730688,244.794374 124.380858,255.343947 124.826739,265.864053 C125.281761,276.522342 126.345171,288.935337 130.799917,300.168706 L131.886688,302.722021 L132.903378,304.615925 L133.473171,305.648225 C134.581271,307.645765 135.930087,310.172663 136.526287,311.988332 C136.879742,313.056193 136.928494,313.763358 136.674576,314.095604 L137.219992,313.293947 L138.045735,311.705872 L138.568808,310.425658 L139.307203,308.211701 L140.190839,304.899401 L141.553873,298.825497 C142.102337,295.986674 142.462902,293.394749 142.65588,290.917636 C143.928519,274.793037 139.952155,259.179508 136.109861,244.077048 L132.913535,231.043251 C130.590688,220.80154 129.47751,212.839829 129.311955,205.235765 L129.332268,206.93662 Z" id="Fill-45"></path>
                        <path d="M76.2298871,286.16408 L72.224069,289.737503 L70.6233668,291.465791 C63.8264765,299.177556 59.5210345,309.091086 56.2089216,317.774187 C52.9394671,326.345524 51.1508652,335.591513 49.4232038,344.531674 C47.8011724,352.920123 46.1242947,361.595096 43.2265768,369.696005 C47.1318433,358.78777 53.4554295,349.196326 59.5718182,339.924936 C66.9202194,328.784027 74.5194922,317.264134 77.9067649,303.425631 C78.7446959,300.006647 79.3012853,296.475898 79.5592665,292.933973 L79.7776364,291.05023 C80.1168715,288.446112 80.5465016,285.200872 79.1946395,283.518305 C79.1946395,283.555898 77.7523824,284.819856 76.2298871,286.16408" id="Fill-51"></path>
                        <path d="M66.8478019,285.335904 C64.4264351,286.011572 62.2721906,286.773604 60.2642031,287.654513 C47.2788113,293.387027 36.9656577,304.206866 26.9978332,314.662963 L18.3351498,323.573658 C11.4448176,330.387241 5.7905605,334.977722 0.000203134796,338.45462 L0.804616928,337.980128 L1.99193981,337.300396 L2.39414671,337.077882 C9.2062721,333.313444 16.5272502,330.60569 23.6095448,327.987348 L24.3702846,327.705904 C32.0701091,324.853872 40.7967799,321.62692 48.7078646,316.597508 C56.7276263,311.502053 65.8372063,305.023765 72.5589367,295.619273 L74.0611185,293.41446 L75.0757768,291.562214 L75.6201781,290.537027 C76.6866357,288.538471 78.0537329,286.073551 79.1862094,284.688684 C79.8575699,283.864674 80.380642,283.507027 80.7442533,283.614727 L79.8880401,283.415583 L78.3066357,283.273337 L77.0918897,283.30077 L75.0615574,283.521251 L72.1201655,284.068898 L66.8478019,285.335904 Z" id="Fill-53"></path>
                        <path d="M22.2866295,221.695759 L29.7386295,233.715545 C38.2723223,247.762337 47.0975135,262.288701 59.8828176,272.078273 C61.8511937,273.588112 64.0115323,275.004476 66.4867298,276.410679 L71.9073818,279.245439 L74.9584665,280.650626 L77.1045856,281.451267 L78.4046483,281.817043 L80.1414508,282.104583 L81.1073567,282.124904 C80.6888991,282.144209 80.2013755,281.606722 79.6508803,280.536829 C78.7225542,278.724209 77.769852,275.688273 77.0446608,273.241642 L76.6881592,272.024422 L75.9782031,269.705813 L74.8243975,266.907631 C69.573363,254.908166 61.1249868,245.390893 53.554153,237.661856 C46.0828552,230.039503 37.360247,224.130198 29.6695636,218.91993 L28.939294,218.425118 C21.8478583,213.627364 14.5177392,208.667043 7.96054796,202.702872 L7.4516953,202.24362 L6.43805266,201.295652 L5.67426583,200.555973 C11.1782031,205.912551 16.2992313,212.434529 22.2866295,221.695759" id="Fill-55"></path>
                        <path d="M61.9221893,194.87477 L62.2147034,196.601027 C63.2649103,200.886695 64.4959072,204.624717 65.9909793,208.036588 C70.7230044,218.850332 74.2870044,231.338513 77.2019887,247.330011 C78.2268038,252.957872 79.0931737,258.715786 79.9280577,264.286749 C80.7568476,269.829262 81.6171235,275.554663 82.6358445,281.148995 L84.092321,278.039904 L84.9566596,275.422578 C86.3593053,270.531348 86.81839,264.92584 87.0459009,261.138032 C87.2398947,257.874503 87.2043461,255.001134 86.9433179,252.35739 C86.6548665,249.461668 86.1896878,246.503968 85.5579386,243.572684 C82.5444339,229.695572 76.129437,217.659529 69.923669,206.012631 L68.8328351,203.986642 C67.2829166,201.13969 65.6862771,198.190118 64.5101266,195.121668 L63.9017379,193.331401 L62.8251235,190.431615 L61.8399197,188.871989 C61.2812991,188.231882 60.6393931,187.794984 59.8806846,187.54707 C60.8465906,187.863059 61.5220138,192.25338 61.9221893,194.87477" id="Fill-57"></path>
                        <path d="M219.656359,228.741711 L219.656359,228.741711 C221.229638,228.356631 224.321349,234.588021 226.167845,238.305722 L227.329776,240.554225 L229.048296,243.218289 C236.7857,254.568503 247.607707,262.608449 257.177387,268.979037 C266.627218,275.267326 277.164835,279.469679 287.353061,283.53893 C296.912584,287.356203 306.796108,291.300481 315.770603,296.95984 C303.693224,289.343583 293.653287,278.366257 283.939381,267.751658 C272.272334,254.999305 260.205111,241.812086 244.57592,234.457968 C240.716359,232.646364 236.670929,231.227968 232.551355,230.244439 L231.220823,229.920321 C227.567443,229.026203 223.022302,227.910588 219.656359,228.741711" id="Fill-69"></path>
                        <path d="M228.321784,245.104674 C231.543502,250.628898 234.867803,256.344139 237.954436,262.089861 C246.718687,278.439005 252.390211,292.351679 255.797797,305.875209 C256.877458,310.154781 258.423314,314.476011 260.529822,319.086813 L261.504869,320.841519 C263.006035,323.447668 265.518813,327.803444 264.867766,328.950556 C265.382712,328.039166 265.651866,327.086118 265.697571,326.039594 C265.723979,325.353765 265.655929,324.62323 265.481233,323.805316 C265.231377,322.63585 264.804794,321.470449 264.388367,320.348738 L263.665208,318.269914 C262.543903,314.565422 261.893872,310.586599 261.263139,306.735797 L260.815226,304.031091 C258.144004,288.434834 255.386449,272.308203 248.214775,257.707668 C246.703452,254.632107 245.019465,251.682535 243.204455,248.938203 C241.564142,246.443818 239.543966,243.958578 237.041345,241.340235 C234.136518,238.308364 229.721383,233.93938 224.960919,231.023337 L222.301885,229.570396 C221.09628,229.000396 219.906925,228.550289 218.760229,228.238364 C221.824518,233.947508 225.129521,239.619059 228.321784,245.104674" id="Fill-71"></path>
                        <path d="M322.768597,301.620834 C322.023092,301.81693 321.543694,301.94292 321.543694,301.94292 C320.80733,302.159337 319.70634,302.38185 318.671368,301.86062 L317.648584,301.038642 C316.924409,300.178053 316.248986,298.38677 315.890453,296.365861 C315.533951,294.355112 315.544108,292.275273 315.913813,290.184257 L316.010302,289.570567 C316.211406,287.942866 316.17281,285.901636 315.888421,283.306663 L314.87681,275.064524 L313.840823,267.838428 L312.26145,256.557305 L309.391155,235.260032 L307.964133,224.532652 L307.006352,217.658107 L306.16639,211.821957 L305.8495,209.431209 L305.208609,204.515594 L304.094415,196.080406 L302.942641,187.826075 L301.842666,179.728214 L301.338892,176.705487 C301.046377,175.546182 300.653312,174.552492 300.163757,173.75185 L299.79202,173.172706 C299.275042,172.385273 298.741813,171.566342 298.480785,170.220086 C298.210616,168.843348 298.342653,167.362973 298.552898,166.435326 L299.048547,165.081957 C299.806239,163.716396 301.044346,163.44816 302.13518,163.213455 L303.0696,162.973668 L304.384898,162.524578 L309.485613,160.860299 L310.789738,160.494524 C311.986202,160.178535 313.056722,159.896075 314.169901,160.383775 C315.085023,160.780032 315.765525,161.665005 316.20328,163.013294 C316.623769,164.317893 316.796434,165.872439 316.650177,167.075433 L316.505951,168.020353 L316.296722,169.994524 L316.3536,171.610032 L316.796434,175.414096 L317.362164,179.086075 L318.140171,184.197786 L320.884522,201.862706 L321.752923,207.179658 C321.752923,207.179658 322.41108,211.487679 322.768597,213.820513 L322.768597,301.620834 Z" id="Fill-75"></path>
                        <path d="M297.06006,167.941914 C297.321088,169.712877 296.325728,171.958332 295.528424,173.760791 L294.883471,175.291968 C293.793653,178.212075 292.46312,181.005176 290.930468,183.613358 C284.68712,194.19646 275.466831,201.479455 266.544135,208.518599 C259.119559,214.38015 251.440048,220.440845 245.481088,228.39138 C249.90638,222.487155 253.437878,215.711166 256.855621,209.153626 C260.498844,202.165283 264.266994,194.936139 269.121916,188.757583 C274.034731,182.499775 280.088148,175.517529 287.702656,171.185123 L289.478054,170.242235 L293.795684,168.485497 C295.448186,167.828118 296.87927,167.256086 296.875208,167.237797 L297.06006,167.941914 Z" id="Fill-93"></path>
                        <path d="M277.957467,158.662294 C279.847636,158.815717 281.831248,159.134754 284.013931,159.632615 L288.677906,160.891492 L291.223185,161.722615 L292.929517,162.423684 L293.915737,162.923578 L295.141655,163.723203 L295.76731,164.256626 C295.511361,164.007695 294.981179,164.069674 294.15442,164.44561 C292.800527,165.066412 290.880903,166.460422 289.358408,167.610583 L288.643373,168.157214 L287.163536,169.252508 L285.22563,170.38438 C276.718345,175.044968 267.259373,176.324166 259.130934,176.958176 C251.09289,177.591171 243.015235,176.416626 235.886219,175.386358 L235.19353,175.284754 C228.628213,174.33577 221.842495,173.350209 215.117718,173.442668 L214.54894,173.446733 L214.038056,173.461973 C213.956803,173.464005 212.741041,173.515824 212.741041,173.515824 C218.532414,173.215075 224.593956,171.965342 232.39027,169.457749 L242.29106,166.02962 C253.757003,161.919727 265.618044,157.668604 277.957467,158.662294" id="Fill-95"></path>
                        <path d="M310.921471,142.495225 L310.921471,142.495225 C309.754461,142.330626 307.848041,147.346829 306.708455,150.346187 L305.992405,152.154743 L304.888367,154.333139 C299.881095,163.654316 292.441283,170.692444 285.827214,176.34469 C279.29643,181.930893 271.847477,186.020465 264.651427,189.97592 C257.900242,193.682444 250.917483,197.514957 244.692418,202.580947 C253.070712,195.762283 259.774161,186.541695 266.260255,177.628968 C274.050474,166.916829 282.104769,155.842979 293.08522,148.93084 C295.800117,147.221856 298.667364,145.801428 301.609772,144.71223 L302.562474,144.357631 C305.17174,143.370037 308.422913,142.13961 310.921471,142.495225" id="Fill-128"></path>
                        <path d="M299.454207,169.487519 C293.981755,182.700139 290.624953,193.798374 288.894245,204.418053 C288.348828,207.76693 287.46316,211.194043 286.186458,214.901583 L285.575022,216.318963 C284.627398,218.432332 283.037868,221.973241 283.577191,222.795219 C283.150608,222.141904 282.89669,221.435754 282.809342,220.640193 L282.836765,218.916984 L283.441091,216.196021 L283.853455,214.534791 C284.46489,211.615701 284.715762,208.523882 284.960539,205.532652 L285.135235,203.42538 C286.215912,191.276556 287.332138,178.717251 291.728991,166.99415 C292.65427,164.526182 293.718696,162.130353 294.888752,159.87677 C295.946069,157.836556 297.278633,155.768909 298.959574,153.561048 C300.910683,150.999604 303.887624,147.291048 307.188564,144.677786 L309.041154,143.348802 L311.545806,142.038107 L299.454207,169.487519 Z" id="Fill-132"></path>
                        <path d="M207.694055,347.740642 L208.857002,349.108235 C211.13008,351.529465 213.211196,354.220963 215.04855,357.108556 C222.473127,368.755455 225.67961,382.765668 228.787572,396.317647 C231.370431,407.59369 234.045717,419.255829 239.130181,429.547326 C235.351873,421.90262 230.425855,415.006738 225.659297,408.336417 C220.576864,401.225134 215.322782,393.872032 211.456112,385.596364 C207.536626,377.223155 203.387597,367.185668 202.295748,356.263209 L202.099723,353.743422 L202.129177,347.963155 C202.150507,345.727861 202.168789,343.614492 202.14746,343.590107 C204.142243,343.41738 206.108588,345.813209 207.694055,347.740642" id="Fill-136"></path>
                        <path d="M206.199389,295.087374 L208.392229,294.767321 L210.132079,294.716519 C213.001358,294.687053 217.803465,294.634219 218.130512,293.328604 C217.436806,296.124754 215.166775,299.089567 213.341609,301.473203 L212.689546,302.328711 C210.661245,305.018176 208.387151,307.504433 205.938361,309.716358 C196.057885,318.641278 183.953082,322.840583 172.248455,326.898658 C162.501032,330.278016 152.426562,333.772187 143.635903,339.978176 C150.16364,335.369406 155.997671,329.472294 161.638725,323.772294 C167.653546,317.691278 173.874549,311.402989 180.951766,306.66315 C188.108204,301.867428 196.707916,296.742508 206.199389,295.087374" id="Fill-138"></path>
                        <path d="M270.329755,234.359717 C280.451962,242.217791 290.923561,250.339021 298.04953,262.228754 C299.808677,265.168166 301.335235,268.312818 302.579436,271.573299 L302.982658,272.624904 C303.777931,274.669182 304.76415,277.213353 305.204953,279.539075 L305.431448,281.886134 C305.173467,280.553086 300.788803,278.943674 298.167348,277.973353 L296.516878,277.335278 L294.503812,276.28469 C285.884803,271.484904 278.99447,263.661374 273.394044,256.644583 C267.864715,249.713139 263.556226,241.595973 259.390947,233.747043 C255.477555,226.381749 251.437204,218.764476 246.395398,212.144957 C253.183147,221.057684 261.89763,227.820465 270.329755,234.359717" id="Fill-140"></path>
                        <path d="M322.768597,373.183979 C311.459067,362.356011 299.415205,351.584941 286.7335,340.961198 C282.18328,337.15815 267.2417,325.112963 252.928823,315.205529 C246.823606,310.706492 240.578227,306.436064 235.563845,303.00184 C227.798001,297.688952 222.187418,293.850342 222.577437,292.976545 C223.838904,292.496973 238.508283,299.827722 253.448848,309.671144 C260.169562,313.83184 271.281036,321.214406 286.042841,332.742428 L286.423719,333.036064 C298.705249,342.543176 310.858804,352.78692 322.768597,363.669754 L322.768597,373.183979 Z" id="Fill-142"></path>
                        <path d="M322.768597,367.905941 C321.101876,364.414818 319.551957,360.393321 318.939506,358.237278 C315.499418,348.011824 313.431506,337.44193 311.427581,327.216476 L309.980246,319.925353 L309.72328,318.479524 C309.131142,315.269845 307.745763,307.757225 307.078465,300.38177 C306.218189,292.02177 306.479218,283.71054 307.10081,282.922091 L307.194252,282.866209 C307.607631,282.865193 307.923506,285.720273 308.361261,289.669631 L309.530302,299.025353 C310.643481,306.951503 312.335594,315.319631 312.72866,317.125139 L314.335456,324.295353 C316.492747,333.993481 318.724183,344.021824 321.571117,353.424283 C321.789487,354.248294 322.217086,355.433 322.768597,356.804658 L322.768597,367.905941 Z" id="Fill-144"></path>
                        <path d="M227.217645,326.422439 L227.741733,326.310674 C238.57288,324.186128 249.689432,323.644578 260.78567,324.70939 C264.269432,324.916663 274.404843,326.252759 277.675313,328.169016 L278.339564,328.563241 C279.483213,329.358802 279.719865,330.492706 279.561419,331.288267 C279.401959,332.116342 278.814899,332.709711 278.065332,332.801155 C276.971451,332.789979 274.286009,332.10415 271.445169,331.379711 C268.370724,330.598374 265.19268,329.787572 263.295401,329.617893 C252.552617,328.102973 241.334498,328.120246 229.947777,329.673775 C228.811238,329.766235 220.927576,331.036289 213.60152,333.468695 C209.293031,334.721476 205.424329,336.749497 202.86483,338.09677 C201.086385,339.025433 199.917344,339.637091 199.741633,339.376984 C199.952893,338.268481 205.364404,333.453455 211.992692,330.944845 C218.234009,328.244203 224.993319,326.871529 227.217645,326.422439" id="Fill-146"></path>
                        <path d="M137.901814,208.007123 L139.140937,209.089209 L139.569551,209.449904 C146.7331,215.512631 154.68278,220.490225 162.373463,225.302203 L163.241865,225.845786 C171.618128,231.082471 181.111633,237.021241 189.321325,244.84477 C197.641727,252.771936 206.956473,262.579797 212.948949,275.163487 L214.2612,278.100866 L215.093037,280.527176 L215.517589,281.829743 C216.372786,284.407444 217.479871,287.612043 218.532109,289.506963 C219.15167,290.623594 219.692009,291.173273 220.131796,291.138727 L219.100887,291.152952 L217.237125,290.921294 L215.839557,290.587016 L213.524836,289.818888 L210.220849,288.451294 L204.350253,285.649048 C201.668874,284.253005 199.320636,282.830545 197.167407,281.301401 C183.220172,271.39092 173.342742,256.260011 163.796423,241.634075 L155.453676,229.109316 C148.777651,219.48739 143.104097,212.743914 137.056774,207.248139 L137.901814,208.007123 Z" id="Fill-148"></path>
                        <path d="M322.768597,268.798385 C321.637136,270.216781 320.442703,271.58539 319.182252,272.884909 L317.31849,274.711754 L315.669036,276.024481 L314.87681,276.637155 C313.186729,277.946834 311.097487,279.623305 309.925399,281.003091 C309.268258,281.778332 308.973713,282.379829 309.05192,282.793358 C309.030591,282.704963 308.841675,281.871807 308.841675,281.871807 L308.646666,280.059187 L308.609086,278.667209 L308.708622,276.326246 L309.049888,272.924535 L309.910164,266.814053 C310.387531,264.007743 310.949199,261.50015 311.631732,259.149027 C314.150603,250.469989 318.167594,242.715551 322.768597,235.43662 L322.768597,268.798385 Z" id="Fill-150"></path>
                        <path d="M202.945982,344.328262 C203.198885,346.222166 204.047989,348.981738 204.757945,351.175374 L205.169293,352.443396 L205.769556,354.367781 L206.3556,357.091791 C208.655086,368.995749 207.460653,381.238048 205.989957,391.643342 C204.536528,401.918583 201.344265,411.794519 198.527801,420.505053 L198.280992,421.268102 C195.678835,429.317193 192.983236,437.639599 191.337845,446.159118 C191.326672,446.229225 191.243387,446.657995 191.243387,446.657995 C191.228152,446.739278 191.006735,447.974786 191.006735,447.974786 C190.973218,448.149545 190.815788,449.085321 190.815788,449.085321 C192.00108,441.784037 192.354534,433.830455 191.941155,423.391631 L191.185493,410.029652 C190.176929,394.541096 189.131801,378.52623 193.247312,363.245963 C193.876014,360.896872 194.6916,358.480722 195.730634,355.866444 L198.131688,350.317834 L199.578008,347.32254 L200.694233,345.354465 L201.42755,344.245963 L202.510258,342.901738 L203.174509,342.254519 C202.875901,342.516658 202.795663,343.214679 202.945982,344.328262" id="Fill-152"></path>
                        <path d="M184.380782,342.548663 L187.06724,342.169679 L189.209297,342.112781 L190.34482,342.10262 C192.608757,342.074171 195.434362,341.981711 197.233121,341.533636 C198.293485,341.271497 198.889685,340.904706 199.006488,340.442406 L198.687566,341.489947 L197.907529,343.296471 L197.195541,344.603102 L195.85993,346.697166 L193.733108,349.593904 L189.685648,354.624332 C187.750789,356.876898 185.899215,358.790107 184.019203,360.481818 C171.879867,371.387005 157.032745,376.484492 142.678224,381.421444 L130.342864,385.810749 C120.751855,389.464439 113.727453,393.02262 107.560281,397.354011 L108.613535,396.598075 L109.647491,395.838075 L110.063917,395.52615 C117.091366,390.214278 123.521597,383.739037 129.738538,377.48123 L130.33677,376.882781 C137.079829,370.104759 144.723792,362.423476 153.390538,356.651337 C162.186275,350.797914 172.745221,344.543155 184.380782,342.548663" id="Fill-154"></path>
                        <path d="M121.055338,310.503283 L123.780391,310.971679 L125.437971,311.315102 C128.35194,311.769273 131.390836,311.749968 134.332228,311.730663 L136.412329,311.721519 C148.362749,311.749968 160.720454,311.781465 172.656655,316.109807 C175.176542,317.027294 177.631426,318.121572 179.944115,319.358096 C182.061796,320.492 184.222134,321.965262 186.555137,323.865262 C189.266987,326.074139 193.207802,329.467722 196.126849,333.398791 L197.625984,335.621893 L199.184028,338.679166 L171.08236,326.260075 C157.609445,320.729754 146.417733,317.673497 135.860818,316.636118 C132.540579,316.312 129.099476,315.56216 125.341482,314.338845 L123.894147,313.717027 C121.727714,312.738578 118.095664,311.095636 117.355238,311.874941 C117.940266,311.265316 118.600454,310.864995 119.370335,310.654674 L121.055338,310.503283 Z" id="Fill-156"></path>
                        <path d="M235.924307,257.447053 L238.369034,257.868711 L239.849887,258.178604 C242.45306,258.586037 245.180144,258.566733 247.811755,258.54946 L249.678564,258.542348 C260.384784,258.568765 271.454614,258.597214 282.145599,262.473417 C284.400395,263.291332 286.594251,264.271813 288.67232,265.382348 C290.577724,266.405503 292.513599,267.727374 294.590652,269.41807 C297.01405,271.393257 300.541486,274.423096 303.161925,277.957909 L304.507693,279.950369 L305.901197,282.686572 L280.731781,271.565984 C268.662527,266.610743 258.636809,263.87454 249.186978,262.944861 C246.200897,262.655289 243.116295,261.978604 239.762539,260.887374 L238.458414,260.325503 C236.519492,259.449674 233.274414,257.981492 232.614226,258.679513 C233.135266,258.128818 233.726389,257.768123 234.415016,257.589299 L235.924307,257.447053 Z" id="Fill-158"></path>
                        <path d="M306.392073,375.042727 C309.328386,374.453422 313.6968,373.709679 317.718869,374.055134 L319.903584,374.35893 L322.582932,375.145348 L297.992449,387.850963 C286.440173,394.210374 277.69522,400.458021 270.474794,407.512406 C268.199684,409.738556 265.614794,411.777754 262.575897,413.742781 L261.316461,414.412353 C259.406994,415.379626 256.217778,416.994118 256.183245,418.026417 C256.209653,417.209519 256.400599,416.475936 256.774367,415.788075 L257.745352,414.464171 L259.725916,412.763316 L260.954882,411.769626 C263.038029,409.936684 264.935308,407.707487 266.770631,405.555508 L268.085929,404.014171 C275.621214,395.308717 283.41448,386.303529 293.332537,380.312941 C295.423809,379.052032 297.576023,377.949626 299.724173,377.036203 C301.695596,376.203048 303.873201,375.550749 306.392073,375.042727" id="Fill-160"></path>
                    </g>
                </g>
            </g>
        </g>
    </g>
</svg>