<?xml version="1.0" encoding="UTF-8"?>
<svg width="314px" height="210px" viewBox="0 0 314 210" version="1.1" xmlns="http://www.w3.org/2000/svg" xmlns:xlink="http://www.w3.org/1999/xlink">
    <!-- Generator: Sketch 40.3 (33839) - http://www.bohemiancoding.com/sketch -->
    <title>Group 4</title>
    <desc>Created with Sketch.</desc>
    <defs>
        <rect id="path-1" x="0" y="0" width="347" height="210"></rect>
        <polygon id="path-3" points="0 1008.99353 342.784277 1008.99353 342.784277 0 0 0"></polygon>
    </defs>
    <g id="Page-1" stroke="none" stroke-width="1" fill="none" fill-rule="evenodd">
        <g id="Ikuta-Website" transform="translate(0.000000, -846.000000)">
            <g id="Group-4" transform="translate(-21.000000, 846.000000)">
                <mask id="mask-2" fill="white">
                    <use xlink:href="#path-1"></use>
                </mask>
                <g id="Mask"></g>
                <g opacity="0.700011322" mask="url(#mask-2)" id="Page-1">
                    <g transform="translate(21.000000, -521.000000)">
                        <g>
                            <path d="M0.0134827044,554.261182 C0.167724843,553.422687 0.309023585,552.526997 0.424435535,551.600012 C0.754492138,548.980929 0.850488994,546.359687 0.710268868,543.819381 L0.676831761,543.054268 C0.621822327,541.079433 0.751256289,538.494883 1.05650472,535.158168 L2.11894182,524.513488 L3.15117767,515.049392 L4.71301415,500.520871 L7.61125629,472.948732 L9.06091667,459.069856 L10.018728,450.142094 L10.8417123,442.594559 L11.1297028,439.860007 L11.8221745,433.136937 L12.9547217,422.225708 L14.1002123,411.548654 L15.2122657,401.041025 L15.6814638,397.104306 C15.9273884,395.579475 16.2337154,394.218674 16.5885802,393.071544 L16.8593129,392.237365 C17.2346714,391.107501 17.620816,389.940946 17.8516399,388.188415 C18.09325,386.37869 18.0813852,384.544145 17.9929387,383.438022 L17.736228,381.860313 C17.3090959,380.344115 16.5195487,380.332244 15.8249198,380.322532 L15.2273664,380.270733 L14.3612374,380.041954 L11.1642186,379.304899 L10.3379984,379.190509 C9.58296698,379.107415 8.89912421,379.030796 8.15056447,379.941594 C7.53791038,380.686204 7.05037579,381.984414 6.70306132,383.789823 C6.3654544,385.538037 6.18316824,387.536612 6.21444811,389.019356 L6.26298585,390.178358 L6.30073742,392.603195 L6.18532547,394.653569 L5.71612736,399.560439 L5.16063994,404.413351 L4.41855189,410.972391 L1.78025629,433.936583 L0.952957547,440.86469 C0.952957547,440.86469 0.355404088,446.113648 0.0134827044,449.129857 L0.0134827044,554.261182 L0.0134827044,554.261182 Z" id="Fill-1" fill="#B7D3E0"></path>
                            <path d="M0.0134827044,948.59867 C0.993944969,948.707664 1.61846384,948.776729 1.61846384,948.776729 C3.27090409,949.007666 4.6105456,948.697951 5.71181289,947.821686 L7.1301934,946.153329 C8.13546384,944.501159 9.02855818,941.311208 9.45461164,937.836363 C9.87958648,934.364756 9.78466824,930.880198 9.16554245,927.48521 L9.00698585,926.462181 C8.6542783,923.821515 8.62407704,920.388757 8.91853931,915.97074 L10.0338286,901.879272 L11.2256997,889.442133 L13.0118884,870.164298 L16.243423,833.709721 L17.8462469,815.331893 L18.9270204,803.577852 L19.8923821,793.539651 L20.1620362,790.477039 L20.9634481,781.022655 L22.2135645,766.597732 L23.5143758,752.491157 L24.7666494,738.578827 L25.3577311,733.373035 C25.7276965,731.342085 26.2519041,729.566893 26.9109387,728.100335 L27.4211242,727.012558 C28.1265393,725.537367 28.855684,724.022249 29.1727972,721.705326 C29.4953035,719.334445 29.2526148,716.888025 28.9193223,715.384777 L28.1556619,713.264258 C27.0101714,711.197697 25.2347689,711.098416 23.6653821,711.012084 L22.3278978,710.882587 L20.4424764,710.503807 L13.0884701,709.169984 L10.9927186,708.906673 C9.50099214,708.740485 7.95857075,708.56998 6.39241981,709.702003 C5.10131604,710.635463 4.16076258,712.311374 3.59664623,714.688729 C3.04115881,717.015364 2.86210849,719.608548 3.12421226,721.616836 L3.36797956,723.170804 L3.74549528,726.399604 L3.72608019,729.117968 L3.25364623,735.614418 L2.5924544,741.936045 L1.6950456,750.701935 C1.38008962,754.051599 0.733998428,760.616035 0.0134827044,767.452414 L0.0134827044,948.59867 Z" id="Fill-7" fill="#B7D3E0"></path>
                            <path d="M43.3010535,469.164496 L42.1587987,469.068452 L40.5678396,468.741472 L34.2557767,467.586787 L32.6551101,467.396858 C31.1968208,467.251173 29.8744371,467.119518 28.5304811,468.304418 C27.4270566,469.278886 26.624566,470.989329 26.1402673,473.396901 C25.6689119,475.730011 25.5179057,478.40521 25.7347075,480.38436 L25.9396447,481.922141 L26.2643082,485.188711 L26.2459717,487.934055 L25.8404119,494.48554 L25.2870818,500.721916 L24.5040063,509.72198 L21.7600063,540.380472 L20.8755409,549.619027 L19.6836698,563.21085 L16.964478,592.947753 L14.1093805,623.312718 L12.0319654,645.775108 C10.8724528,657.829151 9.81540881,667.185333 8.70119811,675.227117 L8.09717296,679.136857 C7.72936478,681.282196 7.21917925,683.109187 6.57093082,685.188698 L6.27538994,686.134029 C5.36503774,689.050956 4.50214465,691.798458 4.17640252,695.612154 C3.90890566,698.66937 4.04696855,701.829105 4.55283962,704.253942 C5.03174528,706.571944 5.86227987,706.79209 6.74027358,707.034897 L7.13396855,707.148207 L9.7032327,707.65001 L11.4667704,707.932745 L12.6198113,708.083826 L24.367022,709.234194 C25.2719811,709.357216 26.619173,709.376641 27.8714465,708.155049 L29.0838113,706.448922 C29.9434686,704.753586 30.7071289,701.513995 31.0738585,698.003538 C31.4373522,694.484448 31.3575346,690.981545 30.8311698,687.590874 L30.6963428,686.558133 C30.3857013,683.879696 30.3673648,680.524636 30.6273113,675.990072 L31.5818868,661.783136 L32.5968648,649.312543 L34.1392862,629.74226 L36.909173,592.977969 L38.2898019,574.387549 L39.2217264,562.502932 L40.0457893,552.388111 L40.3057358,548.911108 L40.9658491,539.759964 L42.0369151,525.193673 L43.1597547,510.911197 L44.2318994,496.900665 L44.7356132,491.649549 C45.0548836,489.598095 45.5003522,487.798082 46.068783,486.290518 L46.504544,485.182236 C47.1085692,483.686542 47.7309308,482.135812 48.0005849,479.796227 C48.2788679,477.384339 48.0728522,474.926048 47.7891761,473.433591 L47.1376918,471.309835 C46.1583082,469.261619 44.6396164,469.20982 43.3010535,469.164496" id="Fill-9" fill="#B7D3E0"></path>
                            <path d="M0.0134827044,551.846489 C0.0879072327,554.023123 0.16556761,556.553716 0.0134827044,558.949417 L0.0134827044,551.846489 Z" id="Fill-17" fill="#B7D3E0"></path>
                            <mask id="mask-4" fill="white">
                                <use xlink:href="#path-3"></use>
                            </mask>
                            <g id="Clip-22"></g>
                            <path d="M87.3196025,608.597721 C88.7789704,609.693052 89.6073478,611.216804 89.7648258,613.127969 C89.9233824,614.976543 89.5059579,616.966485 88.681895,618.320812 L87.9829516,619.365423 C87.5072818,620.035572 87.0197472,620.73162 86.6853761,621.593856 L86.0425208,623.583799 C85.6747126,624.921938 85.3640711,626.47051 85.0631371,628.457215 L84.3706654,633.314444 L83.3999107,639.932836 C82.7128321,644.186823 81.0075396,655.423954 80.1306245,663.045951 L79.2332157,670.03449 L77.7263887,680.429887 C76.6445365,687.781019 75.5281686,695.38467 74.6685113,702.704507 L71.6645648,725.518698 L69.3606403,742.609108 C68.6271811,748.350156 67.6175962,756.93367 67.2950899,765.058548 L67.2713604,768.097419 C67.3252912,769.948152 67.7513447,771.600322 68.1461182,773.01508 L68.3672346,773.790985 C69.066178,776.222297 69.7219767,778.525191 69.3013164,781.395715 C68.9583164,783.701847 67.9746182,785.933517 66.5993824,787.503673 C65.2888635,789.004762 63.949222,788.864474 62.5319201,788.720947 L61.8998509,788.656199 L57.811895,788.093964 L55.0096497,787.665544 L53.181395,787.356909 L34.7478415,783.971633 C33.3208321,783.736379 31.2380239,783.265873 29.5996057,781.937446 C29.0031308,781.451831 28.5145176,780.884201 28.142395,780.263693 C27.2277283,778.731308 26.8394264,776.125174 27.1349673,773.45645 C27.4240365,770.79528 28.4088132,768.29814 30.0558604,766.024383 L30.5196654,765.340205 C31.6371119,763.532638 32.5161843,761.049527 33.2172849,757.734396 L35.2181182,747.132881 L36.7335742,737.61159 L39.1119233,723.086307 C41.9529987,707.459217 43.0413226,700.574276 43.8341057,695.547621 L46.2523635,681.652558 L47.721439,672.75825 L48.9251748,665.141649 L49.2940616,663.02113 L50.5981088,655.696977 L51.7015333,649.406645 L52.5040239,644.795461 L54.2686403,634.100061 C54.9772912,629.557942 55.6514264,625.269422 56.0440428,623.591353 C56.3697849,622.198177 56.5380491,620.865434 56.5509925,619.616864 C56.5607,618.026205 56.3072252,616.561806 55.8056686,615.267912 L55.4044233,614.318265 C54.8338352,613.013579 54.2470679,611.677599 54.4056245,609.893773 C54.5663384,608.051674 55.4885553,606.3531 56.2921245,605.378633 C56.7505365,604.823953 57.2510145,604.395532 57.8183667,604.079343 C59.8321434,602.947321 62.192156,603.458835 64.2760428,603.905601 L66.0665459,604.252006 L68.5700145,604.583304 L78.642134,606.018566 L81.4584013,606.511735 C83.4624704,606.877564 85.5334138,607.258502 87.3196025,608.597721" id="Fill-23" fill="#B7D3E0" mask="url(#mask-4)"></path>
                            <path d="M111.119057,424.556013 C112.355151,425.600624 113.033601,427.100635 113.136069,429.010721 C113.229909,430.863612 112.837292,432.876216 112.102755,434.257521 L111.483629,435.332349 L110.330588,437.623372 L109.735192,439.640293 L108.803267,444.573062 L108.134525,449.338564 L107.15622,456.152281 C106.47777,460.474254 104.79405,471.862465 103.902035,479.465037 L102.999233,486.512929 L101.531236,496.834945 L100.658635,502.896499 L98.4561006,519.474315 L95.4241101,542.552897 L93.1234214,559.717768 C92.3888836,565.516011 91.3598836,574.162115 90.9262799,582.332318 L90.8496981,585.377663 C90.8594057,587.232712 91.1894623,588.884882 91.5054969,590.27482 L91.6856258,591.073387 C92.2367987,593.483116 92.7523774,595.757953 92.3327956,598.640347 C91.9973459,600.973458 91.1074874,603.241819 89.8972799,604.872406 C88.7431604,606.428533 87.6009057,606.345438 86.3874623,606.251553 L85.8406038,606.213783 L82.3232358,605.808024 L79.9438082,605.48536 L78.4067799,605.247949 L77.5999748,605.110897 C77.518,605.100106 68.9548648,603.5688 68.9548648,603.5688 L62.6093648,602.551167 C60.7012925,602.264114 59.2667327,601.658714 58.2269465,600.701513 C57.7297044,600.245035 57.3165943,599.693592 57.0081101,599.080638 C56.2573931,597.581707 55.9715597,594.976652 56.2724937,592.288504 C56.5755849,589.608988 57.4686792,587.061128 58.9280472,584.72586 L59.339,584.011466 C60.3442704,582.129438 61.1251887,579.676543 61.7971667,576.280476 L63.7181824,565.558097 L65.1948082,556.017382 L67.5224623,541.293536 L70.6817296,522.106349 L74.4881667,499.236042 L75.8871321,490.418353 L77.0617453,482.762903 L77.4737767,480.297058 L78.676434,473.224345 L79.7669151,466.754875 L80.526261,462.211677 L82.2434182,451.416996 C82.9423616,446.830632 83.6024748,442.495709 83.9724403,440.796057 C84.2744528,439.394248 84.4491887,438.045318 84.4804686,436.789193 C84.5225346,435.193139 84.3370126,433.734136 83.9271384,432.456429 L83.6013962,431.518652 C83.135434,430.237708 82.6576069,428.91036 82.8258711,427.111427 C83.0027642,425.258536 83.826827,423.518955 84.5376352,422.506718 C84.9259371,421.9488 85.3746415,421.493401 85.870805,421.145916 C87.6192421,419.938354 89.6351761,420.355983 91.4127358,420.730446 L92.9486855,421.006707 L95.8846792,421.331529 L103.716513,422.299522 L105.873745,422.64269 L106.117513,422.688014 C107.832513,422.979383 109.602522,423.280464 111.119057,424.556013" id="Fill-24" fill="#B7D3E0" mask="url(#mask-4)"></path>
                            <path d="M0.0134827044,704.065524 C2.28936321,709.063041 4.52964937,714.089696 6.73002673,719.147646 C11.7164701,729.363905 24.7936148,763.468105 25.9671494,776.900216 L26.2238601,779.54304 C26.4816494,784.524371 24.7644921,786.923309 23.2209921,787.453169 C21.6990645,787.989503 20.0671179,786.980503 18.964772,784.826531 C17.972445,782.129749 16.2121431,776.110282 14.1714009,769.126059 C10.4997909,756.558344 5.93508648,740.917225 2.57843239,733.214293 C1.73387579,731.13694 0.879611635,729.053112 0.0134827044,726.970363 L0.0134827044,704.065524 Z" id="Fill-28" fill="#B7D3E0" mask="url(#mask-4)"></path>
                            <path d="M0.0134827044,567.282354 C0.286372642,566.799977 0.50856761,566.497816 0.672517296,566.407168 L0.808422956,566.387743 C1.20966824,566.570119 0.774985849,568.910783 0.0134827044,572.402894 L0.0134827044,567.282354 Z" id="Fill-29" fill="#B7D3E0" mask="url(#mask-4)"></path>
                            <path d="M97.1272453,476.50775 L95.8857579,477.911717 L95.4704906,478.391936 C88.4508553,486.529764 82.3577516,495.847097 76.474978,504.864427 L75.8515377,505.807599 C69.4499497,515.604072 62.1940975,526.706309 53.3408145,535.859612 C44.3548616,545.149966 33.400434,555.400759 20.2930881,560.982093 L17.2470755,562.18426 L14.8342107,562.828509 L13.4427956,563.179231 C10.8303868,563.841826 7.57080818,564.725645 5.55055975,565.764861 C4.40183333,566.363786 3.80320126,566.920625 3.72338365,567.473147 C3.74603459,567.282138 3.86252516,566.235368 3.86252516,566.235368 L4.38565409,563.906575 L4.93898428,562.179944 L6.04348742,559.370931 L7.89762893,555.396442 L11.5379591,548.394953 C13.3068899,545.226585 15.0564057,542.47153 16.8814245,539.979785 C28.6847233,523.861685 44.8769119,513.754419 60.5319497,503.97845 L73.944544,495.403568 C84.3122044,488.467907 91.7276918,482.348079 97.9933742,475.56134 L97.1272453,476.50775 Z" id="Fill-34" fill="#B7D3E0" mask="url(#mask-4)"></path>
                            <path d="M90.1823582,618.521532 C92.5315846,621.534504 95.1968456,624.946758 95.631528,625.594245 L97.7046286,628.858656 C106.406905,643.314875 110.613509,660.375068 113.587254,675.15503 C116.525405,689.761249 116.954695,704.925386 117.372119,719.593116 C117.762578,733.352207 118.167059,747.574251 120.639248,761.311759 C117.310638,742.817383 109.833669,725.573735 102.601547,708.902033 C93.9186852,688.874192 84.9348896,668.165412 83.168116,645.231435 C82.7366695,639.568085 82.7722638,633.8238 83.2759777,628.153975 L83.4226695,625.096759 C83.5553393,620.887017 83.7246821,615.643454 86.2712953,613.449554 C86.2648236,613.506748 88.0822921,615.831225 90.1823582,618.521532" id="Fill-39" fill="#B7D3E0" mask="url(#mask-4)"></path>
                            <path d="M104.001914,611.645332 L112.300789,614.324848 C116.119091,615.718023 119.481138,617.201847 122.578924,618.859413 C142.765229,629.627115 158.200229,648.195953 173.128279,666.151836 C177.346748,671.21734 181.707594,676.46414 186.111584,681.45842 C196.473852,693.205986 205.066109,701.243453 213.964694,707.506807 L212.722128,706.644571 L212.052308,706.197805 C211.958468,706.130898 210.898188,705.415425 210.898188,705.415425 L210.273669,705.010746 C199.755003,698.152784 188.325984,692.909221 177.269087,687.844796 L176.093396,687.307383 C164.079767,681.804825 150.464392,675.567371 138.306229,666.547882 C125.979801,657.405371 112.054864,645.920037 102.21249,630.067406 L100.02937,626.348675 L98.4966566,623.065917 L97.8149711,621.559432 C96.2973579,618.235667 94.3418264,614.111177 92.6721283,611.770513 C91.6625434,610.356834 90.8773107,609.732009 90.2840717,609.87014 L91.6690151,609.646757 L94.208078,609.614383 L96.1377226,609.810787 L99.3617069,610.412949 L104.001914,611.645332 Z" id="Fill-40" fill="#B7D3E0" mask="url(#mask-4)"></path>
                            <path d="M91.0752368,518.112111 C88.8122997,530.049607 86.4781739,542.393939 86.2602934,554.875323 C86.0413343,567.505629 86.4166928,582.26077 90.8821645,595.95835 L91.9812745,599.078156 L93.056655,601.425295 C94.8805953,605.255179 97.9330796,611.680404 96.829655,612.957032 C99.1961393,610.239747 100.727775,605.314532 101.958476,601.35623 L102.415809,599.89399 C103.825561,595.438202 104.868583,590.805436 105.521146,586.13274 C108.157284,567.196994 104.573042,548.381032 101.108526,530.185579 C98.2221487,515.03655 95.2397745,499.372769 95.8308563,483.658269 C95.3897022,495.334611 93.1957965,506.911672 91.0752368,518.112111" id="Fill-49" fill="#B7D3E0" mask="url(#mask-4)"></path>
                            <path d="M0.0134827044,652.832389 C4.60083805,650.25755 8.62407704,648.209334 11.1717689,647.278032 C41.0839575,633.781174 73.288206,626.721411 98.0014638,622.083248 C100.151146,621.537201 109.180244,620.101939 120.609263,618.288977 C144.476885,614.497943 180.544737,608.763369 180.312835,606.758319 C177.782401,604.674491 97.970184,615.360179 92.394816,616.792204 C55.1501934,622.967068 26.1289418,631.51497 1.06081918,643.684482 C0.726448113,643.829087 0.378055031,643.981246 0.0134827044,644.147435 L0.0134827044,652.832389 Z" id="Fill-50" fill="#B7D3E0" mask="url(#mask-4)"></path>
                            <path d="M138.873797,510.291768 L129.02603,524.960578 C117.43414,541.881561 105.447476,559.383125 99.8764226,580.593708 C99.0221585,583.863516 98.3275296,587.36426 97.7580201,591.280475 L96.7797151,599.784133 L96.431322,604.505389 L96.3773912,607.753614 L96.4701522,609.678807 L96.8056019,612.183502 L97.1378157,613.516245 C96.9717088,612.946457 97.3503031,612.082062 98.2692843,610.926298 C99.8408283,608.975205 102.66896,606.551447 104.959942,604.657549 L106.240259,603.60862 L108.272372,601.881989 L110.783391,599.269381 C121.434728,587.615701 128.307671,572.478542 133.623092,559.216937 C138.872718,546.124757 141.855092,531.9448 144.491231,519.4332 L144.765199,518.12096 C147.184536,506.635627 149.688004,494.758564 153.512778,483.57647 L153.73713,482.912796 L154.138375,481.779694 C154.145926,481.762428 154.92253,479.634355 154.92253,479.634355 C151.327501,489.191258 146.378809,498.644563 138.873797,510.291768" id="Fill-51" fill="#B7D3E0" mask="url(#mask-4)"></path>
                            <path d="M179.505383,617.539079 L178.939109,620.058881 C177.684678,624.722944 176.816392,629.530532 176.360137,634.33812 C174.49521,653.886821 178.999512,672.958539 183.351729,691.393563 C186.976958,706.744392 190.72515,722.615368 190.812518,738.750735 C190.745644,726.765757 192.483295,714.786176 194.161622,703.187532 C195.952125,690.8173 197.797637,678.039151 197.470817,665.241578 C197.135367,652.279975 196.094502,637.181665 190.921458,623.422575 L189.65732,620.284423 L186.110829,613.28725 C184.750694,610.645505 183.578238,608.367431 183.586867,608.314553 C181.135172,609.663484 180.229134,614.03186 179.505383,617.539079" id="Fill-52" fill="#B7D3E0" mask="url(#mask-4)"></path>
                            <path d="M183.085203,609.805283 C183.904951,612.2312 184.541335,616.160364 185.002982,619.316862 L185.211155,620.773707 L185.69869,623.877326 L186.614435,627.560446 C190.94508,643.423868 199.606369,656.971447 207.503998,668.135196 C215.306709,679.160814 224.919338,688.361599 233.402655,696.476764 L234.204067,697.237561 C242.022957,704.710636 250.110423,712.444864 257.080442,721.220466 L257.620828,721.903564 L258.331636,722.820837 L259.499778,724.365093 C253.716237,716.57475 248.597124,707.44303 242.888008,694.762004 L235.874844,678.376276 C227.894162,659.266787 219.642747,639.51197 205.737225,624.644598 C203.600486,622.354653 201.209193,620.12622 198.43607,617.847067 L192.31708,613.152789 L188.829913,610.737664 L186.351253,609.268948 L184.827168,608.528655 L182.758382,607.786204 C182.758382,607.786204 181.670058,607.553109 181.616127,607.536922 C182.111212,607.641599 182.608454,608.399158 183.085203,609.805283 L183.085203,609.805283 Z" id="Fill-53" fill="#B7D3E0" mask="url(#mask-4)"></path>
                            <path d="M312.385524,546.487134 L310.480688,547.168074 L309.833518,547.392536 C298.873697,551.123138 287.382119,553.132505 276.266977,555.078202 L275.106386,555.280002 C263.033433,557.392967 249.350106,559.791905 236.498392,565.096979 C223.467628,570.479751 208.526634,577.624766 196.521634,589.782407 L193.820779,592.663722 L191.864169,595.219136 L190.882628,596.52598 C189.04898,598.984271 186.374012,602.462353 184.345134,604.267762 C183.151106,605.319927 182.317336,605.699786 181.789892,605.432159 L183.020593,605.965256 L185.354719,606.621376 L187.165716,606.914903 L190.243008,607.147998 L194.738681,607.154473 L202.863898,606.726053 C206.608854,606.38936 209.978452,605.847629 213.159292,605.086832 C233.722034,600.135718 251.369276,586.85253 268.441615,574.009632 L283.224053,563.122145 C294.936747,554.863453 304.332575,549.583199 313.686336,545.998281 L312.385524,546.487134 Z" id="Fill-54" fill="#B7D3E0" mask="url(#mask-4)"></path>
                            <path d="M247.709531,498.323733 L245.7691,499.723383 L243.118939,502.775204 L241.547395,504.692843 C238.685826,507.905456 235.344273,510.71339 232.110581,513.427438 L229.836858,515.348315 C216.790993,526.500193 203.296424,538.034088 193.310593,553.888877 C191.207292,557.226671 189.299219,560.707991 187.642464,564.22816 C186.130244,567.440773 184.810018,571.061302 183.606282,575.31421 C182.205159,580.25777 180.298166,587.642355 179.891527,594.667585 L179.823575,598.499627 C179.872112,600.196042 180.02959,601.808284 180.289537,603.297503 C184.072244,596.788104 187.707181,590.026185 191.220235,583.481175 C194.761332,576.894077 198.419999,570.085755 202.226436,563.540745 C213.044958,544.94385 223.11492,531.177205 233.920499,520.219573 C237.339713,516.756598 240.56909,512.73139 243.793075,507.910852 L244.941801,505.880981 C246.615814,502.791391 249.419137,497.620131 250.78143,497.783082 C249.709285,497.653584 248.704015,497.831643 247.709531,498.323733" id="Fill-55" fill="#B7D3E0" mask="url(#mask-4)"></path>
                            <path d="M0.0134827044,710.034487 C2.92682547,711.823708 5.82506761,713.4489 8.61868396,714.954306 C18.742577,720.429885 29.8178097,723.659764 40.5263129,726.781729 C50.5703884,729.717001 60.9563852,732.751556 70.5474418,737.620655 C57.6374827,731.064853 46.548228,720.861543 35.822467,710.993846 C24.78175,700.836939 13.420684,690.39298 0.0134827044,683.874948 L0.0134827044,710.034487 Z" id="Fill-58" fill="#B7D3E0" mask="url(#mask-4)"></path>
                            <path d="M0.0134827044,729.51164 C4.21685063,737.560978 7.50231604,745.206716 10.0543223,752.800655 C11.4748601,757.04493 13.3861682,761.303234 15.8982657,765.824849 L17.0264984,767.519106 C18.7576777,770.022721 21.6591557,774.230304 21.0810173,775.468083 C21.5351148,774.484983 21.7389733,773.481378 21.7023003,772.40655 L21.3118412,770.143585 L19.929055,766.709747 L19.0338035,764.666927 C17.6121871,761.017261 16.6446682,757.035218 15.7095079,753.182672 L15.0278223,750.412509 C11.3249324,735.633626 7.50339465,720.385316 0.0134827044,706.79673 L0.0134827044,729.51164 Z" id="Fill-59" fill="#B7D3E0" mask="url(#mask-4)"></path>
                            <path d="M57.4268289,678.071525 L54.5372157,677.80066 L52.2537849,677.857855 C48.4872566,678.020806 42.1784296,678.290592 41.6833447,676.603889 C42.7425459,680.224418 45.8791623,683.953941 48.3998887,686.959359 L49.3059264,688.043899 C52.1254296,691.442124 55.239395,694.554377 58.5593761,697.272741 C72.0108006,708.313468 88.1156214,712.968896 103.695156,717.476483 C116.662282,721.231905 130.068404,725.112508 141.93642,732.642778 C133.11981,727.047414 125.148835,719.710311 117.438886,712.616016 C109.219829,705.049056 100.721411,697.22418 91.1842849,691.499319 C81.5274327,685.697839 69.9689799,679.570457 57.4268289,678.071525" id="Fill-61" fill="#B7D3E0" mask="url(#mask-4)"></path>
                            <path d="M0.0134827044,572.20444 C0.0846713836,572.100842 0.156938679,571.995086 0.228127358,571.893646 C0.156938679,571.995086 0.0846713836,572.100842 0.0134827044,572.200123 L0.0134827044,572.20444 Z" id="Fill-62" fill="#B7D3E0" mask="url(#mask-4)"></path>
                            <path d="M0.0134827044,705.533484 C6.86377516,700.035243 13.6978884,694.835925 19.3239513,690.547406 C29.2299638,683.017136 36.3898192,677.572853 35.8300173,676.45378 C34.2627877,675.942266 17.722206,685.216432 0.0134827044,697.839184 L0.0134827044,705.533484 Z" id="Fill-63" fill="#B7D3E0" mask="url(#mask-4)"></path>
                            <path d="M0.0134827044,725.264344 C9.20005818,724.442036 18.6088286,724.42369 28.1340896,725.207149 C29.6312091,725.241682 40.0398569,726.359675 49.784077,729.037033 C55.5061368,730.379488 60.6910456,732.769793 64.1210456,734.355056 C66.5004733,735.455783 68.0720173,736.176652 68.2866619,735.817297 C68.3179418,735.778448 68.3222563,735.713699 68.3017626,735.632763 C67.9544481,734.380956 60.5993632,728.437028 51.7644167,725.606433 C43.4148475,722.489864 34.4752752,721.167912 31.5371242,720.736254 L30.848967,720.631577 C20.6668286,719.187682 10.3401557,718.806744 0.0134827044,719.490921 L0.0134827044,725.264344 Z" id="Fill-64" fill="#B7D3E0" mask="url(#mask-4)"></path>
                            <path d="M142.353197,558.783337 L140.785968,560.297376 L140.243424,560.798099 C131.135587,569.312548 120.922169,576.443535 111.044201,583.333871 L110.065896,584.022366 C99.3671,591.493282 87.2423736,599.95917 76.8682415,610.83155 C66.3733044,621.847455 54.6811031,635.396113 47.5050686,652.358105 L45.9367604,656.313169 L44.9552195,659.655279 L44.4892572,661.302053 C43.5098736,664.756394 42.2198484,669.045993 40.950317,671.601407 C40.1985214,673.119763 39.5222289,673.875164 38.9408547,673.858977 L40.2902038,673.813653 L42.7257195,673.3766 L44.5453453,672.830553 L47.5363484,671.661839 L51.796883,669.63089 L59.3493547,665.535537 C62.7750403,663.518616 65.7822226,661.481191 68.5380874,659.306715 C86.3147635,645.28863 98.458905,624.699634 110.203958,604.784024 L120.458364,587.766997 C128.698993,574.639205 135.779031,565.37583 143.416713,557.727933 L142.353197,558.783337 Z" id="Fill-66" fill="#B7D3E0" mask="url(#mask-4)"></path>
                            <path d="M169.973974,692.309325 C168.785338,692.433426 167.576209,692.780911 166.408068,693.120841 L164.261621,693.683076 C160.479992,694.487038 156.498819,694.674809 152.647081,694.856105 L149.891216,694.995315 C134.204898,695.880213 117.987901,696.800724 102.569081,703.32631 C99.3353887,704.70114 96.1782786,706.306907 93.1851182,708.111236 C90.4799484,709.740744 87.723005,711.832126 84.7546528,714.493296 C81.3224956,717.587203 76.3360522,722.316013 72.7108226,727.708498 L70.8620742,730.73334 C70.0973352,732.135148 69.465266,733.525086 68.9852818,734.862146 C75.0471057,731.991622 81.1197157,728.817858 86.9927818,725.75093 C92.9230145,722.654865 99.0571057,719.456281 105.185804,716.55662 C122.562313,708.332461 137.082647,703.527031 150.881386,701.417303 C155.223895,700.75363 159.699074,699.524484 164.555005,697.646773 L166.410225,696.735975 C169.205999,695.289921 173.883958,692.873717 174.900014,693.849264 C174.099681,693.078755 173.21198,692.603931 172.189452,692.390261 C171.520709,692.247813 170.798036,692.218677 169.973974,692.309325" id="Fill-70" fill="#B7D3E0" mask="url(#mask-4)"></path>
                            <path d="M0.0134827044,599.908126 C2.67766509,609.531936 5.30409591,618.774808 8.94874057,628.767685 C11.697055,636.301192 16.5400425,643.699805 21.2201588,650.863166 C25.9099827,658.031922 30.7529701,665.442407 33.500206,672.983467 C34.0265708,671.498565 34.4677248,669.887402 34.8031745,668.183433 L35.4039638,664.25211 C36.2053758,656.995943 35.5344764,648.999484 34.9617311,643.619949 C34.464489,639.000132 33.7428947,634.992189 32.7548821,631.365185 C31.669794,627.383142 30.3215236,623.390308 28.7521368,619.498913 C21.7195582,602.068573 10.8104324,587.83358 0.0134827044,574.194274 L0.0134827044,599.908126 Z" id="Fill-71" fill="#B7D3E0" mask="url(#mask-4)"></path>
                            <path d="M0.0134827044,638.748151 C3.68940723,638.129802 7.47211478,637.06037 11.5557563,635.48374 L13.2362406,634.662511 C15.7332374,633.370775 19.9096399,631.215724 20.8199921,632.085514 C20.0973192,631.398099 19.3045362,630.969679 18.3877123,630.775433 L16.4041368,630.700972 L13.226533,631.432632 L11.2893381,631.93875 C7.89924686,632.65854 4.3268695,632.824728 0.877454403,632.990916 C0.877454403,632.990916 0.485916667,633.01142 0.0134827044,633.030844 L0.0134827044,638.748151 Z" id="Fill-72" fill="#B7D3E0" mask="url(#mask-4)"></path>
                            <path d="M0.0134827044,548.801251 C9.02316509,556.369291 18.2992657,564.21575 26.1623789,573.49747 C15.3341494,560.716084 7.66302987,545.06957 0.244306604,529.937807 C0.166646226,529.78241 0.0911430818,529.625935 0.0134827044,529.4673 L0.0134827044,548.801251 Z" id="Fill-76" fill="#B7D3E0" mask="url(#mask-4)"></path>
                        </g>
                    </g>
                </g>
            </g>
        </g>
    </g>
</svg>