<?xml version="1.0" encoding="utf-8"?>
<!-- Generator: Adobe Illustrator 21.0.2, SVG Export Plug-In . SVG Version: 6.00 Build 0)  -->
<svg version="1.1" id="Layer_1" xmlns="http://www.w3.org/2000/svg" xmlns:xlink="http://www.w3.org/1999/xlink" x="0px" y="0px"
	 viewBox="0 0 223 80" style="enable-background:new 0 0 223 80;" xml:space="preserve">
<style type="text/css">
	.st0{fill:#83CEE8;}
	.st1{fill:#83CEE7;}
	.st2{clip-path:url(#SVGID_2_);fill:#FFFFFF;}
	.st3{fill-rule:evenodd;clip-rule:evenodd;fill:none;}
	.st4{clip-path:url(#SVGID_4_);fill:#FFFFFF;}
	.st5{clip-path:url(#SVGID_6_);fill:#FFFFFF;}
	.st6{clip-path:url(#SVGID_8_);fill:#FFFFFF;}
	.st7{clip-path:url(#SVGID_10_);fill:#FFFFFF;}
	.st8{clip-path:url(#SVGID_12_);fill:#FFFFFF;}
	.st9{clip-path:url(#SVGID_14_);fill:#FFFFFF;}
	.st10{clip-path:url(#SVGID_16_);fill:#FFFFFF;}
	.st11{clip-path:url(#SVGID_18_);fill:#FFFFFF;}
	.st12{clip-path:url(#SVGID_20_);fill:#FFFFFF;}
	.st13{clip-path:url(#SVGID_22_);fill:#FFFFFF;}
	.st14{clip-path:url(#SVGID_24_);fill:#FFFFFF;}
	.st15{clip-path:url(#SVGID_26_);fill:#FFFFFF;}
	.st16{clip-path:url(#SVGID_28_);fill:#FFFFFF;}
	.st17{clip-path:url(#SVGID_30_);fill:#FFFFFF;}
	.st18{clip-path:url(#SVGID_32_);fill:#FFFFFF;}
	.st19{clip-path:url(#SVGID_34_);fill:#FFFFFF;}
	.st20{clip-path:url(#SVGID_36_);fill:#FFFFFF;}
	.st21{fill:#FFFFFF;}
</style>
<title>ikuta-logo-process copy</title>
<g>
	<path class="st0" d="M187.7,34.4c0-0.8,0-1-0.1-0.8c0.2-0.4,0.4-0.6,0.5-1c0.3-1.2,0.5-2,0.6-2.7c0.2-0.5,0.4-0.9,0.6-1.2
		c0.1-0.8,0.2-1.4,0.2-1.8c0.3-0.8,0.5-1.3,0.8-1.7c0.2-0.9,0.3-1.5,0.4-1.9c0.2-0.3,0.4-0.6,0.5-0.8c1.2-2.4,2.4-4.6,3.3-6.9
		c0.4,1.1,0.8,1.9,0.9,2.5c0.5,1.3,1,2.3,1.3,2.9c0.6,2.1,1.2,3.9,1.5,4.9c2,5.5,3,8.3,3,8.3h-13.6L187.7,34.4L187.7,34.4z
		 M222.9,55.2c-0.9-0.3-1.4-0.5-1.8-0.6c-1.4-0.5-2.2-1-2.4-1.3c-0.6-1.3-1.2-2.1-1.4-2.6c-0.9-2-1.4-3.7-1.8-4.8
		c-0.1-0.4-0.1-0.6-0.1-1c-0.5-1-1-1.6-1.3-2c-0.9-2-1.5-3.4-1.8-4.2c-0.1-0.4-0.2-0.9-0.2-1.1c-0.4-1.4-0.8-2.6-0.8-3.3
		c-1.2-3.4-2.1-6.1-2.7-8c-0.9-1.9-1.5-3.4-1.9-4.4c-0.3-1.3-0.4-1.9-0.3-2.1c-0.8-1.1-1.3-2.4-1.7-3.7c-0.2-1.1-0.4-1.8-0.4-2.4
		c-1.8-4.5-3.1-7.8-3.9-10c-2.1-0.2-3.9-0.2-4.9-0.3c-1.2-0.1-1.8,0-1.9,0.2c-0.2,0.5-0.5,1-0.6,1.5c-0.8,1.7-1.2,2.9-1.5,3.8
		c-0.3,1-0.5,1.7-0.6,2.2c-1,2.1-1.6,3.8-1.8,4.8c-0.8,2.3-1.4,4-1.8,5.2c-0.1,0.5-0.1,0.9-0.1,1.2c0.1-0.4,0.2-0.6,0.3-0.8v0.1
		c0,0.4-0.1,1.3-0.4,2.4c-0.3,1.2-0.5,1.8-0.8,1.8c-0.1,0-0.2-0.2-0.3-0.6c-0.2,0.2-0.3,0.4-0.4,0.5c-1.2,3.8-2.1,6.7-2.8,8.5
		c-0.6,2-1.4,3.9-2.1,5.8c-0.9,2.7-1.5,4.7-1.8,6c-1,2.1-1.7,3.8-2.1,4.7c-0.4,1-1.1,1.7-1.7,2.1c-0.6,0.5-1.1,1-1.5,1.6
		c-0.9,0.6-1.3,1.1-1.3,1.4c0,0.1,0,0.2,0.1,0.3c1.9,0.2,3,0.3,3,0.3c1.3-0.2,2.4-0.3,3-0.5c3,0,5.4,0.1,7,0.2
		c1.1-0.2,1.8-0.3,2.4-0.5c-0.1-0.2-0.3-0.5-0.5-1c-0.3-0.1-0.5-0.1-0.6-0.2c-0.5-0.2-1.2-0.6-1.9-1.2c-0.8-0.6-1.2-1.1-1.3-1.3
		c-0.2-0.4-0.2-1.4,0-2.7c0.3-1.8,0.4-2.7,0.4-2.5c0-0.3,0.3-1.5,1-3.4c0.5-1.2,0.9-2,1.2-2.7c0.5-1.2,1.2-1.7,1.8-1.7l8.8-0.1
		c4.1-0.2,6.3-0.3,6.9-0.3c0.3,0,0.5,0.1,0.5,0.2c0,0.5,0.2,1.4,0.6,2.6c0.5,1.4,0.9,2.1,1,2.4c0.8,3.2,1.3,5.6,1.6,7.2
		c0.1,0.3,0.1,0.8-0.1,1.4c-0.2,0.5-0.5,1-1,1.3c-1,0.3-1.8,0.5-2.4,0.5c-0.1,0.5-0.2,1.3-0.1,2.1c0.4,0.4,1.3,0.6,2.5,0.3
		c2.2-0.4,5.4-0.6,9.4-0.6h3.3c-0.1,0,0.6,0.1,2.2,0.2c1,0.1,1.7,0,2.2-0.2v-0.8H222.9z M173.9,3.8C173.3,3.9,172.6,4,172,4
		c-1.7,0.1-3.4,0.2-5.2,0.5C165,4.9,164.3,5,164.3,5h-6.9c0.1,0-1.5-0.1-5-0.4c-3.5-0.3-6.1-0.4-7.8-0.4c-5.9,0-8.5,0-7.6,0.1
		L135.7,6c-0.2,1-0.4,2.9-0.9,5.8c-0.3,2.4-0.6,4.2-1,5.3c-0.1,0.2,0,0.5,0,1.1c0.1,0.5,0.2,1,0.2,1.1c1,0,1.6-0.2,1.8-0.8
		c0.5-1,1.1-2.7,1.7-5.2c0.1-0.5,0.8-1.3,1.9-2.1c1.2-0.9,2.1-1.3,3-1.3h7.7c0.4,3.9,0.6,6,0.6,6.3c0.5,1.7,1.1,3,1.4,4
		c-0.1,0.2-0.2,0.3-0.3,0.3h-1.1v14.9c-0.2,4.2-0.3,8.2-0.4,12c-0.2,2.2-0.4,3.4-0.5,3.8c-0.6,1.1-1.7,2-3.2,2.8
		c-1.2,0.5-2.5,0.9-3.8,1.2v0.6c0,0.3,0.1,0.5,0.3,0.5h23.6c0.6-0.8,1-1.4,1-1.8c-1.3-0.3-2.6-0.5-3.9-0.9c-1.6-0.4-2.5-1.3-2.8-2.7
		c-0.5-2.9-1.1-5-1.3-6.4c-0.1-2-0.1-4,0.1-6c-0.3-3.9-0.5-5.8-0.5-5.7c0.5-5.9,0.6-10.5,0.3-13.9c-0.3-3.3-0.3-5.9,0.1-7.7
		c0.2-0.6,0.6-1.2,1.4-1.4c2.1-0.4,3.8-0.6,4.9-0.8c2.2-0.5,3.8-0.5,4.3-0.1c1.4,1,2.2,2.3,2.5,4.1c0.4,3.1,0.6,4.7,0.6,4.9
		c0.1,0,0.4,0,0.8-0.1c0.3-0.1,0.6-0.1,0.8-0.1V8.1c0.2-1.5,0.4-2.7,0.5-3.8C175.3,3.9,174.8,3.7,173.9,3.8L173.9,3.8z M128.7,4.3
		c-0.1,0-0.3,0-0.6-0.1h-0.6c-2.6,0.2-4.4,0.2-5.5,0.1c-0.5,0-1.1,0.1-1.4,0.1c-1.9-0.4-3.9-0.4-5.9-0.2c-1,0.1-1.4,0.2-1.3,0.2
		c0,0.4,0.1,0.8,0.2,1.1c0.9,0.2,1.4,0.3,1.7,0.3c1.8,0.5,2.9,1.2,3.1,2c0.6,2.2,1.1,4.1,1.3,5.7l-0.1,19.7c0.2,2.5,0.2,4.4,0,5.9
		c-0.3,2.1-0.5,4.1-0.8,5.6c-0.4,1.8-1.5,3.5-3.1,5.2c-1.7,1.8-3.3,2.7-4.8,2.7h-5.6c-1,0-1.8,0-2.6-0.1c-0.9-0.1-1.8-0.5-2.8-1.3
		c-0.8-0.5-1.5-1.2-2.2-1.7c-1-1.1-1.6-1.9-2-2.5c-0.5-0.7-1-1.3-1.4-2c0.1-0.4,0.1-0.9,0-1.1c-0.2-0.5-0.4-1-0.5-1.3v-1.5
		c0-0.9-0.1-1.9-0.2-2.8c-0.2-0.4-0.3-0.8-0.5-1c-0.3-2-0.4-3.3-0.3-4c0.2-1.9,0.3-2.9,0.3-3.1c-0.1-0.2-0.1-0.4-0.2-0.5
		c0.2-2,0.2-3.3,0.2-3.7c-0.2-2.4-0.4-3.4-0.4-3.1c0.2-1.7,0.3-2.9,0.2-3.3c0.2-1.4,0.3-2.1,0.3-2.1c-0.2-1-0.4-1.5-0.4-1.4
		c0.6-2.9,1.3-5.7,1.8-8.2c0.1-0.3,0.3-0.6,0.9-1.1c0.3-0.2,0.6-0.3,0.9-0.4C96.6,6.2,96.9,6,97,5.8c1.7-0.3,2.6-0.6,2.6-1.1
		c0-0.2-0.1-0.4-0.3-0.8c-2.7,0.2-4.6,0.2-6,0.2c-0.3,0-0.9,0.1-1.6,0.2c-0.6,0.1-1.1,0.2-1.2,0.2h-4.1c-2.8,0-5.2-0.2-7.4-0.5
		c-1-0.1-1.4,0.1-1.4,0.5c0,0.1,0,0.3,0.1,0.4c2.4,0.5,3.6,1,4,1.2c1.1,0.6,1.6,1.7,1.8,3.3c0.5,7.2,1,12.6,1.2,16.2L85,39
		c0.2,7,2.8,11.9,7.8,14.8c0.8,0.4,1.3,0.8,1.6,0.8c0.9,0.1,1.5,0.2,2,0.2c1.5,0.5,2.6,1.1,3.3,1.5c1.2,0.2,2.1,0.3,2.8,0.3
		c1.8,0.4,2.5,0.5,2.1,0.5h3.1c0,0,0.2,0.1,0.5,0.2c0.3,0.1,0.5,0.2,0.6,0.1c0.9-0.4,1.4-0.6,1.8-1c1.9-0.5,3.1-0.6,3.5-0.3
		c1.4-1,2.9-2,4.3-3c1.8-1.3,3-2.4,3.6-3.2c0.5-0.8,1.2-2,2-3.8c0.8-1.7,1.3-3.1,1.4-4c0.4-2.9,0.6-5,0.8-6.6
		c-0.1,0.5-0.1-0.5-0.1-3.2c0-0.1,0-0.2,0.1-0.3c0.1-0.1,0.1-0.2,0.1-0.3c0-3.5-0.1-6.4-0.3-8.7c-0.1-0.5-0.1-1,0-1.1
		c0-0.1,0.1-0.3,0.2-0.6c0.1-0.3,0.1-0.5,0.1-0.6v-3.2c0,0-0.2-1.3-0.5-3.9c-0.1-0.4,0-1.4,0.1-2.9c0.1-0.3,0.2-0.5,0.3-0.6
		c0.2-1.6,0.8-2.8,1.6-3.7c0.8-0.3,1.4-0.5,1.8-0.4c1.1-0.3,1.8-0.4,2.4-0.5c0.3-0.1,0.5-0.6,0.5-1.6C130.3,4.1,129,4.3,128.7,4.3
		L128.7,4.3z M79.1,54.5c-0.6,0-1.2-0.1-1.5-0.1c-1.4-0.5-2.4-1-3-1.3c-0.3-0.2-0.4-0.4-0.5-0.5c-1.8-1.5-3.2-2.8-4.2-3.9
		c-2.5-2-3.8-3.1-4-3.3c-0.5-0.6-0.9-1.2-1.2-1.6c-0.6-0.4-1.2-0.6-1.6-0.9c-0.6-0.4-1.2-1-1.7-1.5c-1.5-1.7-2.7-2.8-3.3-3.3
		c-0.9-0.5-1.5-1-1.9-1.2c-1.9-1.8-3.3-3.1-4.3-4.1c-0.2-0.3-0.2-0.5-0.3-0.6c-1.4-1.4-2.7-2.8-4.1-4c-0.4-0.3-0.8-0.4-1-0.5
		c1-1,1.6-1.7,2.1-2.3c0.6-0.9,1.1-1.5,1.4-1.9c2.9-3,4.6-4.7,5.1-5.2c0.3-0.2,0.6-0.3,0.9-0.4c3.5-3.8,6.2-6.7,8.1-8.8
		c0.4-0.2,0.6-0.4,0.9-0.5c1.2-1.1,2-1.8,2.5-2.3c1.6-0.9,3.2-1.2,5-1c0.1-0.5,0.2-1.2,0.2-1.7c-3.6,0.1-6.4,0.2-8.5,0.3
		c0,0-0.5-0.1-1.6-0.2c-0.4,0-0.9,0.1-1.1,0.2c-3.3-0.3-5.6-0.3-6.9,0c0,0.8,0.1,1.2,0.2,1.3c0.8,0.1,1.4,0.2,2.1,0.3
		c0.8,0.1,1.6,0.5,2.1,1.2c0.5,0.6,0.6,1.3,0.2,2.2c-0.4,0.9-0.9,1.8-1.5,2.6c-0.8,1-1.3,1.6-1.7,2c-1.3,1.5-3,3.2-5.1,5.4
		c-0.5,0.4-1,0.8-1.3,1c-1,1.2-2.9,3.1-5.7,5.9c-0.8,0.9-1.4,1.5-1.8,2c-0.6,0.5-1,0.8-1.1,0.9c-0.2-1.6-0.2-2.8-0.1-3.7
		c-0.3-1.7-0.4-2.6-0.4-2.6c0.1-1.1,0.1-1.9,0.2-2.6c-0.2-0.5-0.2-1.1-0.2-1.5c0-0.1,0.1-0.2,0.2-0.4c0.2-0.2,0.2-0.3,0.2-0.3
		c0-0.3-0.1-0.9-0.3-1.4c-0.1-0.5-0.2-0.9-0.2-1c0.3-2.2,0.6-3.8,0.9-4.8c0.2-1.4,0.3-2.1,0.4-2.3c0.6-1,1.4-1.6,2.5-2
		c0.9-0.2,1.6-0.3,2.5-0.5V4.8c0-0.3-0.1-0.5-0.3-0.9C45.8,4,43.8,4,40.4,4C40,4,39.6,4,39,4.1c-0.5,0.1-0.9,0.1-0.9,0.1h-3.3
		l-6.6-0.3C27,3.8,26.4,4.2,26.4,5c0,0.1,0,0.2,0.1,0.4c1.9,0.2,3.3,0.5,4.1,1c0.5,0.3,1.1,1,1.4,2.3c0.3,1,0.4,1.7,0.4,2.5v5.3
		c0,0.1-0.1,0.3-0.2,0.5v3.3c0.4,0.5,0.5,1.2,0.4,1.7c-0.4,1.9-0.4,3.4-0.1,4.6c0-0.2-0.1,0.6-0.1,2.4V33c0,0.5,0.1,1,0.4,1.4
		c0.3,0.3,0.4,0.5,0.4,0.4c-0.6,1-1,1.6-1.1,1.9c0,2.6,0.1,4.5,0.2,5.8c-0.2,2.6-0.3,4.4-0.5,5.7c-0.2,1.8-0.4,3-0.6,3.4
		c-0.4,0.9-1.2,1.7-2,2.2c-0.3,0.2-1,0.3-1.8,0.4c-0.6,0.1-1.1,0.3-1.2,0.5v0.3c0,0.5,0.3,0.9,1,1c0.5,0.1,1.1,0.1,1.6,0h5.4
		c-0.1,0,0.5-0.1,1.9-0.2c1.3-0.1,2.1-0.2,2.8-0.1c0.2,0,0.6,0.1,1.4,0.2c0.6,0.1,1.1,0.2,1.1,0.2H45c1.3-0.2,2.1-0.2,2.7-0.3
		c0.2-0.1,0.2-0.5,0.2-1.3c-1.1-0.4-1.8-0.6-2.5-0.8c-1.5-0.3-2.7-1.1-3.5-2.6c-0.1-0.8-0.2-1.4-0.2-1.8c-0.2-1.1-0.4-1.8-0.5-2.4
		c-0.2-1.6-0.3-2.9-0.4-3.8c0-1.8,0.1-3.2,0.1-4.2c-0.1-1.6-0.2-2.9-0.3-3.7c-0.1-1.5,0-2.4,0.3-2.6c0.9,0.6,1.6,1.1,2,1.5
		c0.8,0.6,1.4,1.1,1.8,1.4c0.6,0.9,1.2,1.5,1.4,1.9c0.6,0.4,1.2,0.6,1.6,0.8c0.3,0.3,0.4,0.5,0.5,0.8c0.5,0.3,1.1,0.5,1.4,0.8
		c0.1-0.3,0.2-0.5,0.3-0.8c-0.3-0.1-0.4-0.2-0.4-0.4c0.3,0,0.6,0.1,1,0.5l0.6,0.6c1.1,0.3,1.7,0.8,2,1.3c-0.6-0.2-1-0.2-1.1-0.3
		l-1-0.3c0,0-0.2,0.1-0.6,0.2c1,0.9,1.8,1.5,2.6,1.9l2.4,2.4c2.6,2.1,4.6,4,6,5.4c0.6,0.5,1,1,1,1.2c0.8,0.8,1.3,1.3,1.7,1.6
		c0.1,0.1,0.1,0.3,0.1,0.4c0,0.4-0.6,0.6-1.8,0.8c-0.3,0.4-0.2,1,0.1,1.5l6.4-0.1h3.9l6.4,0.1C79.6,55.5,79.4,54.9,79.1,54.5
		L79.1,54.5z"/>
	<path class="st1" d="M19.1,0.4H7.6c-1.9,0-3.9,0-5.7-0.2C1.4,0.1,0.6-0.3,0.3,0.4C0.1,0.8-0.1,1.8,0,2.2c0.1,0.5,1.1,0.8,1.5,1
		c0.7,0.3,1.5,0.6,2,1.3C4.6,5.8,5,7.6,5.7,9c0.9,1.6,0.8,3.3,1,5.1c0.1,1,0.4,1.7,0.6,2.6c0.2,1,0.1,1.9,0.1,2.9
		c0,4.1,0.2,8.2,0,12.2c0,1-0.1,1.9,0.1,2.9c0.1,0.4,0.2,0.9,0.2,1.3s-0.2,0.9-0.3,1.4c-0.3,1.9,0,4-0.1,5.9c0,1,0.1,1.9,0.1,2.9
		c0,0.3-0.2,0.8-0.2,1.2s0.2,0.8,0.3,1.2c0.3,0.9,0.3,1.8,0.3,2.8c0,0.9,0.1,1.8,0,2.7c-0.1,0.9-0.2,9.1-0.1,9.9
		c0.1,0.9,0.1,3.4-0.2,4.5c-0.8,2.4-1.9,5.9-2.1,6.3c-0.8,1.4-2.7,1.6-4,1.9c-0.6,0.2-1.2,0.4-1.3,1.2C0,78.4,0,79.2,0.5,79.5
		C1,80,1.9,79.8,2.6,79.8c1,0,1.9-0.1,2.9-0.1c1.9,0,3.7,0,5.7-0.3c0.9-0.1,1.8,0.1,2.7,0c1-0.1,1.8-0.2,2.7-0.1
		c1.9,0.2,3.8,0.1,5.7,0.2c0.8,0,1.4,0.2,1.7-0.6c0.1-0.3,0.2-0.8,0.2-1.1c0-0.4,0.1-0.6-0.3-0.8c-1.5-0.3-2.9-0.8-4.1-1.7
		s-1.8-2.5-2.1-4c-0.9-3.5-0.8-7.3-0.6-11c0.1-2,0-4.1,0.1-6.2c0-1,0.1-1.9,0-2.9s-0.2-1.7,0-2.7c0.2-1,0.1-2,0.1-3v-9.3
		c0-4.2,0-8.3,0.1-12.5v-6.1c0-1.9,0.2-3.9,0.5-5.8C18,10,18.3,8.1,19,6.4c0.3-0.8,0.6-1.5,1.1-2c0.5-0.6,1.4-0.9,2.1-1.2
		C22.6,3.1,23.7,3,24,2.5c0.2-0.2,0.2-0.8,0.3-1.1c0.1-0.4,0.2-1,0.2-1.4C22.4-0.1,20.7,0.3,19.1,0.4"/>
</g>
<g>
	<defs>
		<rect id="SVGID_1_" x="-634" y="-5359" width="1370" height="10763"/>
	</defs>
	<clipPath id="SVGID_2_">
		<use xlink:href="#SVGID_1_"  style="overflow:visible;"/>
	</clipPath>
	<rect x="-54" y="3255" class="st2" width="23.6" height="22.9"/>
</g>
<path class="st3" d="M-45.5,3270.1c0,0.4,0,1.2,0.4,1.5c0.3,0.3,1.5,0.3,1.9,0.3c3.5,0,5.4-2.1,5.4-5.7c0-1.5-0.3-3.1-1.4-4.2
	c-1-1-2.6-1.4-4-1.4c-0.5,0-1.7,0.1-2,0.5c-0.2,0.3-0.2,1.1-0.2,1.5v7.4H-45.5z M-49,3272.1h0.2c0.5-0.1,1-0.1,1.3-0.6
	c0.2-0.4,0.2-1.3,0.2-1.7v-6.9c0-1.3,0.1-2.3-1.4-2.4h-0.2v-0.5h5.6c1.8,0,4,0.1,5.5,1.3c1.6,1.2,2.5,3.2,2.5,5.3
	c0,1.9-0.9,3.9-2.4,5.1c-1.6,1.2-3.6,1.3-5.6,1.3H-49V3272.1z"/>
<g>
	<defs>
		<rect id="SVGID_3_" x="-634" y="-5359" width="1370" height="10763"/>
	</defs>
	<clipPath id="SVGID_4_">
		<use xlink:href="#SVGID_3_"  style="overflow:visible;"/>
	</clipPath>
	<rect x="-39" y="3258" class="st4" width="18.6" height="19.5"/>
</g>
<path class="st3" d="M-27.6,3266.1c0-1.4-0.9-2.4-2.1-2.4c-1.3,0-2.2,1.1-2.4,2.4H-27.6z M-32.1,3266.9v1c0,0.9,0.3,1.9,0.9,2.6
	c0.5,0.8,1.5,1.2,2.4,1.2c1.3,0,2.1-0.6,2.8-1.7l0.6,0.3c-0.6,1.5-2.2,2.3-3.9,2.3c-1.3,0-2.4-0.3-3.3-1.2c-1-1-1.4-2.3-1.4-3.5
	c0-2.7,1.7-4.7,4.5-4.7c2.2,0,4.1,1.5,4.1,3.9H-32.1z"/>
<g>
	<defs>
		<rect id="SVGID_5_" x="-634" y="-5359" width="1370" height="10763"/>
	</defs>
	<clipPath id="SVGID_6_">
		<use xlink:href="#SVGID_5_"  style="overflow:visible;"/>
	</clipPath>
	<rect x="-29" y="3258" class="st5" width="21.8" height="19.2"/>
</g>
<path class="st3" d="M-13.7,3269.9c0,1,0.2,1.7,1.3,1.8h0.2v0.5h-5v-0.5h0.2c1.2-0.1,1.4-0.8,1.4-1.8v-3.9c0-0.5-0.1-1-0.3-1.4
	c-0.3-0.4-0.9-0.6-1.3-0.6c-1.3,0-2.5,0.8-3.3,1.5v4.4c0,1.1,0.2,1.7,1.4,1.8h0.2v0.5h-5v-0.5h0.2c1.3-0.1,1.5-0.6,1.5-1.8v-3.9
	c0-1.1-0.2-1.7-1.4-1.8H-24v-0.5l2.9-0.4h0.6v1.5c1.2-1.1,2.5-1.7,4-1.7c0.7,0,1.5,0.2,2,0.8c0.6,0.5,0.7,1.2,0.7,1.9V3269.9z"/>
<g>
	<defs>
		<rect id="SVGID_7_" x="-634" y="-5359" width="1370" height="10763"/>
	</defs>
	<clipPath id="SVGID_8_">
		<use xlink:href="#SVGID_7_"  style="overflow:visible;"/>
	</clipPath>
	<rect x="-17" y="3255" class="st6" width="17" height="22.7"/>
</g>
<path class="st3" d="M-5.8,3264.1h-2.7v5.3c0,1.1,0,2.6,1.4,2.6c0.6,0,1.2-0.4,1.6-0.9l0.4,0.4c-0.6,0.9-1.6,1.2-2.7,1.2
	c-0.6,0-1.3-0.1-1.8-0.4c-0.7-0.5-0.9-1.2-0.9-2v-6.1H-12v-0.6c2.1-0.1,2.6-1.6,2.6-3.4h0.9v3.4h2.7v0.6H-5.8z"/>
<g>
	<defs>
		<rect id="SVGID_9_" x="-634" y="-5359" width="1370" height="10763"/>
	</defs>
	<clipPath id="SVGID_10_">
		<use xlink:href="#SVGID_9_"  style="overflow:visible;"/>
	</clipPath>
	<rect x="-10" y="3258" class="st7" width="20.4" height="19.5"/>
</g>
<path class="st3" d="M1.4,3267.6c-1.4,0.1-4.5,0.5-4.5,2.4c0,1,0.9,1.5,1.7,1.5c1,0,2-0.6,2.8-1.3V3267.6z M5.4,3271.8
	c-0.4,0.4-1.3,0.6-1.9,0.6c-1,0-1.7-0.4-2-1.4c-1.1,0.9-2.1,1.4-3.5,1.4c-1.3,0-2.9-0.8-2.9-2.3c0-1.3,0.7-1.9,1.8-2.4
	c1-0.4,2-0.6,3.1-0.8l1.4-0.1v-1.4c0-0.5-0.1-1.1-0.6-1.4c-0.5-0.3-1.2-0.4-1.7-0.4s-1.8,0.3-1.8,1v0.2c0,0.6-0.2,1.2-1,1.2
	c-0.4,0-0.9-0.3-0.9-0.9c0-0.8,0.9-1.5,1.5-1.7c0.7-0.3,1.8-0.5,2.7-0.5c0.7,0,1.8,0.2,2.5,0.6c1,0.5,1.1,1.3,1.1,2.4v3.7
	c0,0.8,0.1,1.9,1.1,1.9c0.3,0,0.5-0.1,0.7-0.3L5.4,3271.8z"/>
<g>
	<defs>
		<rect id="SVGID_11_" x="-634" y="-5359" width="1370" height="10763"/>
	</defs>
	<clipPath id="SVGID_12_">
		<use xlink:href="#SVGID_11_"  style="overflow:visible;"/>
	</clipPath>
	<rect x="1" y="3254" class="st8" width="14.9" height="23.4"/>
</g>
<path class="st3" d="M9.4,3270.1c0,1,0.1,1.7,1.3,1.8h0.2v0.5H6v-0.5h0.2c1.2-0.1,1.4-0.6,1.4-1.8v-7.5c0-1.3,0.1-2.3-1.4-2.4H6
	v-0.5c1-0.1,1.8-0.2,2.7-0.6h0.7V3270.1z"/>
<g>
	<defs>
		<rect id="SVGID_13_" x="-634" y="-5359" width="1370" height="10763"/>
	</defs>
	<clipPath id="SVGID_14_">
		<use xlink:href="#SVGID_13_"  style="overflow:visible;"/>
	</clipPath>
	<rect x="13" y="3255" class="st9" width="23.8" height="22.8"/>
</g>
<path class="st3" d="M19.7,3262.9c0-1.3,0.1-2.3-1.4-2.4H18v-0.5h5.2v0.5H23c-0.5,0-1.1,0.1-1.3,0.6c-0.2,0.4-0.2,1.3-0.2,1.7v2.6
	h6.7v-2.6c0-1.3,0.1-2.3-1.4-2.4h-0.3v-0.5h5.2v0.5h-0.2c-0.5,0.1-1.1,0.1-1.3,0.6c-0.2,0.4-0.2,1.3-0.2,1.7v7
	c0,1.3-0.1,2.3,1.4,2.4h0.3v0.5h-5.2v-0.5h0.2c0.5,0,1.1-0.1,1.3-0.6c0.2-0.4,0.2-1.3,0.2-1.7v-3.5h-6.7v3.5c0,1.3-0.1,2.3,1.4,2.4
	h0.3v0.5H18v-0.5h0.2c0.5-0.1,1.1-0.1,1.3-0.6c0.2-0.4,0.2-1.3,0.2-1.7V3262.9z"/>
<g>
	<defs>
		<rect id="SVGID_15_" x="-634" y="-5359" width="1370" height="10763"/>
	</defs>
	<clipPath id="SVGID_16_">
		<use xlink:href="#SVGID_15_"  style="overflow:visible;"/>
	</clipPath>
	<rect x="28" y="3258" class="st10" width="18.6" height="19.5"/>
</g>
<path class="st3" d="M39.4,3266.1c0-1.4-0.9-2.4-2.1-2.4c-1.3,0-2.2,1.1-2.4,2.4H39.4z M34.9,3266.9v1c0,0.9,0.3,1.9,0.9,2.6
	c0.5,0.8,1.5,1.2,2.4,1.2c1.3,0,2.1-0.6,2.8-1.7l0.6,0.3c-0.6,1.5-2.2,2.3-3.9,2.3c-1.3,0-2.4-0.3-3.3-1.2c-1-1-1.4-2.3-1.4-3.5
	c0-2.7,1.7-4.7,4.5-4.7c2.2,0,4.1,1.5,4.1,3.9H34.9z"/>
<g>
	<defs>
		<rect id="SVGID_17_" x="-634" y="-5359" width="1370" height="10763"/>
	</defs>
	<clipPath id="SVGID_18_">
		<use xlink:href="#SVGID_17_"  style="overflow:visible;"/>
	</clipPath>
	<rect x="38" y="3258" class="st11" width="20.4" height="19.5"/>
</g>
<path class="st3" d="M49.4,3267.6c-1.4,0.1-4.5,0.5-4.5,2.4c0,1,0.9,1.5,1.7,1.5c1,0,2-0.6,2.8-1.3V3267.6z M53.4,3271.8
	c-0.4,0.4-1.3,0.6-1.9,0.6c-1,0-1.7-0.4-2-1.4c-1.1,0.9-2.1,1.4-3.5,1.4c-1.3,0-2.9-0.8-2.9-2.3c0-1.3,0.7-1.9,1.8-2.4
	c1-0.4,2-0.6,3.1-0.8l1.4-0.1v-1.4c0-0.5-0.1-1.1-0.6-1.4c-0.5-0.3-1.2-0.4-1.7-0.4c-0.5,0-1.8,0.3-1.8,1v0.2c0,0.6-0.2,1.2-1,1.2
	c-0.4,0-0.9-0.3-0.9-0.9c0-0.8,0.9-1.5,1.5-1.7c0.7-0.3,1.8-0.5,2.7-0.5c0.7,0,1.8,0.2,2.5,0.6c1,0.5,1.1,1.3,1.1,2.4v3.7
	c0,0.8,0.1,1.9,1.1,1.9c0.3,0,0.5-0.1,0.7-0.3L53.4,3271.8z"/>
<g>
	<defs>
		<rect id="SVGID_19_" x="-634" y="-5359" width="1370" height="10763"/>
	</defs>
	<clipPath id="SVGID_20_">
		<use xlink:href="#SVGID_19_"  style="overflow:visible;"/>
	</clipPath>
	<rect x="48" y="3254" class="st12" width="14.9" height="23.4"/>
</g>
<path class="st3" d="M56.4,3270.1c0,1,0.1,1.7,1.3,1.8h0.2v0.5H53v-0.5h0.2c1.2-0.1,1.4-0.6,1.4-1.8v-7.5c0-1.3,0.1-2.3-1.4-2.4H53
	v-0.5c1-0.1,1.8-0.2,2.7-0.6h0.7V3270.1z"/>
<g>
	<defs>
		<rect id="SVGID_21_" x="-634" y="-5359" width="1370" height="10763"/>
	</defs>
	<clipPath id="SVGID_22_">
		<use xlink:href="#SVGID_21_"  style="overflow:visible;"/>
	</clipPath>
	<rect x="54" y="3255" class="st13" width="17" height="22.7"/>
</g>
<path class="st3" d="M65.2,3264.1h-2.7v5.3c0,1.1,0,2.6,1.4,2.6c0.6,0,1.2-0.4,1.6-0.9l0.4,0.4c-0.6,0.9-1.6,1.2-2.7,1.2
	c-0.6,0-1.3-0.1-1.8-0.4c-0.7-0.5-0.9-1.2-0.9-2v-6.1H59v-0.6c2.1-0.1,2.6-1.6,2.6-3.4h0.9v3.4h2.7v0.6H65.2z"/>
<g>
	<defs>
		<rect id="SVGID_23_" x="-634" y="-5359" width="1370" height="10763"/>
	</defs>
	<clipPath id="SVGID_24_">
		<use xlink:href="#SVGID_23_"  style="overflow:visible;"/>
	</clipPath>
	<rect x="61" y="3254" class="st14" width="21.8" height="23.4"/>
</g>
<path class="st3" d="M76.3,3270.1c0,1.1,0.1,1.7,1.3,1.8h0.2v0.5h-5v-0.5H73c1.3-0.1,1.5-0.6,1.5-1.8v-3.9c0-0.5,0-1.1-0.3-1.5
	c-0.3-0.3-0.9-0.5-1.3-0.5c-1.1,0-2.6,0.8-3.3,1.5v4.4c0,1.1,0.1,1.7,1.3,1.8H71v0.5h-5v-0.5h0.2c1.3-0.1,1.5-0.6,1.5-1.8v-7.5
	c0-1.3,0.1-2.3-1.4-2.4h-0.2v-0.5c1-0.1,1.8-0.2,2.7-0.6h0.7v5.8c1.1-1,2.4-1.6,3.9-1.6c0.6,0,1.5,0.2,2.1,0.6
	c0.7,0.5,0.7,1.4,0.7,2.3V3270.1z"/>
<g>
	<defs>
		<rect id="SVGID_25_" x="-634" y="-5359" width="1370" height="10763"/>
	</defs>
	<clipPath id="SVGID_26_">
		<use xlink:href="#SVGID_25_"  style="overflow:visible;"/>
	</clipPath>
	<rect x="80" y="3254" class="st15" width="22.4" height="23.4"/>
</g>
<path class="st3" d="M97,3264.1h-0.6l-0.1-0.1c-0.4-0.9-1-1.9-1.6-2.7c-0.9-0.9-1.9-1.3-3.1-1.3c-1.4,0-2.6,0.6-3.3,1.8
	c-0.7,1.2-1,2.7-1,4.1c0,1.3,0.2,2.8,1.1,3.9s2.1,1.7,3.6,1.7c1.9,0,3.6-1.2,4.6-2.8l0.9,0.4c-1.3,2.1-3.2,3.3-5.8,3.3
	c-3.9,0-6.6-2.8-6.6-6.7c0-3.5,2.6-6.8,6.3-6.8c1.4,0,2.7,0.4,3.7,1.4l0.4-0.9h0.6L97,3264.1z"/>
<g>
	<defs>
		<rect id="SVGID_27_" x="-634" y="-5359" width="1370" height="10763"/>
	</defs>
	<clipPath id="SVGID_28_">
		<use xlink:href="#SVGID_27_"  style="overflow:visible;"/>
	</clipPath>
	<rect x="94" y="3258" class="st16" width="18.6" height="19.5"/>
</g>
<path class="st3" d="M105.5,3266.1c0-1.4-0.9-2.4-2.1-2.4c-1.3,0-2.2,1.1-2.4,2.4H105.5z M100.9,3266.9v1c0,0.9,0.3,1.9,0.9,2.6
	c0.5,0.8,1.5,1.2,2.4,1.2c1.3,0,2.1-0.6,2.8-1.7l0.6,0.3c-0.6,1.5-2.2,2.3-3.9,2.3c-1.3,0-2.4-0.3-3.3-1.2c-1-1-1.4-2.3-1.4-3.5
	c0-2.7,1.7-4.7,4.5-4.7c2.2,0,4.1,1.5,4.1,3.9H100.9z"/>
<g>
	<defs>
		<rect id="SVGID_29_" x="-634" y="-5359" width="1370" height="10763"/>
	</defs>
	<clipPath id="SVGID_30_">
		<use xlink:href="#SVGID_29_"  style="overflow:visible;"/>
	</clipPath>
	<rect x="103" y="3258" class="st17" width="21.8" height="19.2"/>
</g>
<path class="st3" d="M118.3,3269.9c0,1,0.2,1.7,1.3,1.8h0.2v0.5h-5v-0.5h0.2c1.2-0.1,1.4-0.8,1.4-1.8v-3.9c0-0.5-0.1-1-0.3-1.4
	c-0.3-0.4-0.9-0.6-1.3-0.6c-1.3,0-2.5,0.8-3.3,1.5v4.4c0,1.1,0.2,1.7,1.4,1.8h0.2v0.5h-5v-0.5h0.2c1.3-0.1,1.5-0.6,1.5-1.8v-3.9
	c0-1.1-0.2-1.7-1.4-1.8H108v-0.5l2.9-0.4h0.6v1.5c1.1-1.1,2.5-1.7,4-1.7c0.7,0,1.5,0.2,2,0.8c0.6,0.5,0.7,1.2,0.7,1.9V3269.9z"/>
<g>
	<defs>
		<rect id="SVGID_31_" x="-634" y="-5359" width="1370" height="10763"/>
	</defs>
	<clipPath id="SVGID_32_">
		<use xlink:href="#SVGID_31_"  style="overflow:visible;"/>
	</clipPath>
	<rect x="115" y="3255" class="st18" width="16.9" height="22.7"/>
</g>
<path class="st3" d="M126.1,3264.1h-2.7v5.3c0,1.1,0,2.6,1.4,2.6c0.6,0,1.2-0.4,1.6-0.9l0.4,0.4c-0.6,0.9-1.6,1.2-2.7,1.2
	c-0.6,0-1.3-0.1-1.8-0.4c-0.7-0.5-0.9-1.2-0.9-2v-6.1H120v-0.6c2.1-0.1,2.6-1.6,2.6-3.4h0.9v3.4h2.7V3264.1z"/>
<g>
	<defs>
		<rect id="SVGID_33_" x="-634" y="-5359" width="1370" height="10763"/>
	</defs>
	<clipPath id="SVGID_34_">
		<use xlink:href="#SVGID_33_"  style="overflow:visible;"/>
	</clipPath>
	<rect x="123" y="3258" class="st19" width="18.6" height="19.5"/>
</g>
<path class="st3" d="M134.4,3266.1c0-1.4-0.9-2.4-2.1-2.4c-1.3,0-2.2,1.1-2.4,2.4H134.4z M129.9,3266.9v1c0,0.9,0.3,1.9,0.9,2.6
	c0.5,0.8,1.5,1.2,2.4,1.2c1.3,0,2.1-0.6,2.8-1.7l0.6,0.3c-0.6,1.5-2.2,2.3-3.9,2.3c-1.3,0-2.4-0.3-3.3-1.2c-1-1-1.4-2.3-1.4-3.5
	c0-2.7,1.7-4.7,4.5-4.7c2.2,0,4.1,1.5,4.1,3.9H129.9z"/>
<g>
	<defs>
		<rect id="SVGID_35_" x="-634" y="-5359" width="1370" height="10763"/>
	</defs>
	<clipPath id="SVGID_36_">
		<use xlink:href="#SVGID_35_"  style="overflow:visible;"/>
	</clipPath>
	<rect x="132" y="3258" class="st20" width="18" height="19.2"/>
</g>
<path class="st3" d="M140.5,3269.9c0,1.1,0.2,1.7,1.4,1.8h0.3v0.5h-5.1v-0.5h0.2c1.3-0.1,1.4-0.6,1.4-1.8v-3.9
	c0-1.1-0.2-1.7-1.4-1.8H137v-0.5l2.9-0.4h0.6v1.4c0.9-0.9,1.9-1.6,3.1-1.6c0.6,0,1.4,0.2,1.4,1c0,0.6-0.4,1-1.1,1
	c-0.9,0-1.1-0.6-1.7-0.6s-1.4,0.5-1.8,1.1v4.5H140.5z"/>
<g>
	<path class="st21" d="M26.8,78H27c0.5-0.1,1-0.1,1.3-0.6c0.2-0.4,0.2-1.3,0.2-1.7v-6.9c0-1.3,0.1-2.3-1.4-2.4h-0.2v-0.5h5.6
		c1.8,0,4,0.1,5.5,1.3c1.6,1.2,2.5,3.2,2.5,5.3c0,1.9-0.9,3.9-2.4,5.1c-1.6,1.2-3.7,1.3-5.6,1.3h-5.7V78z M30.4,75.9
		c0,0.4,0,1.2,0.4,1.5c0.3,0.3,1.5,0.3,1.9,0.3c3.6,0,5.4-2.2,5.4-5.7c0-1.5-0.3-3.1-1.4-4.2c-1-1-2.6-1.4-4-1.4
		c-0.5,0-1.7,0.1-2.1,0.5c-0.2,0.3-0.2,1.1-0.2,1.5v7.5H30.4z"/>
	<path class="st21" d="M44.1,73.1v1c0,0.9,0.3,1.9,0.9,2.6c0.5,0.8,1.5,1.2,2.4,1.2c1.3,0,2.2-0.6,2.8-1.7l0.6,0.3
		c-0.6,1.5-2.3,2.3-3.9,2.3c-1.3,0-2.4-0.3-3.4-1.2c-1-1-1.4-2.3-1.4-3.6c0-2.7,1.7-4.8,4.5-4.8c2.3,0,4.1,1.5,4.1,3.9H44.1z
		 M48.7,72.3c0-1.4-0.9-2.4-2.2-2.4s-2.3,1.1-2.4,2.4H48.7z"/>
	<path class="st21" d="M62,76.2c0,1,0.2,1.7,1.3,1.8h0.2v0.5h-5.1v-0.5h0.2c1.2-0.1,1.4-0.8,1.4-1.8v-3.9c0-0.5-0.1-1-0.3-1.4
		c-0.3-0.4-0.9-0.6-1.3-0.6c-1.3,0-2.5,0.8-3.4,1.5v4.4c0,1.1,0.2,1.7,1.4,1.8h0.2v0.5h-5.1v-0.5h0.2c1.3-0.1,1.5-0.6,1.5-1.8v-3.9
		c0-1.1-0.2-1.7-1.4-1.8h-0.3V70l2.9-0.4h0.6V71c1.2-1.1,2.5-1.7,4-1.7c0.8,0,1.5,0.2,2.1,0.8c0.6,0.5,0.8,1.2,0.8,1.9L62,76.2
		L62,76.2z"/>
	<path class="st21" d="M70.2,70h-2.7v5.3c0,1.1,0,2.6,1.4,2.6c0.6,0,1.2-0.4,1.6-0.9l0.4,0.4c-0.6,0.9-1.6,1.2-2.7,1.2
		c-0.6,0-1.3-0.1-1.8-0.4c-0.8-0.5-0.9-1.2-0.9-2.1V70h-1.6v-0.6c2.2-0.1,2.6-1.6,2.6-3.5h0.9v3.5h2.7V70H70.2z"/>
	<path class="st21" d="M82.1,78.1c-0.4,0.4-1.3,0.6-1.9,0.6c-1,0-1.7-0.4-2.1-1.4c-1.1,0.9-2.2,1.4-3.6,1.4c-1.3,0-2.9-0.8-2.9-2.3
		c0-1.3,0.8-1.9,1.8-2.4c1-0.4,2.1-0.6,3.1-0.8l1.4-0.1v-1.4c0-0.5-0.1-1.1-0.6-1.4c-0.5-0.3-1.2-0.4-1.7-0.4s-1.8,0.3-1.8,1v0.2
		c0,0.6-0.2,1.2-1,1.2c-0.4,0-0.9-0.3-0.9-0.9c0-0.8,0.9-1.5,1.5-1.7c0.8-0.3,1.8-0.5,2.7-0.5c0.8,0,1.8,0.2,2.5,0.6
		c1,0.5,1.1,1.3,1.1,2.4v3.7c0,0.8,0.1,1.9,1.1,1.9c0.3,0,0.5-0.1,0.8-0.3L82.1,78.1z M78.1,73.9c-1.4,0.1-4.5,0.5-4.5,2.4
		c0,1,0.9,1.5,1.7,1.5c1,0,2.1-0.6,2.8-1.3L78.1,73.9L78.1,73.9z"/>
	<path class="st21" d="M85.8,76.1c0,1,0.1,1.7,1.3,1.8h0.2v0.5h-5V78h0.2c1.2-0.1,1.4-0.6,1.4-1.8v-7.6c0-1.3,0.1-2.3-1.4-2.4h-0.2
		v-0.5c1-0.1,1.8-0.2,2.7-0.6h0.8L85.8,76.1L85.8,76.1z"/>
	<path class="st21" d="M95.9,68.7c0-1.3,0.1-2.3-1.4-2.4h-0.3v-0.5h5.3v0.5h-0.2c-0.5,0-1.1,0.1-1.3,0.6c-0.2,0.4-0.2,1.3-0.2,1.7
		v2.6h6.8v-2.6c0-1.3,0.1-2.3-1.4-2.4h-0.3v-0.5h5.3v0.5h-0.2c-0.5,0.1-1.1,0.1-1.3,0.6c-0.2,0.4-0.2,1.3-0.2,1.7v7
		c0,1.3-0.1,2.3,1.4,2.4h0.3v0.5h-5.3v-0.5h0.2c0.5,0,1.1-0.1,1.3-0.6c0.2-0.4,0.2-1.3,0.2-1.7v-3.6h-6.8v3.6c0,1.3-0.1,2.3,1.4,2.4
		h0.3v0.5h-5.3v-0.5h0.2c0.5-0.1,1.1-0.1,1.3-0.6c0.2-0.4,0.2-1.3,0.2-1.7V68.7z"/>
	<path class="st21" d="M111.5,73.1v1c0,0.9,0.3,1.9,0.9,2.6c0.5,0.8,1.5,1.2,2.4,1.2c1.3,0,2.2-0.6,2.8-1.7l0.6,0.3
		c-0.6,1.5-2.3,2.3-3.9,2.3c-1.3,0-2.4-0.3-3.4-1.2c-1-1-1.4-2.3-1.4-3.6c0-2.7,1.7-4.8,4.5-4.8c2.3,0,4.1,1.5,4.1,3.9H111.5z
		 M116,72.3c0-1.4-0.9-2.4-2.2-2.4s-2.3,1.1-2.4,2.4H116z"/>
	<path class="st21" d="M129.8,78.1c-0.4,0.4-1.3,0.6-1.9,0.6c-1,0-1.7-0.4-2.1-1.4c-1.1,0.9-2.2,1.4-3.6,1.4c-1.3,0-2.9-0.8-2.9-2.3
		c0-1.3,0.8-1.9,1.8-2.4c1-0.4,2.1-0.6,3.1-0.8l1.4-0.1v-1.4c0-0.5-0.1-1.1-0.6-1.4c-0.5-0.3-1.2-0.4-1.7-0.4s-1.8,0.3-1.8,1v0.2
		c0,0.6-0.2,1.2-1,1.2c-0.4,0-0.9-0.3-0.9-0.9c0-0.8,0.9-1.5,1.5-1.7c0.8-0.3,1.8-0.5,2.7-0.5c0.8,0,1.8,0.2,2.5,0.6
		c1,0.5,1.1,1.3,1.1,2.4v3.7c0,0.8,0.1,1.9,1.1,1.9c0.3,0,0.5-0.1,0.8-0.3L129.8,78.1z M125.8,73.9c-1.4,0.1-4.5,0.5-4.5,2.4
		c0,1,0.9,1.5,1.7,1.5c1,0,2.1-0.6,2.8-1.3L125.8,73.9L125.8,73.9z"/>
	<path class="st21" d="M133.5,76.1c0,1,0.1,1.7,1.3,1.8h0.2v0.5h-5V78h0.2c1.2-0.1,1.4-0.6,1.4-1.8v-7.6c0-1.3,0.1-2.3-1.4-2.4H130
		v-0.5c1-0.1,1.8-0.2,2.7-0.6h0.8L133.5,76.1L133.5,76.1z"/>
	<path class="st21" d="M141.8,70h-2.7v5.3c0,1.1,0,2.6,1.4,2.6c0.6,0,1.2-0.4,1.6-0.9l0.4,0.4c-0.6,0.9-1.6,1.2-2.7,1.2
		c-0.6,0-1.3-0.1-1.8-0.4c-0.8-0.5-0.9-1.2-0.9-2.1V70h-1.6v-0.6c2.2-0.1,2.6-1.6,2.6-3.5h0.9v3.5h2.7V70H141.8z"/>
	<path class="st21" d="M153.1,76.1c0,1.1,0.1,1.7,1.3,1.8h0.2v0.5h-5.1V78h0.2c1.3-0.1,1.5-0.6,1.5-1.8v-3.9c0-0.5,0-1.1-0.3-1.5
		c-0.3-0.3-0.9-0.5-1.3-0.5c-1.1,0-2.6,0.8-3.4,1.5v4.4c0,1.1,0.1,1.7,1.3,1.8h0.2v0.5h-5.1V78h0.2c1.3-0.1,1.5-0.6,1.5-1.8v-7.6
		c0-1.3,0.1-2.3-1.4-2.4h-0.2v-0.5c1-0.1,1.8-0.2,2.7-0.6h0.8v5.8c1.1-1,2.4-1.6,3.9-1.6c0.6,0,1.5,0.2,2.2,0.6
		c0.8,0.5,0.8,1.4,0.8,2.3L153.1,76.1L153.1,76.1z"/>
	<path class="st21" d="M173.9,70.4h-0.6l-0.1-0.1c-0.4-0.9-1-1.9-1.6-2.7c-0.9-0.9-1.9-1.3-3.1-1.3c-1.4,0-2.6,0.6-3.4,1.8
		c-0.8,1.2-1,2.7-1,4.1c0,1.3,0.2,2.8,1.1,3.9c0.9,1.1,2.2,1.7,3.7,1.7c1.9,0,3.7-1.2,4.7-2.8l0.9,0.4c-1.3,2.2-3.2,3.4-5.8,3.4
		c-3.9,0-6.7-2.8-6.7-6.7c0-3.6,2.6-6.8,6.4-6.8c1.4,0,2.7,0.4,3.8,1.4l0.4-0.9h0.6L173.9,70.4z"/>
	<path class="st21" d="M177.7,73.1v1c0,0.9,0.3,1.9,0.9,2.6c0.5,0.8,1.5,1.2,2.4,1.2c1.3,0,2.2-0.6,2.8-1.7l0.6,0.3
		c-0.6,1.5-2.3,2.3-3.9,2.3c-1.3,0-2.4-0.3-3.4-1.2c-1-1-1.4-2.3-1.4-3.6c0-2.7,1.7-4.8,4.5-4.8c2.3,0,4.1,1.5,4.1,3.9H177.7z
		 M182.3,72.3c0-1.4-0.9-2.4-2.2-2.4s-2.3,1.1-2.4,2.4H182.3z"/>
	<path class="st21" d="M195.5,76.2c0,1,0.2,1.7,1.3,1.8h0.2v0.5H192v-0.5h0.2c1.2-0.1,1.4-0.8,1.4-1.8v-3.9c0-0.5-0.1-1-0.3-1.4
		c-0.3-0.4-0.9-0.6-1.3-0.6c-1.3,0-2.5,0.8-3.4,1.5v4.4c0,1.1,0.2,1.7,1.4,1.8h0.2v0.5h-5.1v-0.5h0.2c1.3-0.1,1.5-0.6,1.5-1.8v-3.9
		c0-1.1-0.2-1.7-1.4-1.8h-0.3V70l2.9-0.4h0.6V71c1.1-1.1,2.5-1.7,4-1.7c0.8,0,1.5,0.2,2.1,0.8c0.6,0.5,0.8,1.2,0.8,1.9L195.5,76.2
		L195.5,76.2z"/>
	<path class="st21" d="M203.9,70h-2.7v5.3c0,1.1,0,2.6,1.4,2.6c0.6,0,1.2-0.4,1.6-0.9l0.4,0.4c-0.6,0.9-1.6,1.2-2.7,1.2
		c-0.6,0-1.3-0.1-1.8-0.4c-0.8-0.5-0.9-1.2-0.9-2.1V70h-1.5v-0.6c2.2-0.1,2.6-1.6,2.6-3.5h0.9v3.5h2.7V70z"/>
	<path class="st21" d="M207.3,73.1v1c0,0.9,0.3,1.9,0.9,2.6c0.5,0.8,1.5,1.2,2.4,1.2c1.3,0,2.2-0.6,2.8-1.7l0.6,0.3
		c-0.6,1.5-2.3,2.3-3.9,2.3c-1.3,0-2.4-0.3-3.4-1.2c-1-1-1.4-2.3-1.4-3.6c0-2.7,1.7-4.8,4.5-4.8c2.3,0,4.1,1.5,4.1,3.9H207.3z
		 M211.9,72.3c0-1.4-0.9-2.4-2.2-2.4s-2.3,1.1-2.4,2.4H211.9z"/>
	<path class="st21" d="M218.3,76.1c0,1.1,0.2,1.7,1.4,1.8h0.3v0.5h-5.2V78h0.2c1.3-0.1,1.4-0.6,1.4-1.8v-3.9c0-1.1-0.2-1.7-1.4-1.8
		h-0.3v-0.5l2.9-0.4h0.6v1.4c0.9-0.9,1.9-1.6,3.1-1.6c0.6,0,1.4,0.2,1.4,1c0,0.6-0.4,1-1.1,1c-0.9,0-1.1-0.6-1.7-0.6
		s-1.4,0.5-1.8,1.1v4.5H218.3z"/>
</g>
</svg>
