<?xml version="1.0" encoding="UTF-8"?>
<svg width="230px" height="62px" viewBox="0 0 230 62" version="1.1" xmlns="http://www.w3.org/2000/svg" xmlns:xlink="http://www.w3.org/1999/xlink">
    <!-- Generator: Sketch 40.3 (33839) - http://www.bohemiancoding.com/sketch -->
    <title>ikuta-logo-process copy</title>
    <desc>Created with Sketch.</desc>
    <defs></defs>
    <g id="Page-1" stroke="none" stroke-width="1" fill="none" fill-rule="evenodd">
        <g id="Ikuta-Website" transform="translate(-32.000000, -16.000000)">
            <g id="HEADER" transform="translate(-4.000000, -1.000000)">
                <g id="ikuta-logo-process-copy" transform="translate(36.000000, 17.000000)">
                    <g id="Layer_1">
                        <g id="Group" transform="translate(19.094881, 0.000000)">
                            <path d="M179.332761,61.3641026 C196.279468,61.3641026 210.043695,47.6128205 210.043695,30.6820513 C210.043695,13.7512821 196.279468,0 179.332761,0 C162.386054,0 148.621827,13.7512821 148.621827,30.6820513 C148.621827,47.6923077 162.386054,61.3641026 179.332761,61.3641026" id="Shape" fill="#63B1CB"></path>
                            <path d="M179.332761,58.8205128 C194.847352,58.8205128 207.418149,46.2615385 207.418149,30.7615385 C207.418149,15.2615385 194.847352,2.7025641 179.332761,2.7025641 C163.81817,2.7025641 151.247373,15.2615385 151.247373,30.7615385 C151.247373,46.2615385 163.81817,58.8205128 179.332761,58.8205128" id="Shape" fill="#005B70"></path>
                            <ellipse id="Oval" stroke="#B6AF12" stroke-width="2.691" cx="179.332761" cy="30.7615385" rx="28.0853881" ry="28.0589744"></ellipse>
                            <path d="M193.733484,34.974359 C198.109395,35.3717949 197.632022,34.4179487 195.802096,32.9076923 C194.051732,31.3179487 192.38093,32.7487179 190.869252,33.1461538 C190.312318,33.3051282 186.41378,33.7025641 181.719621,34.1 L181.719621,34.0205128 C181.799183,32.5102564 180.605753,31.7948718 177.661959,31.4769231 C178.378017,31.3179487 179.014513,31.1589744 179.571447,31 C183.390423,29.8076923 184.742978,28.4564103 185.061226,27.8205128 C185.22035,27.5820513 185.061226,27.1846154 184.663416,26.6282051 C186.970714,25.9923077 190.630566,24.5615385 192.062682,20.9051282 C192.38093,20.0307692 190.710128,19.2358974 188.482392,18.5205128 C190.073632,18.4410256 191.903558,18.3615385 193.415236,18.3615385 C195.881658,18.3615385 195.1656,17.6461538 194.290418,16.9307692 C193.415236,16.2153846 192.619616,16.1358974 191.903558,16.6128205 C191.346624,17.0102564 188.243706,17.4076923 186.334218,17.5666667 C186.970714,16.6923077 187.2094,16.0564103 187.129838,15.5794872 C186.891152,14.5461538 184.902102,12.7179487 180.605753,11.525641 C180.605753,11.525641 181.162687,12.4 181.083125,13.274359 C180.924001,14.7051282 180.367067,18.1230769 176.070719,23.6076923 C175.991157,23.3692308 175.832033,23.1307692 175.593347,22.8923077 C174.638603,21.9384615 173.842983,20.9051282 173.206487,20.3487179 C173.922545,20.2692308 174.638603,20.1897436 175.513785,20.1102564 C178.139331,19.8717949 178.537141,19.9512821 178.139331,19.3153846 C177.741521,18.7589744 177.025463,18.0435897 176.468529,18.6 C176.070719,18.9974359 174.161231,19.1564103 172.649553,19.2358974 C173.683859,17.8051282 174.240793,16.6923077 174.240793,16.374359 C174.399917,15.4205128 171.615247,13.3538462 167.716708,12.5589744 C167.716708,12.5589744 168.512328,13.3538462 168.59189,13.9102564 C168.671452,14.4666667 168.751014,19.8717949 162.465616,26.7076923 C162.465616,26.7076923 167.318898,25.3564103 169.944444,22.4948718 C170.421816,21.9384615 170.899189,21.3820513 171.376561,20.9051282 C171.376561,21.5410256 171.535685,22.3358974 171.774371,23.2897436 C172.251743,25.1974359 174.081669,28.6153846 175.115975,27.4230769 C175.832033,26.6282051 176.388967,25.4358974 176.229843,24.3230769 C177.661959,23.925641 180.526191,23.0512821 182.753927,21.0641026 C183.708671,20.1897436 184.504292,19.474359 185.140788,18.8384615 C185.697722,18.7589744 186.334218,18.6794872 186.970714,18.6794872 C187.050276,18.9974359 187.129838,19.3948718 187.050276,19.7128205 C186.970714,20.1897436 185.777284,23.0512821 183.629109,25.8333333 C182.753927,25.1974359 181.480935,24.4820513 179.491885,23.7666667 C179.491885,23.7666667 179.730571,24.2435897 179.491885,24.8794872 C179.014513,26.0717949 175.991157,29.1717949 167.478022,33.225641 C167.478022,33.225641 171.774371,32.7487179 175.593347,32.0333333 C175.752471,32.2717949 175.911595,32.5102564 175.991157,32.8282051 C175.991157,33.0666667 176.070719,33.7820513 175.832033,34.8153846 C170.103568,35.2923077 164.932038,35.6897436 164.534228,35.6102564 C163.738608,35.5307692 162.465616,34.8153846 162.465616,34.8153846 C162.704302,35.1333333 163.102112,38.7102564 165.727658,37.7564103 C166.841526,37.3589744 170.819627,36.7230769 175.434223,36.2461538 C174.956851,37.9153846 173.922545,40.1410256 172.092619,42.9230769 C169.38751,46.9769231 165.488972,48.5666667 165.488972,48.5666667 C165.488972,48.5666667 170.740065,48.3282051 174.240793,45.4666667 C177.105025,43.1615385 179.014513,40.6974359 180.207943,38.4717949 C180.764877,39.7435897 181.321811,40.8564103 181.719621,41.5717949 C183.072175,44.1948718 184.981664,47.374359 187.925458,48.0897436 C188.959764,48.3282051 190.39188,48.2487179 191.664872,47.9307692 C194.290418,47.2153846 195.722534,46.3410256 195.722534,46.3410256 C195.722534,46.3410256 193.813046,47.0564103 192.460492,47.374359 C194.051732,46.7384615 195.56341,45.8641026 195.56341,45.8641026 C195.56341,45.8641026 190.869252,44.274359 187.925458,42.6051282 C186.01597,41.4923077 183.072175,37.9948718 181.321811,35.7692308 C186.493342,34.974359 191.267062,34.7358974 193.733484,34.974359" id="Shape" fill="#E3F3F0"></path>
                            <path d="M120.456877,28.4564103 C120.456877,27.9 120.456877,27.7410256 120.377315,27.9 C120.536439,27.5820513 120.695563,27.4230769 120.775125,27.1846154 C121.013811,26.3102564 121.172935,25.674359 121.252497,25.1974359 C121.411621,24.8 121.570745,24.5615385 121.729869,24.3230769 C121.809431,23.7666667 121.888993,23.2897436 121.888993,22.9717949 C122.127679,22.4153846 122.286803,22.0179487 122.445927,21.7 C122.605051,21.0641026 122.684613,20.5871795 122.764175,20.2692308 C122.923299,20.0307692 123.082423,19.7923077 123.161985,19.7128205 C124.037167,17.9641026 124.912349,16.2948718 125.628407,14.625641 C125.946655,15.4205128 126.185341,16.0564103 126.264903,16.4538462 C126.662713,17.4076923 126.980961,18.1230769 127.219647,18.6 C127.697019,20.1897436 128.094829,21.4615385 128.333515,22.2564103 C129.845194,26.3102564 130.561252,28.3769231 130.561252,28.3769231 L120.456877,28.3769231 L120.456877,28.4564103 Z M146.553215,43.7974359 C145.916719,43.5589744 145.518909,43.4 145.200661,43.3205128 C144.166355,42.9230769 143.529859,42.6051282 143.450297,42.3666667 C142.972924,41.4128205 142.575114,40.7769231 142.41599,40.4589744 C141.779494,38.9487179 141.381684,37.7564103 141.063436,36.8820513 C140.983874,36.5641026 140.983874,36.4051282 140.983874,36.1666667 C140.586064,35.4512821 140.267816,34.974359 140.02913,34.6564103 C139.392634,33.1461538 138.915262,32.1128205 138.676576,31.5564103 C138.597014,31.2384615 138.517452,30.9205128 138.517452,30.7615385 C138.199204,29.7282051 137.960518,28.8538462 137.960518,28.2974359 C137.085336,25.7538462 136.369278,23.7666667 135.971468,22.4153846 C135.334972,20.9846154 134.8576,19.8717949 134.539352,19.1564103 C134.300666,18.2025641 134.221104,17.725641 134.300666,17.5666667 C133.743732,16.7717949 133.345922,15.8179487 133.027674,14.8641026 C132.86855,14.0692308 132.709426,13.5128205 132.709426,13.1153846 C131.356872,9.77692308 130.402128,7.31282051 129.845194,5.72307692 C128.253953,5.56410256 126.980961,5.56410256 126.185341,5.48461538 C125.310159,5.40512821 124.832787,5.48461538 124.753225,5.64358974 C124.514539,6.12051282 124.355415,6.51794872 124.275853,6.75641026 C123.718919,8.02820513 123.400671,8.9025641 123.161985,9.53846154 C122.923299,10.2538462 122.764175,10.8102564 122.684613,11.1282051 C121.968555,12.7179487 121.491183,13.9102564 121.332059,14.7051282 C120.775125,16.374359 120.297753,17.6461538 119.979505,18.5205128 C119.899943,18.9179487 119.899943,19.1564103 119.899943,19.3948718 C119.979505,19.0769231 120.059067,18.9179487 120.138629,18.8384615 C120.138629,18.8384615 120.138629,18.8384615 120.138629,18.9179487 C120.138629,19.2358974 120.059067,19.8717949 119.820381,20.6666667 C119.581695,21.5410256 119.422571,22.0179487 119.263447,22.0179487 C119.183885,22.0179487 119.104323,21.8589744 119.024761,21.5410256 C118.865637,21.7 118.786075,21.8589744 118.706513,21.9384615 C117.831331,24.7205128 117.115273,26.8666667 116.637901,28.2179487 C116.001404,30.125641 115.44447,31.5564103 115.04666,32.5102564 C114.410164,34.4974359 113.932792,36.0076923 113.694106,36.9615385 C112.978048,38.5512821 112.421114,39.7435897 112.102866,40.4589744 C111.784618,41.174359 111.307246,41.7307692 110.829874,42.0487179 C110.27294,42.525641 109.954692,42.9230769 109.716006,43.2410256 C109.07951,43.7179487 108.761262,44.0358974 108.761262,44.274359 C108.761262,44.3538462 108.761262,44.4333333 108.840824,44.5128205 C110.27294,44.6717949 111.06856,44.7512821 111.06856,44.7512821 C112.023304,44.5923077 112.818924,44.5128205 113.296296,44.3538462 C115.524032,44.3538462 117.274397,44.4333333 118.467827,44.5128205 C119.263447,44.3538462 119.820381,44.274359 120.218191,44.1153846 C120.138629,43.9564103 119.979505,43.7179487 119.820381,43.4 C119.581695,43.3205128 119.422571,43.3205128 119.343009,43.2410256 C118.945199,43.0820513 118.467827,42.7641026 117.910893,42.3666667 C117.353959,41.8897436 117.035711,41.5717949 116.956149,41.4128205 C116.797025,41.0948718 116.797025,40.3794872 116.956149,39.425641 C117.194835,38.074359 117.274397,37.4384615 117.274397,37.5974359 C117.274397,37.3589744 117.513083,36.4846154 117.990455,35.0538462 C118.388265,34.1794872 118.626951,33.5435897 118.865637,33.0666667 C119.263447,32.1923077 119.740819,31.7948718 120.218191,31.7948718 L126.742275,31.7153846 C129.765632,31.5564103 131.436434,31.4769231 131.834244,31.4769231 C132.07293,31.4769231 132.232054,31.5564103 132.232054,31.6358974 C132.232054,32.0333333 132.391178,32.6692308 132.709426,33.5435897 C133.107236,34.5769231 133.345922,35.1333333 133.425484,35.2923077 C133.982418,37.6769231 134.380228,39.425641 134.618914,40.6179487 C134.698476,40.8564103 134.698476,41.174359 134.539352,41.6512821 C134.380228,42.0487179 134.141542,42.3666667 133.823294,42.6051282 C133.107236,42.8435897 132.47074,43.0025641 132.07293,43.0025641 C131.993368,43.4 131.913806,43.9564103 131.993368,44.5923077 C132.311616,44.9102564 132.948112,45.0692308 133.823294,44.8307692 C135.494096,44.5128205 137.801394,44.3538462 140.82475,44.3538462 L143.291172,44.3538462 C143.21161,44.3538462 143.768545,44.4333333 144.961975,44.5128205 C145.678033,44.5923077 146.234967,44.5128205 146.632777,44.3538462 L146.632777,43.7974359 L146.553215,43.7974359 Z M110.193378,5.8025641 C109.716006,5.88205128 109.238634,5.96153846 108.761262,5.96153846 C107.48827,6.04102564 106.215278,6.12051282 104.862724,6.35897436 C103.589732,6.5974359 103.032798,6.67692308 103.032798,6.67692308 L97.9408292,6.67692308 C98.0203912,6.67692308 96.8269611,6.5974359 94.2014149,6.35897436 C91.5758687,6.12051282 89.6663806,6.04102564 88.3933885,6.04102564 C84.0174782,6.04102564 82.10799,6.04102564 82.7444861,6.12051282 L81.789742,7.39230769 C81.630618,8.10769231 81.471494,9.53846154 81.1532459,11.6846154 C80.9145599,13.4333333 80.6758739,14.7846154 80.4371879,15.5794872 C80.3576259,15.7384615 80.4371879,15.9769231 80.4371879,16.374359 C80.5167499,16.7717949 80.5963119,17.0897436 80.5963119,17.1692308 C81.31237,17.1692308 81.789742,17.0102564 81.948866,16.6128205 C82.346676,15.8974359 82.7444861,14.625641 83.2218581,12.7974359 C83.3014201,12.4 83.7787921,11.8435897 84.6539742,11.2076923 C85.5291563,10.5717949 86.2452143,10.2538462 86.8817104,10.2538462 L92.6101748,10.2538462 C92.9284228,13.1153846 93.0875468,14.7051282 93.0875468,14.9435897 C93.4853568,16.2153846 93.8831669,17.1692308 94.1218529,17.8846154 C94.0422909,18.0435897 93.9627289,18.1230769 93.8831669,18.1230769 L93.0875468,18.1230769 L93.0875468,29.1717949 C92.9284228,32.2717949 92.8488608,35.2128205 92.7692988,38.074359 C92.6101748,39.6641026 92.4510508,40.6179487 92.3714888,40.8564103 C91.8941167,41.6512821 91.0984967,42.3666667 89.9846286,42.9230769 C88.7116365,43.4 87.8364544,43.6384615 87.1999584,43.7974359 L87.1999584,44.274359 C87.1999584,44.5128205 87.2795204,44.6717949 87.4386444,44.6717949 L104.942286,44.6717949 C105.419658,44.1153846 105.658344,43.6384615 105.658344,43.3205128 C104.7036,43.0820513 103.748856,42.9230769 102.794112,42.6846154 C101.600681,42.3666667 100.964185,41.7307692 100.725499,40.6974359 C100.327689,38.5512821 99.9298793,36.9615385 99.7707553,35.9282051 C99.6911933,33.9410256 99.7707553,32.5102564 99.8503173,31.4769231 C99.6116313,28.6153846 99.4525073,27.1846154 99.4525073,27.2641026 C99.8503173,22.8923077 99.9298793,19.474359 99.6911933,17.0102564 C99.4525073,14.5461538 99.4525073,12.6384615 99.7707553,11.2871795 C99.9298793,10.8102564 100.248127,10.4128205 100.805061,10.2538462 C102.396301,9.93589744 103.589732,9.77692308 104.464914,9.6974359 C106.135716,9.3 107.249584,9.3 107.647394,9.61794872 C108.6817,10.3333333 109.318196,11.2871795 109.47732,12.6384615 C109.795568,14.9435897 109.954692,16.1358974 109.954692,16.2948718 C110.034254,16.2948718 110.27294,16.2948718 110.511626,16.2153846 C110.750312,16.1358974 110.988998,16.1358974 111.06856,16.1358974 L111.06856,8.98205128 C111.227684,7.86923077 111.386808,6.99487179 111.46637,6.2 C111.227684,5.88205128 110.829874,5.72307692 110.193378,5.8025641 L110.193378,5.8025641 Z M76.6182116,6.2 C76.5386496,6.2 76.3795256,6.2 76.1408396,6.12051282 L75.6634675,6.12051282 C73.7539794,6.27948718 72.4014253,6.27948718 71.6058052,6.2 C71.2079952,6.2 70.8101852,6.27948718 70.5714992,6.27948718 C69.1393831,5.96153846 67.707267,5.96153846 66.1955888,6.12051282 C65.4795308,6.2 65.1612828,6.27948718 65.2408448,6.27948718 C65.2408448,6.5974359 65.3204068,6.83589744 65.3999688,7.07435897 C66.0364648,7.23333333 66.4342749,7.31282051 66.6729609,7.31282051 C68.025515,7.71025641 68.821135,8.18717949 68.9802591,8.82307692 C69.4576311,10.4128205 69.7758791,11.8435897 69.9350031,13.0358974 L69.8554411,27.5820513 C70.0145651,29.4102564 70.0145651,30.8410256 69.8554411,31.9538462 C69.6167551,33.5435897 69.4576311,34.974359 69.2985071,36.0871795 C68.9802591,37.4384615 68.184639,38.7102564 66.9912089,39.9025641 C65.7182168,41.2538462 64.5247867,41.8897436 63.4109186,41.8897436 L59.2736943,41.8897436 C58.5576363,41.8897436 57.9211402,41.8897436 57.3642062,41.8102564 C56.7277102,41.7307692 56.0116521,41.4128205 55.295594,40.8564103 C54.73866,40.4589744 54.181726,39.9820513 53.6247919,39.5846154 C52.9087339,38.7897436 52.4313618,38.1538462 52.1131138,37.7564103 C51.6357418,37.1205128 51.3174938,36.6435897 51.0788077,36.2461538 C51.1583697,35.9282051 51.1583697,35.6102564 51.0788077,35.4512821 C50.9196837,35.0538462 50.7605597,34.7358974 50.6809977,34.4974359 L50.6809977,33.3846154 C50.6014357,32.0333333 50.5218737,31.3179487 50.5218737,31.3179487 C50.3627497,31 50.2831877,30.7615385 50.1240637,30.6025641 C49.8853777,29.0923077 49.8058156,28.1384615 49.8853777,27.6615385 C50.0445017,26.2307692 50.1240637,25.5153846 50.1240637,25.3564103 C50.0445017,25.1974359 50.0445017,25.0384615 49.9649397,24.9589744 C50.1240637,23.4487179 50.1240637,22.4948718 50.1240637,22.2564103 C49.9649397,20.5076923 49.8058156,19.7128205 49.8058156,19.9512821 C49.9649397,18.6794872 50.0445017,17.8051282 49.9649397,17.4871795 C50.1240637,16.4538462 50.2036257,15.8974359 50.2036257,15.8974359 C50.0445017,15.1820513 49.8853777,14.7846154 49.8853777,14.8641026 C50.3627497,12.7179487 50.8401217,10.6512821 51.2379318,8.82307692 C51.3174938,8.58461538 51.4766178,8.34615385 51.8744278,8.02820513 C52.1131138,7.86923077 52.3517998,7.78974359 52.5109238,7.71025641 C52.7496099,7.55128205 52.9882959,7.39230769 53.0678579,7.31282051 C54.34085,7.07435897 54.977346,6.83589744 54.977346,6.51794872 C54.977346,6.35897436 54.897784,6.2 54.73866,5.96153846 C52.7496099,6.12051282 51.3174938,6.12051282 50.2831877,6.12051282 C50.0445017,6.12051282 49.6466916,6.2 49.0897576,6.27948718 C48.6123856,6.35897436 48.2941375,6.43846154 48.2145755,6.43846154 L45.1912193,6.43846154 C43.1226072,6.43846154 41.292681,6.27948718 39.7014409,6.04102564 C38.9853829,5.96153846 38.6671348,6.12051282 38.6671348,6.43846154 C38.6671348,6.51794872 38.6671348,6.67692308 38.7466968,6.75641026 C40.497061,7.15384615 41.451805,7.47179487 41.6904911,7.63076923 C42.4861111,8.10769231 42.8839211,8.9025641 43.0430452,10.0948718 C43.4408552,15.4205128 43.7591032,19.3948718 43.9182272,22.0974359 L44.1569132,31.874359 C44.3160372,37.0410256 46.2255254,40.6974359 49.9649397,42.8435897 C50.5218737,43.1615385 50.9196837,43.4 51.1583697,43.4 C51.7948658,43.4794872 52.2722378,43.5589744 52.6700479,43.5589744 C53.7839159,43.9564103 54.579536,44.3538462 55.13647,44.6717949 C56.0116521,44.8307692 56.7277102,44.9102564 57.2050822,44.9102564 C58.5576363,45.2282051 59.0350083,45.3076923 58.7963223,45.3076923 L61.1036205,45.3076923 C61.1036205,45.3076923 61.2627445,45.3871795 61.5014305,45.4666667 C61.7401165,45.5461538 61.8992405,45.625641 61.9788025,45.5461538 C62.6152986,45.2282051 63.0131086,45.0692308 63.3313566,44.8307692 C64.7634727,44.4333333 65.6386548,44.3538462 65.9569028,44.5923077 C66.9912089,43.8769231 68.105077,43.0820513 69.1393831,42.3666667 C70.4919372,41.4128205 71.3671192,40.6179487 71.8444913,39.9820513 C72.2423013,39.425641 72.7196733,38.4717949 73.3561694,37.2 C73.9131034,35.9282051 74.3109134,34.8948718 74.3904754,34.2589744 C74.7087235,32.1128205 74.8678475,30.5230769 74.9474095,29.4102564 C74.8678475,29.8076923 74.8678475,29.0128205 74.8678475,27.025641 C74.8678475,26.9461538 74.8678475,26.8666667 74.9474095,26.7871795 C75.0269715,26.7076923 75.0269715,26.6282051 75.0269715,26.5487179 C75.0269715,23.925641 74.9474095,21.7794872 74.7882855,20.1102564 C74.7087235,19.7128205 74.7087235,19.3948718 74.7882855,19.3153846 C74.7882855,19.2358974 74.8678475,19.0769231 74.9474095,18.8384615 C75.0269715,18.6 75.0269715,18.4410256 75.0269715,18.3615385 L75.0269715,15.9769231 C75.0269715,15.9769231 74.8678475,15.0230769 74.6291615,13.1153846 C74.5495995,12.7974359 74.6291615,12.0820513 74.7087235,10.9692308 C74.7882855,10.7307692 74.8678475,10.5717949 74.9474095,10.4923077 C75.1065335,9.3 75.5043435,8.42564103 76.1408396,7.78974359 C76.6977736,7.55128205 77.1751457,7.39230769 77.4933937,7.47179487 C78.2890137,7.23333333 78.8459478,7.15384615 79.2437578,7.07435897 C79.4824438,6.99487179 79.6415678,6.5974359 79.6415678,5.88205128 C77.8116417,6.04102564 76.8568976,6.2 76.6182116,6.2 L76.6182116,6.2 Z M39.7810029,43.3205128 C39.3036309,43.3205128 38.9058208,43.2410256 38.6671348,43.2410256 C37.6328288,42.8435897 36.9167707,42.525641 36.4393987,42.2871795 C36.2007127,42.1282051 36.1211506,41.9692308 36.0415886,41.8897436 C34.6890345,40.7769231 33.6547285,39.8230769 32.9386704,39.0282051 C31.1087443,37.5179487 30.1540002,36.7230769 29.9948762,36.5641026 C29.5970662,36.0871795 29.3583801,35.6897436 29.1196941,35.3717949 C28.6423221,35.0538462 28.2445121,34.8948718 27.926264,34.7358974 C27.448892,34.4179487 27.051082,34.0205128 26.653272,33.6230769 C25.5394039,32.3512821 24.6642218,31.5564103 24.1868498,31.1589744 C23.5503537,30.7615385 23.0729817,30.4435897 22.7547337,30.2846154 C21.3226176,28.9333333 20.2883115,27.9794872 19.5722534,27.2641026 C19.4131294,27.025641 19.4131294,26.8666667 19.3335674,26.7871795 C18.2992613,25.7538462 17.3445173,24.7205128 16.3102112,23.8461538 C15.9919632,23.6076923 15.7532772,23.5282051 15.5941531,23.4487179 C16.3102112,22.7333333 16.7875832,22.1769231 17.1853933,21.7794872 C17.6627653,21.1435897 17.9810133,20.6666667 18.2196993,20.3487179 C20.3678735,18.1230769 21.6408656,16.8512821 22.0386756,16.5333333 C22.2773616,16.374359 22.5160476,16.2948718 22.6751717,16.2153846 C25.3007179,13.4333333 27.289768,11.2871795 28.7218841,9.6974359 C29.0401321,9.53846154 29.1992561,9.37948718 29.3583801,9.3 C30.2335622,8.50512821 30.8700583,7.94871795 31.1883063,7.63076923 C32.3817364,6.99487179 33.5751665,6.75641026 34.9277206,6.91538462 C35.0072826,6.51794872 35.0868446,6.04102564 35.0868446,5.64358974 C32.3817364,5.72307692 30.3131242,5.8025641 28.8014461,5.88205128 C28.8014461,5.88205128 28.4036361,5.8025641 27.608016,5.72307692 C27.289768,5.72307692 26.97152,5.8025641 26.812396,5.88205128 C24.3459738,5.64358974 22.6751717,5.64358974 21.7204276,5.88205128 C21.7204276,6.43846154 21.7999896,6.75641026 21.8795516,6.83589744 C22.4364856,6.91538462 22.9138577,6.99487179 23.4707917,7.07435897 C24.1072878,7.15384615 24.6642218,7.47179487 25.0620318,7.94871795 C25.4598419,8.42564103 25.5394039,8.9025641 25.2211558,9.53846154 C24.8233458,10.3333333 24.4255358,10.9692308 24.1072878,11.4461538 C23.5503537,12.1615385 23.1525437,12.6384615 22.8342957,12.9564103 C21.8795516,14.0692308 20.6065595,15.3410256 19.0153194,16.9307692 C18.6175094,17.2487179 18.2992613,17.4871795 18.0605753,17.6461538 C17.3445173,18.5205128 15.9124012,19.9512821 13.843789,22.0179487 C13.286855,22.6538462 12.8094829,23.1307692 12.4912349,23.5282051 C12.0138629,23.925641 11.7751769,24.0846154 11.6956149,24.1641026 C11.5364908,22.9717949 11.5364908,22.0974359 11.6160529,21.4615385 C11.3773668,20.1897436 11.2978048,19.5538462 11.2978048,19.5538462 C11.3773668,18.7589744 11.3773668,18.1230769 11.4569288,17.6461538 C11.2978048,17.2487179 11.2978048,16.8512821 11.2978048,16.5333333 C11.2978048,16.4538462 11.3773668,16.374359 11.4569288,16.2153846 C11.6160529,16.0564103 11.6160529,15.9769231 11.6160529,15.9769231 C11.6160529,15.7384615 11.5364908,15.3410256 11.3773668,14.9435897 C11.2978048,14.5461538 11.2182428,14.3076923 11.2182428,14.2282051 C11.4569288,12.6384615 11.6956149,11.4461538 11.8547389,10.6512821 C12.0138629,9.61794872 12.0934249,9.06153846 12.1729869,8.98205128 C12.6503589,8.26666667 13.207293,7.78974359 14.002913,7.47179487 C14.6394091,7.31282051 15.1963431,7.23333333 15.8328392,7.07435897 L15.8328392,6.75641026 L15.8328392,6.51794872 C15.8328392,6.27948718 15.7532772,6.12051282 15.5941531,5.88205128 C15.0372191,5.96153846 13.525541,5.96153846 11.0591188,5.96153846 C10.7408708,5.96153846 10.4226228,5.96153846 10.0248127,6.04102564 C9.6270027,6.12051282 9.38831669,6.12051282 9.38831669,6.12051282 L6.92189451,6.12051282 L1.98905015,5.88205128 C1.11386808,5.8025641 0.636496047,6.12051282 0.636496047,6.67692308 C0.636496047,6.75641026 0.636496047,6.83589744 0.716058052,6.99487179 C2.14817416,7.15384615 3.18248023,7.39230769 3.73941427,7.71025641 C4.1372243,7.94871795 4.53503433,8.42564103 4.77372035,9.37948718 C5.01240637,10.0948718 5.09196837,10.6512821 5.09196837,11.2076923 L5.09196837,15.1025641 C5.09196837,15.1820513 5.01240637,15.3410256 4.93284436,15.5 L4.93284436,15.6589744 L4.93284436,17.9641026 C5.25109238,18.3615385 5.33065439,18.8384615 5.25109238,19.2358974 C4.93284436,20.6666667 4.93284436,21.7794872 5.17153038,22.6538462 C5.17153038,22.4948718 5.09196837,23.1307692 5.09196837,24.4025641 L5.09196837,27.4230769 C5.09196837,27.8205128 5.17153038,28.1384615 5.4102164,28.4564103 C5.64890241,28.6948718 5.72846442,28.8538462 5.72846442,28.774359 C5.25109238,29.4897436 5.01240637,29.9666667 4.93284436,30.2051282 C4.93284436,32.1128205 5.01240637,33.5435897 5.09196837,34.4974359 C4.93284436,36.4051282 4.85328236,37.7564103 4.69415834,38.7102564 C4.53503433,40.0615385 4.37591032,40.9358974 4.21678631,41.2538462 C3.81897628,42.0487179 3.26204224,42.525641 2.7051082,42.8435897 C2.46642218,43.0025641 1.98905015,43.0820513 1.3525541,43.1615385 C0.875182064,43.2410256 0.556934041,43.4 0.477372035,43.5589744 L0.477372035,43.7974359 C0.477372035,44.1948718 0.716058052,44.4333333 1.19343009,44.5128205 C1.59124012,44.5923077 1.98905015,44.5923077 2.38686017,44.5128205 L6.36496047,44.5128205 C6.28539846,44.5128205 6.7627705,44.4333333 7.79707657,44.3538462 C8.75182064,44.274359 9.38831669,44.1948718 9.86568872,44.274359 C10.0248127,44.274359 10.3430608,44.3538462 10.8999948,44.4333333 C11.3773668,44.5128205 11.6956149,44.5923077 11.6956149,44.5923077 L14.4802851,44.5923077 C15.4350291,44.4333333 16.0715252,44.4333333 16.4693352,44.3538462 C16.6284592,44.274359 16.6284592,43.9564103 16.6284592,43.4 C15.8328392,43.0820513 15.2759051,42.9230769 14.7985331,42.8435897 C13.684665,42.6051282 12.8094829,42.0487179 12.1729869,40.9358974 C12.0934249,40.3794872 12.0138629,39.9025641 12.0138629,39.5846154 C11.8547389,38.7897436 11.6956149,38.2333333 11.6160529,37.8358974 C11.4569288,36.6435897 11.3773668,35.6897436 11.2978048,35.0538462 C11.2978048,33.7025641 11.3773668,32.6692308 11.3773668,31.9538462 C11.2978048,30.7615385 11.2182428,29.8076923 11.1386808,29.2512821 C11.0591188,28.1384615 11.1386808,27.5025641 11.3773668,27.3435897 C12.0138629,27.8205128 12.5707969,28.1384615 12.8890449,28.4564103 C13.445979,28.9333333 13.923351,29.2512821 14.241599,29.4897436 C14.7189711,30.125641 15.1167811,30.6025641 15.2759051,30.9205128 C15.7532772,31.2384615 16.1510872,31.3974359 16.4693352,31.4769231 C16.7080212,31.7153846 16.7875832,31.874359 16.8671452,32.0333333 C17.2649553,32.2717949 17.6627653,32.4307692 17.9014513,32.5897436 C17.9810133,32.3512821 18.0605753,32.1923077 18.1401373,32.0333333 C17.9014513,31.9538462 17.8218893,31.874359 17.8218893,31.7153846 C18.0605753,31.7153846 18.2992613,31.7948718 18.5379474,32.1128205 L19.0153194,32.5897436 C19.8109395,32.8282051 20.2883115,33.1461538 20.5269975,33.5435897 C20.0496255,33.3846154 19.8109395,33.3846154 19.7313774,33.3051282 L19.0153194,33.0666667 C19.0153194,33.0666667 18.8561954,33.1461538 18.5379474,33.225641 C19.2540054,33.8615385 19.8905015,34.3384615 20.4474355,34.6564103 C21.2430556,35.4512821 21.7999896,36.0076923 22.1977996,36.4051282 C24.1072878,37.9948718 25.6189659,39.3461538 26.653272,40.3794872 C27.130644,40.7769231 27.36933,41.0948718 27.36933,41.2538462 C27.926264,41.8102564 28.3240741,42.2076923 28.6423221,42.4461538 C28.7218841,42.6051282 28.7218841,42.6846154 28.7218841,42.7641026 C28.7218841,43.0820513 28.2445121,43.2410256 27.36933,43.3205128 C27.130644,43.6384615 27.210206,44.0358974 27.448892,44.4333333 L32.2226124,44.3538462 L35.0868446,44.3538462 L39.8605649,44.4333333 C40.1788129,44.0358974 40.0196889,43.6384615 39.7810029,43.3205128 L39.7810029,43.3205128 Z" id="Shape" fill="#63B1CB"></path>
                        </g>
                        <g id="Group" transform="translate(22.277362, 50.076923)" fill="#005B70">
                            <path d="M0,10.0153846 L0.159124012,10.0153846 C0.556934041,9.93589744 0.875182064,9.93589744 1.11386808,9.53846154 C1.27299209,9.22051282 1.27299209,8.58461538 1.27299209,8.26666667 L1.27299209,3.17948718 C1.27299209,2.22564103 1.3525541,1.51025641 0.238686017,1.43076923 L0.0795620058,1.43076923 L0.0795620058,1.03333333 L4.21678631,1.03333333 C5.56934041,1.03333333 7.16058052,1.11282051 8.27444861,1.98717949 C9.46787869,2.86153846 10.1043747,4.37179487 10.1043747,5.88205128 C10.1043747,7.31282051 9.46787869,8.74358974 8.35401061,9.61794872 C7.16058052,10.4923077 5.64890241,10.5717949 4.21678631,10.5717949 L0,10.5717949 L0,10.0153846 L0,10.0153846 Z M2.62554619,8.50512821 C2.62554619,8.82307692 2.62554619,9.37948718 2.94379422,9.61794872 C3.18248023,9.85641026 4.0576623,9.85641026 4.37591032,9.85641026 C7.00145651,9.85641026 8.35401061,8.26666667 8.35401061,5.64358974 C8.35401061,4.53076923 8.11532459,3.33846154 7.31970454,2.54358974 C6.60364648,1.82820513 5.4102164,1.51025641 4.37591032,1.51025641 C3.97810029,1.51025641 3.10291823,1.58974359 2.86423221,1.90769231 C2.7051082,2.14615385 2.7051082,2.7025641 2.7051082,3.02051282 L2.7051082,8.50512821 L2.62554619,8.50512821 Z" id="Shape"></path>
                            <path d="M12.7299209,6.43846154 L12.7299209,7.15384615 C12.7299209,7.78974359 12.9686069,8.58461538 13.366417,9.06153846 C13.764227,9.61794872 14.4802851,9.93589744 15.1167811,9.93589744 C16.0715252,9.93589744 16.7080212,9.45897436 17.1853933,8.66410256 L17.6627653,8.9025641 C17.1853933,10.0153846 15.9919632,10.5717949 14.7985331,10.5717949 C13.843789,10.5717949 13.048169,10.3333333 12.3321109,9.6974359 C11.6160529,8.98205128 11.2978048,8.02820513 11.2978048,7.07435897 C11.2978048,5.08717949 12.5707969,3.57692308 14.6394091,3.57692308 C16.3102112,3.57692308 17.6627653,4.68974359 17.6627653,6.43846154 L12.7299209,6.43846154 L12.7299209,6.43846154 Z M16.0715252,5.88205128 C16.0715252,4.84871795 15.4350291,4.13333333 14.4802851,4.13333333 C13.525541,4.13333333 12.8094829,4.92820513 12.7299209,5.88205128 L16.0715252,5.88205128 L16.0715252,5.88205128 Z" id="Shape"></path>
                            <path d="M25.8576519,8.74358974 C25.8576519,9.45897436 26.0167759,10.0153846 26.812396,10.0948718 L26.97152,10.0948718 L26.97152,10.4923077 L23.2321057,10.4923077 L23.2321057,10.0948718 L23.3912297,10.0948718 C24.2664118,10.0153846 24.4255358,9.53846154 24.4255358,8.74358974 L24.4255358,5.88205128 C24.4255358,5.48461538 24.3459738,5.16666667 24.1868498,4.84871795 C23.9481638,4.53076923 23.5503537,4.37179487 23.2321057,4.37179487 C22.2773616,4.37179487 21.4021796,4.92820513 20.7656835,5.48461538 L20.7656835,8.74358974 C20.7656835,9.53846154 20.9248075,10.0153846 21.7999896,10.0948718 L21.9591136,10.0948718 L21.9591136,10.4923077 L18.2196993,10.4923077 L18.2196993,10.0948718 L18.3788233,10.0948718 C19.3335674,10.0153846 19.4926914,9.61794872 19.4926914,8.74358974 L19.4926914,5.88205128 C19.4926914,5.08717949 19.3335674,4.61025641 18.4583854,4.53076923 L18.2196993,4.53076923 L18.2196993,4.13333333 L20.3678735,3.81538462 L20.8452455,3.81538462 L20.8452455,4.92820513 C21.7204276,4.13333333 22.6751717,3.65641026 23.7890397,3.65641026 C24.3459738,3.65641026 24.9029078,3.81538462 25.3007179,4.21282051 C25.7780899,4.61025641 25.8576519,5.08717949 25.8576519,5.64358974 L25.8576519,8.74358974 L25.8576519,8.74358974 Z" id="Shape"></path>
                            <path d="M31.9043643,4.13333333 L29.9153142,4.13333333 L29.9153142,8.02820513 C29.9153142,8.82307692 29.9153142,9.93589744 30.9496203,9.93589744 C31.4269923,9.93589744 31.8248023,9.61794872 32.1430504,9.3 L32.4612984,9.61794872 C31.9839263,10.2538462 31.2678683,10.4923077 30.4722482,10.4923077 C29.9948762,10.4923077 29.5175042,10.4128205 29.1196941,10.174359 C28.5627601,9.77692308 28.4831981,9.3 28.4831981,8.66410256 L28.4831981,4.13333333 L27.289768,4.13333333 L27.289768,3.65641026 C28.8810081,3.57692308 29.1992561,2.46410256 29.1992561,1.11282051 L29.8357522,1.11282051 L29.8357522,3.65641026 L31.8248023,3.65641026 L31.8248023,4.13333333 L31.9043643,4.13333333 Z" id="Shape"></path>
                            <path d="M40.656185,10.0948718 C40.337937,10.4128205 39.7014409,10.5717949 39.2240689,10.5717949 C38.5080108,10.5717949 37.9510768,10.2538462 37.7123908,9.53846154 C36.9167707,10.174359 36.1211506,10.5717949 35.0868446,10.5717949 C34.1321005,10.5717949 32.9386704,10.0153846 32.9386704,8.9025641 C32.9386704,7.94871795 33.4956045,7.47179487 34.2912245,7.15384615 C35.0072826,6.83589744 35.8029026,6.67692308 36.5985227,6.5974359 L37.6328288,6.51794872 L37.6328288,5.48461538 C37.6328288,5.08717949 37.5532667,4.68974359 37.1554567,4.45128205 C36.7576467,4.21282051 36.2802747,4.13333333 35.8824646,4.13333333 C35.4846546,4.13333333 34.5299105,4.37179487 34.5299105,4.84871795 L34.5299105,5.00769231 C34.5299105,5.48461538 34.3707865,5.88205128 33.8138525,5.88205128 C33.4956045,5.88205128 33.1773564,5.64358974 33.1773564,5.24615385 C33.1773564,4.68974359 33.8138525,4.13333333 34.2912245,3.97435897 C34.8481586,3.73589744 35.6437786,3.57692308 36.2802747,3.57692308 C36.8372087,3.57692308 37.6328288,3.73589744 38.1102008,4.05384615 C38.8262588,4.45128205 38.9058208,5.00769231 38.9058208,5.8025641 L38.9058208,8.50512821 C38.9058208,9.06153846 38.9853829,9.93589744 39.7014409,9.93589744 C39.9401269,9.93589744 40.0992509,9.85641026 40.2583749,9.6974359 L40.656185,10.0948718 L40.656185,10.0948718 Z M37.7123908,6.99487179 C36.6780847,7.07435897 34.3707865,7.39230769 34.3707865,8.74358974 C34.3707865,9.45897436 35.0072826,9.85641026 35.6437786,9.85641026 C36.3598367,9.85641026 37.1554567,9.37948718 37.7123908,8.9025641 L37.7123908,6.99487179 L37.7123908,6.99487179 Z" id="Shape"></path>
                            <path d="M43.3612932,8.66410256 C43.3612932,9.37948718 43.4408552,9.93589744 44.3160372,10.0153846 L44.4751613,10.0153846 L44.4751613,10.4128205 L40.815309,10.4128205 L40.815309,10.0153846 L40.974433,10.0153846 C41.8496151,9.93589744 42.0087391,9.53846154 42.0087391,8.66410256 L42.0087391,3.1 C42.0087391,2.14615385 42.0883011,1.43076923 40.974433,1.35128205 L40.815309,1.35128205 L40.815309,0.953846154 C41.531367,0.874358974 42.1678631,0.794871795 42.8043591,0.476923077 L43.3612932,0.476923077 L43.3612932,8.66410256 L43.3612932,8.66410256 Z" id="Shape"></path>
                            <path d="M50.8401217,3.17948718 C50.8401217,2.22564103 50.9196837,1.51025641 49.8058156,1.43076923 L49.5671296,1.43076923 L49.5671296,1.03333333 L53.4656679,1.03333333 L53.4656679,1.43076923 L53.3065439,1.43076923 C52.9087339,1.43076923 52.5109238,1.51025641 52.3517998,1.90769231 C52.1926758,2.22564103 52.1926758,2.86153846 52.1926758,3.17948718 L52.1926758,5.08717949 L57.2050822,5.08717949 L57.2050822,3.17948718 C57.2050822,2.22564103 57.2846442,1.51025641 56.1707761,1.43076923 L55.9320901,1.43076923 L55.9320901,1.03333333 L59.8306284,1.03333333 L59.8306284,1.43076923 L59.6715044,1.43076923 C59.2736943,1.51025641 58.8758843,1.51025641 58.7167603,1.90769231 C58.5576363,2.22564103 58.5576363,2.86153846 58.5576363,3.17948718 L58.5576363,8.34615385 C58.5576363,9.3 58.4780743,10.0153846 59.5919424,10.0948718 L59.8306284,10.0948718 L59.8306284,10.4923077 L55.9320901,10.4923077 L55.9320901,10.0948718 L56.0912141,10.0948718 C56.4890241,10.0948718 56.8868342,10.0153846 57.0459582,9.61794872 C57.2050822,9.3 57.2050822,8.66410256 57.2050822,8.34615385 L57.2050822,5.72307692 L52.1926758,5.72307692 L52.1926758,8.34615385 C52.1926758,9.3 52.1131138,10.0153846 53.2269819,10.0948718 L53.4656679,10.0948718 L53.4656679,10.4923077 L49.5671296,10.4923077 L49.5671296,10.0948718 L49.7262536,10.0948718 C50.1240637,10.0153846 50.5218737,10.0153846 50.6809977,9.61794872 C50.8401217,9.3 50.8401217,8.66410256 50.8401217,8.34615385 L50.8401217,3.17948718 L50.8401217,3.17948718 Z" id="Shape"></path>
                            <path d="M62.2970506,6.43846154 L62.2970506,7.15384615 C62.2970506,7.78974359 62.5357366,8.58461538 62.9335466,9.06153846 C63.3313566,9.61794872 64.0474147,9.93589744 64.6839107,9.93589744 C65.6386548,9.93589744 66.2751509,9.45897436 66.7525229,8.66410256 L67.2298949,8.9025641 C66.7525229,10.0153846 65.5590928,10.5717949 64.3656627,10.5717949 C63.4109186,10.5717949 62.6152986,10.3333333 61.8992405,9.6974359 C61.1831825,8.98205128 60.8649345,8.02820513 60.8649345,7.07435897 C60.8649345,5.08717949 62.1379266,3.57692308 64.2065387,3.57692308 C65.8773408,3.57692308 67.2298949,4.68974359 67.2298949,6.43846154 L62.2970506,6.43846154 L62.2970506,6.43846154 Z M65.6386548,5.88205128 C65.6386548,4.84871795 65.0021588,4.13333333 64.0474147,4.13333333 C63.0926706,4.13333333 62.3766126,4.92820513 62.2970506,5.88205128 L65.6386548,5.88205128 L65.6386548,5.88205128 Z" id="Shape"></path>
                            <path d="M75.7430295,10.0948718 C75.4247815,10.4128205 74.7882855,10.5717949 74.3109134,10.5717949 C73.5948554,10.5717949 73.0379213,10.2538462 72.7992353,9.53846154 C72.0036153,10.174359 71.2079952,10.5717949 70.1736891,10.5717949 C69.2189451,10.5717949 68.025515,10.0153846 68.025515,8.9025641 C68.025515,7.94871795 68.582449,7.47179487 69.3780691,7.15384615 C70.0941271,6.83589744 70.8897472,6.67692308 71.6853672,6.5974359 L72.7196733,6.51794872 L72.7196733,5.48461538 C72.7196733,5.08717949 72.6401113,4.68974359 72.2423013,4.45128205 C71.8444913,4.21282051 71.3671192,4.13333333 70.9693092,4.13333333 C70.5714992,4.13333333 69.6167551,4.37179487 69.6167551,4.84871795 L69.6167551,5.00769231 C69.6167551,5.48461538 69.4576311,5.88205128 68.900697,5.88205128 C68.582449,5.88205128 68.264201,5.64358974 68.264201,5.24615385 C68.264201,4.68974359 68.900697,4.13333333 69.3780691,3.97435897 C69.9350031,3.73589744 70.7306232,3.57692308 71.3671192,3.57692308 C71.9240533,3.57692308 72.7196733,3.73589744 73.1970454,4.05384615 C73.9131034,4.45128205 73.9926654,5.00769231 73.9926654,5.8025641 L73.9926654,8.50512821 C73.9926654,9.06153846 74.0722274,9.93589744 74.7882855,9.93589744 C75.0269715,9.93589744 75.1860955,9.85641026 75.3452195,9.6974359 L75.7430295,10.0948718 L75.7430295,10.0948718 Z M72.7992353,6.99487179 C71.7649293,7.07435897 69.4576311,7.39230769 69.4576311,8.74358974 C69.4576311,9.45897436 70.0941271,9.85641026 70.7306232,9.85641026 C71.4466812,9.85641026 72.2423013,9.37948718 72.7992353,8.9025641 L72.7992353,6.99487179 L72.7992353,6.99487179 Z" id="Shape"></path>
                            <path d="M78.4481377,8.66410256 C78.4481377,9.37948718 78.5276998,9.93589744 79.4028818,10.0153846 L79.5620058,10.0153846 L79.5620058,10.4128205 L75.9021536,10.4128205 L75.9021536,10.0153846 L76.0612776,10.0153846 C76.9364596,9.93589744 77.0955836,9.53846154 77.0955836,8.66410256 L77.0955836,3.1 C77.0955836,2.14615385 77.1751457,1.43076923 76.0612776,1.35128205 L75.9021536,1.35128205 L75.9021536,0.953846154 C76.6182116,0.874358974 77.2547077,0.794871795 77.8912037,0.476923077 L78.4481377,0.476923077 L78.4481377,8.66410256 L78.4481377,8.66410256 Z" id="Shape"></path>
                            <path d="M84.5744122,4.13333333 L82.585362,4.13333333 L82.585362,8.02820513 C82.585362,8.82307692 82.585362,9.93589744 83.6196681,9.93589744 C84.0970402,9.93589744 84.4948502,9.61794872 84.8130982,9.3 L85.1313462,9.61794872 C84.6539742,10.2538462 83.9379161,10.4923077 83.1422961,10.4923077 C82.6649241,10.4923077 82.187552,10.4128205 81.789742,10.174359 C81.2328079,9.77692308 81.1532459,9.3 81.1532459,8.66410256 L81.1532459,4.13333333 L79.9598159,4.13333333 L79.9598159,3.65641026 C81.551056,3.57692308 81.869304,2.46410256 81.869304,1.11282051 L82.5058,1.11282051 L82.5058,3.65641026 L84.4948502,3.65641026 L84.4948502,4.13333333 L84.5744122,4.13333333 Z" id="Shape"></path>
                            <path d="M92.9284228,8.66410256 C92.9284228,9.45897436 93.0079848,9.93589744 93.8831669,10.0153846 L94.0422909,10.0153846 L94.0422909,10.4128205 L90.3028766,10.4128205 L90.3028766,10.0153846 L90.4620006,10.0153846 C91.4167447,9.93589744 91.5758687,9.53846154 91.5758687,8.66410256 L91.5758687,5.8025641 C91.5758687,5.40512821 91.5758687,5.00769231 91.3371827,4.68974359 C91.0984967,4.45128205 90.7006866,4.29230769 90.3824386,4.29230769 C89.5868186,4.29230769 88.4729505,4.84871795 87.9160164,5.40512821 L87.9160164,8.66410256 C87.9160164,9.45897436 87.9955784,9.93589744 88.8707605,10.0153846 L89.0298845,10.0153846 L89.0298845,10.4128205 L85.2904702,10.4128205 L85.2904702,10.0153846 L85.4495943,10.0153846 C86.4043383,9.93589744 86.5634623,9.53846154 86.5634623,8.66410256 L86.5634623,3.1 C86.5634623,2.14615385 86.6430243,1.43076923 85.5291563,1.35128205 L85.3700323,1.35128205 L85.3700323,0.953846154 C86.0860903,0.874358974 86.7225864,0.794871795 87.3590824,0.476923077 L87.9160164,0.476923077 L87.9160164,4.76923077 C88.7116365,4.05384615 89.6663806,3.57692308 90.7802486,3.57692308 C91.2576207,3.57692308 91.8941167,3.73589744 92.3714888,4.05384615 C92.9284228,4.45128205 92.9284228,5.08717949 92.9284228,5.72307692 L92.9284228,8.66410256 L92.9284228,8.66410256 Z" id="Shape"></path>
                            <path d="M108.204328,4.45128205 L107.726956,4.45128205 L107.647394,4.37179487 C107.329146,3.73589744 106.931336,2.94102564 106.453964,2.38461538 C105.817468,1.74871795 105.021848,1.43076923 104.146666,1.43076923 C103.11236,1.43076923 102.237177,1.90769231 101.680243,2.78205128 C101.123309,3.65641026 100.964185,4.76923077 100.964185,5.8025641 C100.964185,6.75641026 101.123309,7.86923077 101.759805,8.66410256 C102.396301,9.45897436 103.351046,9.93589744 104.464914,9.93589744 C105.89703,9.93589744 107.170022,9.06153846 107.88608,7.86923077 L108.522576,8.18717949 C107.567832,9.77692308 106.135716,10.6512821 104.226228,10.6512821 C101.361995,10.6512821 99.2933833,8.58461538 99.2933833,5.72307692 C99.2933833,3.1 101.202871,0.715384615 103.987542,0.715384615 C105.021848,0.715384615 105.976592,1.03333333 106.772212,1.74871795 L107.09046,1.11282051 L107.567832,1.11282051 L108.204328,4.45128205 L108.204328,4.45128205 Z" id="Shape"></path>
                            <path d="M110.988998,6.43846154 L110.988998,7.15384615 C110.988998,7.78974359 111.227684,8.58461538 111.625494,9.06153846 C112.023304,9.61794872 112.739362,9.93589744 113.375858,9.93589744 C114.330602,9.93589744 114.967098,9.45897436 115.44447,8.66410256 L115.921842,8.9025641 C115.44447,10.0153846 114.25104,10.5717949 113.05761,10.5717949 C112.102866,10.5717949 111.307246,10.3333333 110.591188,9.6974359 C109.87513,8.98205128 109.556882,8.02820513 109.556882,7.07435897 C109.556882,5.08717949 110.829874,3.57692308 112.898486,3.57692308 C114.569288,3.57692308 115.921842,4.68974359 115.921842,6.43846154 L110.988998,6.43846154 L110.988998,6.43846154 Z M114.410164,5.88205128 C114.410164,4.84871795 113.773668,4.13333333 112.818924,4.13333333 C111.86418,4.13333333 111.148122,4.92820513 111.06856,5.88205128 L114.410164,5.88205128 L114.410164,5.88205128 Z" id="Shape"></path>
                            <path d="M124.116729,8.74358974 C124.116729,9.45897436 124.275853,10.0153846 125.071473,10.0948718 L125.230597,10.0948718 L125.230597,10.4923077 L121.491183,10.4923077 L121.491183,10.0948718 L121.650307,10.0948718 C122.525489,10.0153846 122.684613,9.53846154 122.684613,8.74358974 L122.684613,5.88205128 C122.684613,5.48461538 122.605051,5.16666667 122.445927,4.84871795 C122.207241,4.53076923 121.809431,4.37179487 121.491183,4.37179487 C120.536439,4.37179487 119.661257,4.92820513 119.024761,5.48461538 L119.024761,8.74358974 C119.024761,9.53846154 119.183885,10.0153846 120.059067,10.0948718 L120.218191,10.0948718 L120.218191,10.4923077 L116.478777,10.4923077 L116.478777,10.0948718 L116.637901,10.0948718 C117.592645,10.0153846 117.751769,9.61794872 117.751769,8.74358974 L117.751769,5.88205128 C117.751769,5.08717949 117.592645,4.61025641 116.717463,4.53076923 L116.478777,4.53076923 L116.478777,4.13333333 L118.626951,3.81538462 L119.104323,3.81538462 L119.104323,4.92820513 C119.899943,4.13333333 120.934249,3.65641026 122.048117,3.65641026 C122.605051,3.65641026 123.161985,3.81538462 123.559795,4.21282051 C124.037167,4.61025641 124.116729,5.08717949 124.116729,5.64358974 L124.116729,8.74358974 L124.116729,8.74358974 Z" id="Shape"></path>
                            <path d="M130.243004,4.13333333 L128.253953,4.13333333 L128.253953,8.02820513 C128.253953,8.82307692 128.253953,9.93589744 129.288259,9.93589744 C129.765632,9.93589744 130.163442,9.61794872 130.48169,9.3 L130.799938,9.61794872 C130.322566,10.2538462 129.606507,10.4923077 128.810887,10.4923077 C128.333515,10.4923077 127.856143,10.4128205 127.458333,10.174359 C126.901399,9.77692308 126.821837,9.3 126.821837,8.66410256 L126.821837,4.13333333 L125.707969,4.13333333 L125.707969,3.65641026 C127.299209,3.57692308 127.617457,2.46410256 127.617457,1.11282051 L128.253953,1.11282051 L128.253953,3.65641026 L130.243004,3.65641026 L130.243004,4.13333333 L130.243004,4.13333333 Z" id="Shape"></path>
                            <path d="M132.788988,6.43846154 L132.788988,7.15384615 C132.788988,7.78974359 133.027674,8.58461538 133.425484,9.06153846 C133.823294,9.61794872 134.539352,9.93589744 135.175848,9.93589744 C136.130592,9.93589744 136.767088,9.45897436 137.24446,8.66410256 L137.721832,8.9025641 C137.24446,10.0153846 136.05103,10.5717949 134.8576,10.5717949 C133.902856,10.5717949 133.107236,10.3333333 132.391178,9.6974359 C131.67512,8.98205128 131.356872,8.02820513 131.356872,7.07435897 C131.356872,5.08717949 132.629864,3.57692308 134.698476,3.57692308 C136.369278,3.57692308 137.721832,4.68974359 137.721832,6.43846154 L132.788988,6.43846154 L132.788988,6.43846154 Z M136.130592,5.88205128 C136.130592,4.84871795 135.494096,4.13333333 134.539352,4.13333333 C133.584608,4.13333333 132.86855,4.92820513 132.788988,5.88205128 L136.130592,5.88205128 L136.130592,5.88205128 Z" id="Shape"></path>
                            <path d="M140.82475,8.66410256 C140.82475,9.45897436 140.983874,9.93589744 141.859056,10.0153846 L142.097742,10.0153846 L142.097742,10.4128205 L138.278766,10.4128205 L138.278766,10.0153846 L138.43789,10.0153846 C139.392634,9.93589744 139.472196,9.53846154 139.472196,8.66410256 L139.472196,5.8025641 C139.472196,5.00769231 139.313072,4.53076923 138.43789,4.45128205 L138.199204,4.45128205 L138.199204,4.05384615 L140.347378,3.73589744 L140.82475,3.73589744 L140.82475,4.76923077 C141.461246,4.13333333 142.256866,3.57692308 143.132048,3.57692308 C143.609421,3.57692308 144.166355,3.73589744 144.166355,4.29230769 C144.166355,4.76923077 143.848107,5.00769231 143.370734,5.00769231 C142.734238,5.00769231 142.575114,4.53076923 142.097742,4.53076923 C141.62037,4.53076923 141.063436,4.92820513 140.745188,5.32564103 L140.745188,8.66410256 L140.82475,8.66410256 Z" id="Shape"></path>
                        </g>
                        <path d="M14.321161,3.17948718 L5.80802643,3.17948718 C4.37591032,3.17948718 2.94379422,3.17948718 1.59124012,3.02051282 C1.19343009,2.94102564 0.556934041,2.7025641 0.397810029,3.17948718 C0.238686017,3.4974359 0.0795620058,4.21282051 0.159124012,4.53076923 C0.238686017,4.92820513 0.95474407,5.08717949 1.27299209,5.24615385 C1.82992613,5.48461538 2.38686017,5.72307692 2.7846702,6.2 C3.58029026,7.15384615 3.81897628,8.50512821 4.37591032,9.53846154 C5.01240637,10.7307692 4.93284436,12.0025641 5.09196837,13.274359 C5.17153038,13.9897436 5.4102164,14.5461538 5.56934041,15.1820513 C5.72846442,15.8974359 5.64890241,16.6128205 5.64890241,17.3282051 C5.64890241,20.3487179 5.80802643,23.3692308 5.64890241,26.3897436 C5.64890241,27.1051282 5.56934041,27.8205128 5.72846442,28.5358974 C5.80802643,28.8538462 5.88758843,29.1717949 5.88758843,29.4897436 C5.88758843,29.8076923 5.72846442,30.125641 5.64890241,30.5230769 C5.4102164,31.9538462 5.64890241,33.4641026 5.56934041,34.8948718 C5.56934041,35.6102564 5.64890241,36.325641 5.64890241,37.0410256 C5.64890241,37.2794872 5.4897784,37.5974359 5.4897784,37.9153846 C5.4897784,38.2333333 5.64890241,38.4717949 5.72846442,38.7897436 C5.96715044,39.425641 5.96715044,40.1410256 5.96715044,40.8564103 C5.96715044,41.4923077 6.04671244,42.2076923 5.96715044,42.8435897 C5.88758843,43.4794872 5.80802643,49.6 5.88758843,50.1564103 C5.96715044,50.7923077 5.96715044,52.7 5.72846442,53.4948718 C5.17153038,55.2435897 4.29634831,57.8666667 4.1372243,58.1846154 C3.58029026,59.2179487 2.14817416,59.3769231 1.19343009,59.6153846 C0.716058052,59.774359 0.318248023,59.9333333 0.238686017,60.4897436 C0.159124012,60.8871795 0.159124012,61.4435897 0.477372035,61.6820513 C0.875182064,62.0794872 1.51167811,61.9205128 2.06861215,61.9205128 C2.7846702,61.9205128 3.50072826,61.8410256 4.21678631,61.8410256 C5.64890241,61.8410256 7.00145651,61.8410256 8.43357262,61.6025641 C9.07006866,61.5230769 9.78612672,61.6820513 10.4226228,61.6025641 C11.1386808,61.5230769 11.7751769,61.4435897 12.4116729,61.5230769 C13.843789,61.6820513 15.1963431,61.6025641 16.6284592,61.6820513 C17.1853933,61.6820513 17.6627653,61.8410256 17.9014513,61.2051282 C17.9810133,60.9666667 18.0605753,60.6487179 18.0605753,60.4102564 C18.0605753,60.0923077 18.1401373,59.9333333 17.8218893,59.8538462 C16.7080212,59.6153846 15.6737151,59.2974359 14.7985331,58.5820513 C13.923351,57.8666667 13.445979,56.7538462 13.207293,55.6410256 C12.5707969,53.0179487 12.6503589,50.2358974 12.7299209,47.5333333 C12.8094829,46.0230769 12.7299209,44.5128205 12.8094829,42.9230769 C12.8094829,42.2076923 12.8890449,41.4923077 12.8094829,40.7769231 C12.7299209,40.0615385 12.6503589,39.5051282 12.8094829,38.7897436 C12.9686069,38.074359 12.8890449,37.2794872 12.8890449,36.5641026 L12.8890449,34.2589744 L12.8890449,29.6487179 C12.8890449,26.5487179 12.8890449,23.5282051 12.9686069,20.4282051 L12.9686069,15.8974359 C12.9686069,14.4666667 13.127731,13.0358974 13.366417,11.6051282 C13.525541,10.2538462 13.764227,8.9025641 14.241599,7.63076923 C14.4802851,7.07435897 14.7189711,6.51794872 15.0372191,6.12051282 C15.4350291,5.64358974 16.0715252,5.48461538 16.6284592,5.24615385 C16.9467072,5.16666667 17.7423273,5.08717949 17.9810133,4.76923077 C18.1401373,4.61025641 18.1401373,4.21282051 18.2196993,3.97435897 C18.2992613,3.65641026 18.3788233,3.25897436 18.3788233,2.94102564 C16.7875832,2.78205128 15.5145911,3.1 14.321161,3.17948718" id="Shape" fill="#63B1CB"></path>
                    </g>
                </g>
            </g>
        </g>
    </g>
</svg>