<?xml version="1.0" encoding="UTF-8" standalone="no"?>
<svg width="223px" height="80px" viewBox="0 0 223 80" version="1.1" xmlns="http://www.w3.org/2000/svg" xmlns:xlink="http://www.w3.org/1999/xlink">
    <!-- Generator: Sketch 41.1 (35376) - http://www.bohemiancoding.com/sketch -->
    <title>ikuta-logo-process copy</title>
    <desc>Created with Sketch.</desc>
    <defs></defs>
    <g id="Page-1" stroke="none" stroke-width="1" fill="none" fill-rule="evenodd">
        <g id="ikuta-logo-process-copy">
            <g id="Layer_1">
                <g id="Group" transform="translate(26.185061, 3.333333)" fill="#83CEE8">
                    <path d="M161.540564,31.0946555 C161.540564,30.3425187 161.540564,30.1276225 161.433442,30.3425187 C161.647686,29.9127263 161.861931,29.6978301 161.969054,29.3754857 C162.290421,28.1935566 162.504666,27.3339717 162.611788,26.6892831 C162.826033,26.1520425 163.040278,25.8296982 163.254522,25.5073539 C163.361645,24.7552171 163.468767,24.1105285 163.468767,23.6807361 C163.790134,22.9285993 164.004379,22.3913588 164.218624,21.9615663 C164.432869,21.1019815 164.539991,20.4572928 164.647113,20.0275004 C164.861358,19.7051561 165.075603,19.3828118 165.182725,19.2753636 C166.361072,16.9115053 167.539418,14.655095 168.503519,12.3986848 C168.932009,13.4731658 169.253376,14.3327507 169.360499,14.8699912 C169.89611,16.1593685 170.3246,17.1264015 170.645967,17.7710901 C171.288702,19.9200523 171.824313,21.639222 172.145681,22.7137031 C174.181006,28.1935566 175.145108,30.9872074 175.145108,30.9872074 L161.540564,30.9872074 L161.540564,31.0946555 Z M196.676708,51.8321402 C195.819729,51.5097959 195.284117,51.2948997 194.855627,51.1874516 C193.463036,50.650211 192.606057,50.2204186 192.498935,49.8980743 C191.8562,48.608697 191.320588,47.7491121 191.106344,47.3193197 C190.249365,45.2778056 189.713753,43.666084 189.285263,42.4841549 C189.178141,42.0543624 189.178141,41.8394662 189.178141,41.5171219 C188.642529,40.5500889 188.214039,39.9054003 187.892672,39.4756078 C187.035693,37.4340938 186.392959,36.0372684 186.071591,35.2851317 C185.964469,34.8553392 185.857347,34.4255468 185.857347,34.2106506 C185.428857,32.8138252 185.10749,31.631896 185.10749,30.8797593 C183.929144,27.4414198 182.965042,24.7552171 182.42943,22.9285993 C181.572451,20.9945334 180.929717,19.4902599 180.501227,18.5232269 C180.17986,17.2338496 180.072738,16.589161 180.17986,16.3742647 C179.430003,15.2997837 178.894391,14.0104064 178.465902,12.7210291 C178.251657,11.646548 178.037412,10.8944113 178.037412,10.3571707 C176.216331,5.84435022 174.930863,2.51345888 174.181006,0.364496736 C172.038558,0.149600521 170.3246,0.149600521 169.253376,0.0421524132 C168.07503,-0.0652956943 167.432296,0.0421524132 167.325173,0.257048628 C167.003806,0.901737273 166.789561,1.43897781 166.682439,1.76132213 C165.932582,3.48049185 165.504092,4.66242103 165.182725,5.52200589 C164.861358,6.48903886 164.647113,7.24117561 164.539991,7.67096804 C163.575889,9.81993019 162.933155,11.4316518 162.71891,12.5061329 C161.969054,14.7625431 161.326319,16.4817129 160.89783,17.663642 C160.790707,18.2008826 160.790707,18.5232269 160.790707,18.8455712 C160.89783,18.4157788 161.004952,18.2008826 161.112074,18.0934345 C161.112074,18.0934345 161.112074,18.0934345 161.112074,18.2008826 C161.112074,18.630675 161.004952,19.4902599 160.683585,20.5647409 C160.362218,21.7466701 160.147973,22.3913588 159.933728,22.3913588 C159.826606,22.3913588 159.719483,22.1764625 159.612361,21.7466701 C159.398116,21.9615663 159.290994,22.1764625 159.183871,22.2839107 C158.005525,26.0445944 157.041424,28.9456933 156.398689,30.7723111 C155.54171,33.3510657 154.791853,35.2851317 154.256242,36.5745089 C153.399262,39.2607116 152.756528,41.3022257 152.435161,42.591603 C151.471059,44.7405651 150.721203,46.3522867 150.292713,47.3193197 C149.864224,48.2863527 149.221489,49.0384894 148.578755,49.4682818 C147.828898,50.1129705 147.400409,50.650211 147.079041,51.0800035 C146.222062,51.7246921 145.793573,52.1544845 145.793573,52.4768288 C145.793573,52.584277 145.793573,52.6917251 145.900695,52.7991732 C147.828898,53.0140694 148.900122,53.1215175 148.900122,53.1215175 C150.185591,52.9066213 151.256815,52.7991732 151.899549,52.584277 C154.898976,52.584277 157.255668,52.6917251 158.862504,52.7991732 C159.933728,52.584277 160.683585,52.4768288 161.219197,52.2619326 C161.112074,52.0470364 160.89783,51.7246921 160.683585,51.2948997 C160.362218,51.1874516 160.147973,51.1874516 160.040851,51.0800035 C159.505239,50.8651072 158.862504,50.4353148 158.112648,49.8980743 C157.362791,49.2533856 156.934301,48.8235932 156.827179,48.608697 C156.612934,48.1789045 156.612934,47.2118716 156.827179,45.9224943 C157.148546,44.0958765 157.255668,43.2362916 157.255668,43.4511878 C157.255668,43.1288435 157.577036,41.9469143 158.21977,40.0128484 C158.755382,38.8309192 159.076749,37.9713343 159.398116,37.3266457 C159.933728,36.1447165 160.576463,35.607476 161.219197,35.607476 L170.003233,35.5000279 C174.073884,35.2851317 176.323454,35.1776835 176.859066,35.1776835 C177.180433,35.1776835 177.394678,35.2851317 177.394678,35.3925798 C177.394678,35.9298203 177.608923,36.7894052 178.037412,37.9713343 C178.573024,39.3681597 178.894391,40.1202965 179.001514,40.3351927 C179.75137,43.5586359 180.286982,45.9224943 180.608349,47.5342159 C180.715472,47.8565602 180.715472,48.2863527 180.501227,48.9310413 C180.286982,49.4682818 179.965615,49.8980743 179.537126,50.2204186 C178.573024,50.5427629 177.716045,50.7576591 177.180433,50.7576591 C177.073311,51.2948997 176.966188,52.0470364 177.073311,52.9066213 C177.5018,53.3364137 178.358779,53.5513099 179.537126,53.2289656 C181.786696,52.7991732 184.893245,52.584277 188.963896,52.584277 L192.28469,52.584277 C192.177568,52.584277 192.927424,52.6917251 194.53426,52.7991732 C195.498362,52.9066213 196.248218,52.7991732 196.78383,52.584277 L196.78383,51.8321402 L196.676708,51.8321402 Z M147.721776,0.471944843 C147.079041,0.57939295 146.436307,0.686841058 145.793573,0.686841058 C144.079614,0.794289165 142.365656,0.901737273 140.544576,1.2240816 C138.830617,1.54642592 138.080761,1.65387402 138.080761,1.65387402 L131.224928,1.65387402 C131.33205,1.65387402 129.725214,1.54642592 126.190175,1.2240816 C122.655137,0.901737273 120.084199,0.794289165 118.370241,0.794289165 C112.478509,0.794289165 109.907572,0.794289165 110.764551,0.901737273 L109.479083,2.62090699 C109.264838,3.58793996 109.050593,5.52200589 108.622103,8.42310479 C108.300736,10.7869632 107.979369,12.613581 107.658002,13.6880621 C107.55088,13.9029583 107.658002,14.2253026 107.658002,14.7625431 C107.765124,15.2997837 107.872247,15.7295761 107.872247,15.8370242 C108.836348,15.8370242 109.479083,15.622128 109.693327,15.0848875 C110.228939,14.1178545 110.764551,12.3986848 111.407286,9.9273783 C111.514408,9.39013776 112.157142,8.63800101 113.335489,7.77841615 C114.513835,6.91883129 115.477936,6.48903886 116.334915,6.48903886 L124.047728,6.48903886 C124.476217,10.3571707 124.690462,12.5061329 124.690462,12.8284772 C125.226074,14.5476469 125.761686,15.8370242 126.083053,16.8040572 C125.975931,17.0189534 125.868808,17.1264015 125.761686,17.1264015 L124.690462,17.1264015 L124.690462,32.0616884 C124.476217,36.2521646 124.369095,40.2277446 124.261972,44.0958765 C124.047728,46.2448386 123.833483,47.5342159 123.72636,47.8565602 C123.083626,48.9310413 122.012402,49.8980743 120.512689,50.650211 C118.79873,51.2948997 117.620384,51.617244 116.763405,51.8321402 L116.763405,52.4768288 C116.763405,52.7991732 116.870527,53.0140694 117.084772,53.0140694 L140.651698,53.0140694 C141.294432,52.2619326 141.6158,51.617244 141.6158,51.1874516 C140.330331,50.8651072 139.044862,50.650211 137.759393,50.3278667 C136.152558,49.8980743 135.295579,49.0384894 134.974211,47.641664 C134.438599,44.7405651 133.902987,42.591603 133.688743,41.1947776 C133.58162,38.5085749 133.688743,36.5745089 133.795865,35.1776835 C133.474498,31.3095517 133.260253,29.3754857 133.260253,29.4829339 C133.795865,23.5732879 133.902987,18.9530193 133.58162,15.622128 C133.260253,12.2912367 133.260253,9.71248208 133.688743,7.88586426 C133.902987,7.24117561 134.331477,6.70393507 135.081334,6.48903886 C137.223782,6.05924643 138.830617,5.84435022 140.008964,5.73690211 C142.258534,5.19966157 143.758247,5.19966157 144.293859,5.629454 C145.68645,6.59648697 146.543429,7.88586426 146.757674,9.71248208 C147.186164,12.8284772 147.400409,14.4401988 147.400409,14.655095 C147.507531,14.655095 147.828898,14.655095 148.150265,14.5476469 C148.471632,14.4401988 148.793,14.4401988 148.900122,14.4401988 L148.900122,4.76986914 C149.114367,3.26559564 149.328612,2.08366645 149.435734,1.00918538 C149.114367,0.57939295 148.578755,0.364496736 147.721776,0.471944843 L147.721776,0.471944843 Z M102.516127,1.00918538 C102.409005,1.00918538 102.19476,1.00918538 101.873393,0.901737273 L101.230659,0.901737273 C98.6597211,1.11663349 96.8386405,1.11663349 95.7674166,1.00918538 C95.2318047,1.00918538 94.6961927,1.11663349 94.3748256,1.11663349 C92.4466225,0.686841058 90.5184195,0.686841058 88.4830941,0.901737273 C87.5189926,1.00918538 87.090503,1.11663349 87.1976254,1.11663349 C87.1976254,1.54642592 87.3047478,1.86877024 87.4118702,2.19111456 C88.2688493,2.40601078 88.8044613,2.51345888 89.1258284,2.51345888 C90.9469091,3.05069942 92.018133,3.69538807 92.2323778,4.55497293 C92.8751121,6.70393507 93.3036017,8.63800101 93.5178464,10.2497226 L93.410724,29.9127263 C93.6249688,32.3840328 93.6249688,34.3180987 93.410724,35.8223722 C93.0893569,37.9713343 92.8751121,39.9054003 92.6608673,41.4096738 C92.2323778,43.2362916 91.1611539,44.9554613 89.554318,46.5671829 C87.8403598,48.3938008 86.2335239,49.2533856 84.7338105,49.2533856 L79.1634462,49.2533856 C78.1993447,49.2533856 77.3423655,49.2533856 76.5925088,49.1459375 C75.7355297,49.0384894 74.7714282,48.608697 73.8073267,47.8565602 C73.05747,47.3193197 72.3076132,46.674631 71.5577565,46.1373905 C70.593655,45.0629094 69.9509206,44.2033246 69.5224311,43.666084 C68.8796967,42.8064992 68.4512072,42.1618105 68.12984,41.62457 C68.2369624,41.1947776 68.2369624,40.7649851 68.12984,40.5500889 C67.9155952,40.0128484 67.7013505,39.583056 67.5942281,39.2607116 L67.5942281,37.7564381 C67.4871057,35.9298203 67.3799833,34.9627873 67.3799833,34.9627873 C67.1657385,34.5329949 67.0586161,34.2106506 66.8443713,33.9957544 C66.5230042,31.9542403 66.4158818,30.664863 66.5230042,30.0201744 C66.7372489,28.0861085 66.8443713,27.1190755 66.8443713,26.9041793 C66.7372489,26.6892831 66.7372489,26.4743868 66.6301266,26.3669387 C66.8443713,24.3254247 66.8443713,23.0360474 66.8443713,22.7137031 C66.6301266,20.3498447 66.4158818,19.2753636 66.4158818,19.597708 C66.6301266,17.8785382 66.7372489,16.6966091 66.6301266,16.2668166 C66.8443713,14.8699912 66.9514937,14.1178545 66.9514937,14.1178545 C66.7372489,13.1508215 66.5230042,12.613581 66.5230042,12.7210291 C67.1657385,9.81993019 67.8084728,7.0262794 68.3440848,4.55497293 C68.4512072,4.2326286 68.665452,3.91028428 69.2010639,3.48049185 C69.5224311,3.26559564 69.8437983,3.15814753 70.058043,3.05069942 C70.3794102,2.83580321 70.7007774,2.62090699 70.8078998,2.51345888 C72.521858,2.19111456 73.3788371,1.86877024 73.3788371,1.43897781 C73.3788371,1.2240816 73.2717147,1.00918538 73.05747,0.686841058 C70.3794102,0.901737273 68.4512072,0.901737273 67.0586161,0.901737273 C66.7372489,0.901737273 66.201637,1.00918538 65.4517803,1.11663349 C64.8090459,1.2240816 64.3805564,1.3315297 64.273434,1.3315297 L60.2027832,1.3315297 C57.417601,1.3315297 54.953786,1.11663349 52.8113382,0.794289165 C51.8472367,0.686841058 51.4187472,0.901737273 51.4187472,1.3315297 C51.4187472,1.43897781 51.4187472,1.65387402 51.5258696,1.76132213 C53.8825621,2.29856267 55.1680308,2.7283551 55.489398,2.94325131 C56.5606219,3.58793996 57.0962338,4.66242103 57.3104786,6.27414265 C57.8460906,13.4731658 58.2745801,18.8455712 58.4888249,22.4988069 L58.8101921,35.7149241 C59.0244369,42.6990511 61.5953742,47.641664 66.6301266,50.5427629 C67.3799833,50.9725553 67.9155952,51.2948997 68.2369624,51.2948997 C69.0939415,51.4023478 69.7366759,51.5097959 70.2722878,51.5097959 C71.7720013,52.0470364 72.8432252,52.584277 73.5930819,53.0140694 C74.7714282,53.2289656 75.7355297,53.3364137 76.378264,53.3364137 C78.1993447,53.7662061 78.842079,53.8736542 78.5207118,53.8736542 L81.6272611,53.8736542 C81.6272611,53.8736542 81.8415059,53.9811024 82.1628731,54.0885505 C82.4842403,54.1959986 82.698485,54.3034467 82.8056074,54.1959986 C83.6625866,53.7662061 84.1981985,53.5513099 84.6266881,53.2289656 C86.5548911,52.6917251 87.7332374,52.584277 88.1617269,52.9066213 C89.554318,51.9395883 91.0540315,50.8651072 92.4466225,49.8980743 C94.2677032,48.608697 95.4460495,47.5342159 96.0887838,46.674631 C96.6243957,45.9224943 97.2671301,44.633117 98.1241092,42.9139473 C98.8739659,41.1947776 99.4095779,39.7979522 99.5167003,38.9383673 C99.9451898,36.0372684 100.159435,33.8883063 100.266557,32.3840328 C100.159435,32.9212733 100.159435,31.8467922 100.159435,29.1605895 C100.159435,29.0531414 100.159435,28.9456933 100.266557,28.8382452 C100.373679,28.7307971 100.373679,28.623349 100.373679,28.5159009 C100.373679,24.9701133 100.266557,22.0690144 100.052312,19.8126042 C99.9451898,19.2753636 99.9451898,18.8455712 100.052312,18.7381231 C100.052312,18.630675 100.159435,18.4157788 100.266557,18.0934345 C100.373679,17.7710901 100.373679,17.5561939 100.373679,17.4487458 L100.373679,14.2253026 C100.373679,14.2253026 100.159435,12.9359253 99.8380674,10.3571707 C99.730945,9.9273783 99.8380674,8.96034533 99.9451898,7.45607183 C100.052312,7.1337275 100.159435,6.91883129 100.266557,6.81138318 C100.480802,5.19966157 101.016414,4.01773239 101.873393,3.15814753 C102.62325,2.83580321 103.265984,2.62090699 103.694473,2.7283551 C104.765697,2.40601078 105.515554,2.29856267 106.051166,2.19111456 C106.372533,2.08366645 106.586778,1.54642592 106.586778,0.57939295 C104.122963,0.794289165 102.837494,1.00918538 102.516127,1.00918538 L102.516127,1.00918538 Z M52.9184606,51.1874516 C52.2757263,51.1874516 51.7401143,51.0800035 51.4187472,51.0800035 C50.0261561,50.5427629 49.0620546,50.1129705 48.4193203,49.7906262 C48.0979531,49.5757299 47.9908307,49.3608337 47.8837083,49.2533856 C46.0626277,47.7491121 44.6700366,46.4597348 43.7059351,45.3852538 C41.2421201,43.3437397 39.9566515,42.2692586 39.7424067,42.0543624 C39.2067947,41.4096738 38.8854276,40.8724332 38.5640604,40.4426408 C37.921326,40.0128484 37.3857141,39.7979522 36.9572245,39.583056 C36.3144902,39.1532635 35.7788782,38.616023 35.2432663,38.0787824 C33.7435528,36.3596127 32.5652065,35.2851317 31.9224722,34.7478911 C31.0654931,34.2106506 30.4227587,33.7808582 29.9942692,33.5659619 C28.0660662,31.7393441 26.6734751,30.4499668 25.7093736,29.4829339 C25.4951288,29.1605895 25.4951288,28.9456933 25.3880064,28.8382452 C23.9954154,27.4414198 22.7099467,26.0445944 21.3173556,24.8626652 C20.888866,24.5403209 20.5674989,24.4328728 20.3532541,24.3254247 C21.3173556,23.3583917 21.9600899,22.606255 22.4957019,22.0690144 C23.1384362,21.2094296 23.5669258,20.5647409 23.888293,20.1349485 C26.7805975,17.1264015 28.4945557,15.4072318 29.0301677,14.9774393 C29.3515348,14.7625431 29.672902,14.655095 29.8871468,14.5476469 C33.4221857,10.7869632 36.1002454,7.88586426 38.0284484,5.73690211 C38.456938,5.52200589 38.6711828,5.30710968 38.8854276,5.19966157 C40.0637738,4.1251805 40.920753,3.37304374 41.3492425,2.94325131 C42.9560784,2.08366645 44.5629142,1.76132213 46.3839949,1.97621835 C46.4911172,1.43897781 46.5982396,0.794289165 46.5982396,0.257048628 C42.9560784,0.364496736 40.1708962,0.471944843 38.1355708,0.57939295 C38.1355708,0.57939295 37.5999589,0.471944843 36.528735,0.364496736 C36.1002454,0.364496736 35.6717559,0.471944843 35.4575111,0.57939295 C32.136717,0.257048628 29.8871468,0.257048628 28.6016781,0.57939295 C28.6016781,1.3315297 28.7088005,1.76132213 28.8159229,1.86877024 C29.5657796,1.97621835 30.208514,2.08366645 30.9583707,2.19111456 C31.8153498,2.29856267 32.5652065,2.7283551 33.1008185,3.37304374 C33.6364304,4.01773239 33.7435528,4.66242103 33.3150633,5.52200589 C32.7794513,6.59648697 32.2438394,7.45607183 31.8153498,8.10076047 C31.0654931,9.06779344 30.5298811,9.71248208 30.1013916,10.1422745 C28.8159229,11.646548 27.1019647,13.3657177 24.9595169,15.5146799 C24.4239049,15.9444723 23.9954154,16.2668166 23.6740482,16.4817129 C22.7099467,17.663642 20.7817437,19.597708 17.9965615,22.3913588 C17.2467048,23.2509436 16.6039704,23.8956323 16.1754809,24.4328728 C15.5327465,24.9701133 15.2113794,25.1850096 15.104257,25.2924577 C14.8900122,23.6807361 14.8900122,22.4988069 14.9971346,21.639222 C14.6757674,19.9200523 14.568645,19.0604674 14.568645,19.0604674 C14.6757674,17.9859864 14.6757674,17.1264015 14.7828898,16.4817129 C14.568645,15.9444723 14.568645,15.4072318 14.568645,14.9774393 C14.568645,14.8699912 14.6757674,14.7625431 14.7828898,14.5476469 C14.9971346,14.3327507 14.9971346,14.2253026 14.9971346,14.2253026 C14.9971346,13.9029583 14.8900122,13.3657177 14.6757674,12.8284772 C14.568645,12.2912367 14.4615226,11.9688923 14.4615226,11.8614442 C14.7828898,9.71248208 15.104257,8.10076047 15.3185018,7.0262794 C15.5327465,5.629454 15.6398689,4.87731725 15.7469913,4.76986914 C16.3897257,3.80283617 17.1395824,3.15814753 18.2108063,2.7283551 C19.0677854,2.51345888 19.8176421,2.40601078 20.6746213,2.19111456 L20.6746213,1.76132213 L20.6746213,1.43897781 C20.6746213,1.11663349 20.5674989,0.901737273 20.3532541,0.57939295 C19.6033974,0.686841058 17.568072,0.686841058 14.2472779,0.686841058 C13.8187883,0.686841058 13.3902987,0.686841058 12.8546868,0.794289165 C12.3190748,0.901737273 11.9977077,0.901737273 11.9977077,0.901737273 L8.67691359,0.901737273 L2.03532541,0.57939295 C0.85697912,0.471944843 0.21424478,0.901737273 0.21424478,1.65387402 C0.21424478,1.76132213 0.21424478,1.86877024 0.32136717,2.08366645 C2.24957019,2.29856267 3.64216126,2.62090699 4.39201799,3.05069942 C4.92762994,3.37304374 5.46324189,4.01773239 5.78460906,5.30710968 C6.10597623,6.27414265 6.21309862,7.0262794 6.21309862,7.77841615 L6.21309862,13.0433734 C6.21309862,13.1508215 6.10597623,13.3657177 5.99885384,13.580614 L5.99885384,13.7955102 L5.99885384,16.9115053 C6.4273434,17.4487458 6.53446579,18.0934345 6.4273434,18.630675 C5.99885384,20.5647409 5.99885384,22.0690144 6.32022101,23.2509436 C6.32022101,23.0360474 6.21309862,23.8956323 6.21309862,25.614802 L6.21309862,29.6978301 C6.21309862,30.2350706 6.32022101,30.664863 6.64158818,31.0946555 C6.96295535,31.4169998 7.07007774,31.631896 7.07007774,31.5244479 C6.4273434,32.4914809 6.10597623,33.1361695 5.99885384,33.4585138 C5.99885384,36.0372684 6.10597623,37.9713343 6.21309862,39.2607116 C5.99885384,41.8394662 5.89173145,43.666084 5.67748667,44.9554613 C5.46324189,46.7820792 5.24899711,47.9640083 5.03475233,48.3938008 C4.49914038,49.4682818 3.74928365,50.1129705 2.99942692,50.5427629 C2.67805975,50.7576591 2.03532541,50.8651072 1.17834629,50.9725553 C0.53561195,51.0800035 0.10712239,51.2948997 0,51.5097959 L0,51.8321402 C0,52.3693807 0.32136717,52.6917251 0.96410151,52.7991732 C1.49971346,52.9066213 2.03532541,52.9066213 2.57093736,52.7991732 L7.92705686,52.7991732 C7.81993447,52.7991732 8.46266881,52.6917251 9.85525988,52.584277 C11.1407286,52.4768288 11.9977077,52.3693807 12.640442,52.4768288 C12.8546868,52.4768288 13.2831764,52.584277 14.0330331,52.6917251 C14.6757674,52.7991732 15.104257,52.9066213 15.104257,52.9066213 L18.8535406,52.9066213 C20.1390093,52.6917251 20.9959884,52.6917251 21.5316004,52.584277 C21.7458452,52.4768288 21.7458452,52.0470364 21.7458452,51.2948997 C20.6746213,50.8651072 19.9247645,50.650211 19.2820302,50.5427629 C17.7823167,50.2204186 16.6039704,49.4682818 15.7469913,47.9640083 C15.6398689,47.2118716 15.5327465,46.5671829 15.5327465,46.1373905 C15.3185018,45.0629094 15.104257,44.3107727 14.9971346,43.7735321 C14.7828898,42.1618105 14.6757674,40.8724332 14.568645,40.0128484 C14.568645,38.1862306 14.6757674,36.7894052 14.6757674,35.8223722 C14.568645,34.2106506 14.4615226,32.9212733 14.3544003,32.1691365 C14.2472779,30.664863 14.3544003,29.8052782 14.6757674,29.590382 C15.5327465,30.2350706 16.2826033,30.664863 16.7110928,31.0946555 C17.4609496,31.7393441 18.1036839,32.1691365 18.5321735,32.4914809 C19.1749078,33.3510657 19.7105198,33.9957544 19.9247645,34.4255468 C20.5674989,34.8553392 21.1031108,35.0702354 21.5316004,35.1776835 C21.8529676,35.5000279 21.9600899,35.7149241 22.0672123,35.9298203 C22.6028243,36.2521646 23.1384362,36.4670608 23.4598034,36.6819571 C23.5669258,36.3596127 23.6740482,36.1447165 23.7811706,35.9298203 C23.4598034,35.8223722 23.352681,35.7149241 23.352681,35.5000279 C23.6740482,35.5000279 23.9954154,35.607476 24.3167825,36.0372684 C24.6381497,36.3596127 24.8523945,36.5745089 24.9595169,36.6819571 C26.0307408,37.0043014 26.6734751,37.4340938 26.9948423,37.9713343 C26.3521079,37.7564381 26.0307408,37.7564381 25.9236184,37.64899 L24.9595169,37.3266457 C24.9595169,37.3266457 24.7452721,37.4340938 24.3167825,37.5415419 C25.280884,38.4011268 26.1378631,39.0458154 26.8877199,39.4756078 C27.9589438,40.5500889 28.7088005,41.3022257 29.2444125,41.8394662 C31.8153498,43.9884284 33.8506752,45.8150462 35.2432663,47.2118716 C35.8860006,47.7491121 36.2073678,48.1789045 36.2073678,48.3938008 C36.9572245,49.1459375 37.4928365,49.6831781 37.921326,50.0055224 C38.0284484,50.2204186 38.0284484,50.3278667 38.0284484,50.4353148 C38.0284484,50.8651072 37.3857141,51.0800035 36.2073678,51.1874516 C35.8860006,51.617244 35.993123,52.1544845 36.3144902,52.6917251 L42.7418336,52.584277 L46.5982396,52.584277 L53.025583,52.6917251 C53.4540726,52.1544845 53.2398278,51.617244 52.9184606,51.1874516 L52.9184606,51.1874516 Z" id="Shape"></path>
                </g>
                <path d="M19.0962785,0.390888667 L7.63418278,0.390888667 C5.70597976,0.390888667 3.77777674,0.390888667 1.95669611,0.175992452 C1.42108416,0.0685443449 0.56410504,-0.253799977 0.349860261,0.390888667 C0.135615481,0.820681097 -0.0786292993,1.78771406 0.0284930907,2.21750649 C0.135615481,2.75474703 1.09971699,2.96964325 1.52820655,3.18453946 C2.27806328,3.50688378 3.02792001,3.82922811 3.56353196,4.47391675 C4.63475586,5.76329404 4.95612303,7.58991187 5.70597976,8.98673726 C6.56295888,10.5984589 6.45583649,12.3176286 6.67008127,14.0367983 C6.77720366,15.0038313 7.09857083,15.755968 7.31281561,16.6155529 C7.52706039,17.5825859 7.419938,18.5496188 7.419938,19.5166518 C7.419938,23.5996799 7.63418278,27.682708 7.419938,31.765736 C7.419938,32.732769 7.31281561,33.699802 7.52706039,34.6668349 C7.63418278,35.0966274 7.74130517,35.5264198 7.74130517,35.9562122 C7.74130517,36.3860047 7.52706039,36.8157971 7.419938,37.3530376 C7.09857083,39.2871036 7.419938,41.3286176 7.31281561,43.2626835 C7.31281561,44.2297165 7.419938,45.1967495 7.419938,46.1637824 C7.419938,46.4861268 7.20569322,46.9159192 7.20569322,47.3457116 C7.20569322,47.7755041 7.419938,48.0978484 7.52706039,48.5276408 C7.84842756,49.3872257 7.84842756,50.3542586 7.84842756,51.3212916 C7.84842756,52.1808765 7.95554995,53.1479094 7.84842756,54.0074943 C7.74130517,54.8670791 7.63418278,63.1405834 7.74130517,63.8927202 C7.84842756,64.752305 7.84842756,67.3310596 7.52706039,68.4055407 C6.77720366,70.769399 5.59885737,74.3151866 5.38461259,74.744979 C4.63475586,76.1418044 2.70655284,76.3567006 1.42108416,76.679045 C0.77834982,76.8939412 0.242737871,77.1088374 0.135615481,77.8609741 C0.0284930907,78.3982147 0.0284930907,79.1503514 0.456982651,79.4726957 C0.9925946,80.0099363 1.84957372,79.7950401 2.59943045,79.7950401 C3.56353196,79.7950401 4.52763347,79.687592 5.49173498,79.687592 C7.419938,79.687592 9.24101863,79.687592 11.1692216,79.3652476 C12.0262008,79.2577995 12.9903023,79.4726957 13.8472814,79.3652476 C14.8113829,79.2577995 15.668362,79.1503514 16.5253411,79.2577995 C18.4535442,79.4726957 20.2746248,79.3652476 22.2028278,79.4726957 C22.9526845,79.4726957 23.5954189,79.687592 23.9167861,78.8280071 C24.0239084,78.5056628 24.1310308,78.0758704 24.1310308,77.753526 C24.1310308,77.3237336 24.2381532,77.1088374 23.8096637,77.0013893 C22.3099502,76.679045 20.9173591,76.2492525 19.7390128,75.2822196 C18.5606666,74.3151866 17.9179322,72.8109131 17.596565,71.3066396 C16.7395859,67.760852 16.8467083,64.0001683 16.9538307,60.3469326 C17.0609531,58.3054186 16.9538307,56.2639045 17.0609531,54.1149424 C17.0609531,53.1479094 17.1680755,52.1808765 17.0609531,51.2138435 C16.9538307,50.2468105 16.8467083,49.4946738 17.0609531,48.5276408 C17.2751979,47.5606078 17.1680755,46.4861268 17.1680755,45.5190938 L17.1680755,42.4030987 L17.1680755,36.1711084 C17.1680755,31.9806323 17.1680755,27.8976042 17.2751979,23.707128 L17.2751979,17.5825859 C17.2751979,15.6485199 17.4894427,13.714454 17.8108098,11.7803881 C18.0250546,9.95377023 18.3464218,8.1271524 18.9891561,6.40798268 C19.3105233,5.65584593 19.6318905,4.90370918 20.06038,4.36646864 C20.595992,3.72178 21.4529711,3.50688378 22.2028278,3.18453946 C22.6313174,3.07709135 23.7025413,2.96964325 24.0239084,2.53985082 C24.2381532,2.3249546 24.2381532,1.78771406 24.3452756,1.46536974 C24.452398,1.03557731 24.5595204,0.498336775 24.5595204,0.0685443449 C22.4170726,-0.14635187 20.7031144,0.28344056 19.0962785,0.390888667" id="Shape" fill="#83CEE7"></path>
            </g>
        </g>
    </g>
</svg>