<?xml version="1.0" encoding="UTF-8" standalone="no"?>
<svg width="148px" height="148px" viewBox="0 0 148 148" version="1.1" xmlns="http://www.w3.org/2000/svg" xmlns:xlink="http://www.w3.org/1999/xlink">
    <!-- Generator: Sketch 41.1 (35376) - http://www.bohemiancoding.com/sketch -->
    <title>ikuta-logo-process copy</title>
    <desc>Created with Sketch.</desc>
    <defs></defs>
    <g id="Page-1" stroke="none" stroke-width="1" fill="none" fill-rule="evenodd">
        <g id="ikuta-logo-process-copy">
            <g id="Layer_1">
                <g id="Group" transform="translate(0.039634, 0.000000)">
                    <path d="M73.5901658,147.319092 C114.198211,147.319092 147.180332,114.305875 147.180332,73.6595458 C147.180332,33.0132161 114.198211,0 73.5901658,0 C32.9821209,0 0,33.0132161 0,73.6595458 C1.08370897e-13,114.496703 32.9821209,147.319092 73.5901658,147.319092" id="Shape" fill="#63B1CB"></path>
                    <path d="M73.2987786,140.724454 C110.475158,140.724454 140.597557,110.573656 140.597557,73.3622271 C140.597557,36.1507985 110.475158,6 73.2987786,6 C36.1223995,6 6,36.1507985 6,73.3622271 C6,110.573656 36.1223995,140.724454 73.2987786,140.724454" id="Shape" fill="#005B70"></path>
                    <ellipse id="Oval" stroke="#B6AF12" stroke-width="2.691" cx="73.2987786" cy="73.3622271" rx="67.2987786" ry="67.3622271"></ellipse>
                    <path d="M107.924702,83.2942125 C118.410348,84.2483516 117.266459,81.9584176 112.881553,78.3326886 C108.687295,74.5161319 104.683685,77.951033 101.061371,78.9051722 C99.7268343,79.2868278 90.3850775,80.240967 79.1368397,81.1951062 L79.1368397,81.0042784 C79.3274878,77.3785495 76.4677663,75.6610989 69.4137867,74.8977875 C71.1296196,74.5161319 72.6548044,74.1344762 73.989341,73.7528205 C83.1404497,70.8904029 86.3814674,67.6463297 87.1440598,66.119707 C87.525356,65.5472234 87.1440598,64.5930842 86.1908193,63.2572894 C91.7196142,61.7306667 100.489427,58.2957656 103.921092,49.517685 C104.683685,47.4185788 100.680075,45.5103004 95.341928,43.7928498 C99.15489,43.602022 103.539796,43.4111941 107.16211,43.4111941 C113.072201,43.4111941 111.356368,41.6937436 109.259239,39.976293 C107.16211,38.2588425 105.255629,38.0680147 103.539796,39.2129817 C102.20526,40.1671209 94.7699837,41.1212601 90.1944294,41.5029158 C91.7196142,39.4038095 92.2915584,37.8771868 92.1009103,36.7322198 C91.5289661,34.2514579 86.7627636,29.8624176 76.4677663,27 C76.4677663,27 77.802303,29.0991062 77.6116549,31.1982125 C77.2303587,34.6331136 75.895822,42.8387106 65.6008247,56.0058315 C65.4101766,55.433348 65.0288804,54.8608645 64.4569362,54.288381 C62.169159,51.9984469 60.262678,49.517685 58.7374932,48.1818901 C60.4533261,47.9910623 62.169159,47.8002344 64.2662881,47.6094066 C70.5576753,47.0369231 71.5109158,47.2277509 70.5576753,45.7011282 C69.6044348,44.3653333 67.8886019,42.6478828 66.5540652,43.9836777 C65.6008247,44.9378168 61.0252704,45.3194725 57.4029565,45.5103004 C59.8813818,42.0753993 61.2159185,39.4038095 61.2159185,38.6404982 C61.5972147,36.3505641 54.9245313,31.3890403 45.5827745,29.4807619 C45.5827745,29.4807619 47.4892554,31.3890403 47.6799035,32.7248352 C47.8705516,34.06063 48.0611997,47.0369231 33,63.4481172 C33,63.4481172 44.629534,60.204044 50.9209212,53.3342418 C52.0648098,51.9984469 53.2086984,50.662652 54.352587,49.517685 C54.352587,51.0443077 54.7338832,52.9525861 55.3058275,55.2425201 C56.449716,59.8223883 60.8346223,68.0279853 63.3130476,65.1655678 C65.0288804,63.2572894 66.3634171,60.3948718 65.9821209,57.7232821 C69.4137867,56.7691429 76.2771182,54.6700366 81.615265,49.8993407 C83.9030421,47.8002344 85.8095231,46.0827839 87.3347079,44.5561612 C88.6692446,44.3653333 90.1944294,44.1745055 91.7196142,44.1745055 C91.9102623,44.9378168 92.1009103,45.891956 91.9102623,46.6552674 C91.7196142,47.8002344 88.8598927,54.6700366 83.712394,61.349011 C81.615265,59.8223883 78.5648954,58.1049377 73.798693,56.3874872 C73.798693,56.3874872 74.3706372,57.5324542 73.798693,59.0590769 C72.6548044,61.9214945 65.4101766,69.3637802 45.0108302,79.096 C45.0108302,79.096 55.3058275,77.951033 64.4569362,76.2335824 C64.8382323,76.8060659 65.2195285,77.3785495 65.4101766,78.1418608 C65.4101766,78.7143443 65.6008247,80.4317949 65.0288804,82.9125568 C51.3022174,84.0575238 38.910091,85.011663 37.9568505,84.8208352 C36.0503696,84.6300073 33,82.9125568 33,82.9125568 C33.5719443,83.6758681 34.5251848,92.2631209 40.816572,89.9731868 C43.4856454,89.0190476 53.0180503,87.4924249 64.07564,86.3474579 C62.9317514,90.3548425 60.4533261,95.698022 56.0684198,102.376996 C49.5863845,112.109216 40.2446277,115.925773 40.2446277,115.925773 C40.2446277,115.925773 52.8274022,115.353289 61.2159185,108.483487 C68.07925,102.94948 72.6548044,97.0338168 75.5145258,91.6906374 C76.8490625,94.7438828 78.1835992,97.4154725 79.1368397,99.1329231 C82.3778574,105.430242 86.9534117,113.063355 94.0073913,114.780806 C96.4858166,115.353289 99.9174824,115.162462 102.967852,114.39915 C109.259239,112.6817 112.690905,110.582593 112.690905,110.582593 C112.690905,110.582593 108.115351,112.300044 104.874333,113.063355 C108.687295,111.536733 112.309609,109.437626 112.309609,109.437626 C112.309609,109.437626 101.061371,105.62107 94.0073913,101.613685 C89.431837,98.9420952 82.3778574,90.5456703 78.1835992,85.2024908 C90.5757256,83.2942125 102.014611,82.7217289 107.924702,83.2942125" id="Shape" fill="#E3F3F0"></path>
                </g>
            </g>
        </g>
    </g>
</svg>