<?xml version="1.0" encoding="utf-8"?>
<!-- Generator: Adobe Illustrator 21.0.0, SVG Export Plug-In . SVG Version: 6.00 Build 0)  -->
<svg version="1.1" id="Layer_1" xmlns="http://www.w3.org/2000/svg" xmlns:xlink="http://www.w3.org/1999/xlink" x="0px" y="0px"
	 viewBox="0 0 403.2 144" style="enable-background:new 0 0 403.2 144;" xml:space="preserve">
<style type="text/css">
	.Arched_x0020_Green{fill:url(#SVGID_1_);stroke:#FFFFFF;stroke-width:0.25;stroke-miterlimit:1;}
	.st0{fill:#63B1CB;}
	.st1{fill:#005B70;}
	.st2{fill:none;stroke:#B6AF12;stroke-width:2.691;}
	.st3{fill:#E3F3F0;}
</style>
<linearGradient id="SVGID_1_" gradientUnits="userSpaceOnUse" x1="0" y1="144" x2="0.7071" y2="143.2929">
	<stop  offset="0" style="stop-color:#20AC4B"/>
	<stop  offset="0.9831" style="stop-color:#19361A"/>
</linearGradient>
<g>
	<path class="st0" d="M310.4,103.2c21.3,0,38.6-17.3,38.6-38.6c0-21.3-17.3-38.6-38.6-38.6c-21.3,0-38.6,17.3-38.6,38.6
		C271.8,86,289.1,103.2,310.4,103.2"/>
	<path class="st1" d="M310.4,100c19.5,0,35.3-15.8,35.3-35.3c0-19.5-15.8-35.3-35.3-35.3c-19.5,0-35.3,15.8-35.3,35.3
		C275.1,84.2,290.9,100,310.4,100"/>
	<circle class="st2" cx="310.4" cy="64.7" r="35.3"/>
	<path class="st3" d="M328.5,70c5.5,0.5,4.9-0.7,2.6-2.6c-2.2-2-4.3-0.2-6.2,0.3c-0.7,0.2-5.6,0.7-11.5,1.2c0,0,0-0.1,0-0.1
		c0.1-1.9-1.4-2.8-5.1-3.2c0.9-0.2,1.7-0.4,2.4-0.6c4.8-1.5,6.5-3.2,6.9-4c0.2-0.3,0-0.8-0.5-1.5c2.9-0.8,7.5-2.6,9.3-7.2
		c0.4-1.1-1.7-2.1-4.5-3c2-0.1,4.3-0.2,6.2-0.2c3.1,0,2.2-0.9,1.1-1.8c-1.1-0.9-2.1-1-3-0.4c-0.7,0.5-4.6,1-7,1.2
		c0.8-1.1,1.1-1.9,1-2.5c-0.3-1.3-2.8-3.6-8.2-5.1c0,0,0.7,1.1,0.6,2.2c-0.2,1.8-0.9,6.1-6.3,13c-0.1-0.3-0.3-0.6-0.6-0.9
		c-1.2-1.2-2.2-2.5-3-3.2c0.9-0.1,1.8-0.2,2.9-0.3c3.3-0.3,3.8-0.2,3.3-1c-0.5-0.7-1.4-1.6-2.1-0.9c-0.5,0.5-2.9,0.7-4.8,0.8
		c1.3-1.8,2-3.2,2-3.6c0.2-1.2-3.3-3.8-8.2-4.8c0,0,1,1,1.1,1.7c0.1,0.7,0.2,7.5-7.7,16.1c0,0,6.1-1.7,9.4-5.3
		c0.6-0.7,1.2-1.4,1.8-2c0,0.8,0.2,1.8,0.5,3c0.6,2.4,2.9,6.7,4.2,5.2c0.9-1,1.6-2.5,1.4-3.9c1.8-0.5,5.4-1.6,8.2-4.1
		c1.2-1.1,2.2-2,3-2.8c0.7-0.1,1.5-0.2,2.3-0.2c0.1,0.4,0.2,0.9,0.1,1.3c-0.1,0.6-1.6,4.2-4.3,7.7c-1.1-0.8-2.7-1.7-5.2-2.6
		c0,0,0.3,0.6,0,1.4c-0.6,1.5-4.4,5.4-15.1,10.5c0,0,5.4-0.6,10.2-1.5c0.2,0.3,0.4,0.6,0.5,1c0,0.3,0.1,1.2-0.2,2.5
		c-7.2,0.6-13.7,1.1-14.2,1c-1-0.1-2.6-1-2.6-1c0.3,0.4,0.8,4.9,4.1,3.7c1.4-0.5,6.4-1.3,12.2-1.9c-0.6,2.1-1.9,4.9-4.2,8.4
		c-3.4,5.1-8.3,7.1-8.3,7.1s6.6-0.3,11-3.9c3.6-2.9,6-6,7.5-8.8c0.7,1.6,1.4,3,1.9,3.9c1.7,3.3,4.1,7.3,7.8,8.2
		c1.3,0.3,3.1,0.2,4.7-0.2c3.3-0.9,5.1-2,5.1-2s-2.4,0.9-4.1,1.3c2-0.8,3.9-1.9,3.9-1.9s-5.9-2-9.6-4.1c-2.4-1.4-6.1-5.8-8.3-8.6
		C319.4,70,325.4,69.7,328.5,70"/>
	<path class="st0" d="M236.4,61.8c0-0.7,0-0.9-0.1-0.7c0.2-0.4,0.4-0.6,0.5-0.9c0.3-1.1,0.5-1.9,0.6-2.5c0.2-0.5,0.4-0.8,0.6-1.1
		c0.1-0.7,0.2-1.3,0.2-1.7c0.3-0.7,0.5-1.2,0.7-1.6c0.2-0.8,0.3-1.4,0.4-1.8c0.2-0.3,0.4-0.6,0.5-0.7c1.1-2.2,2.2-4.3,3.1-6.4
		c0.4,1,0.7,1.8,0.8,2.3c0.5,1.2,0.9,2.1,1.2,2.7c0.6,2,1.1,3.6,1.4,4.6c1.9,5.1,2.8,7.7,2.8,7.7H236.4z M269.2,81.1
		c-0.8-0.3-1.3-0.5-1.7-0.6c-1.3-0.5-2.1-0.9-2.2-1.2c-0.6-1.2-1.1-2-1.3-2.4c-0.8-1.9-1.3-3.4-1.7-4.5c-0.1-0.4-0.1-0.6-0.1-0.9
		c-0.5-0.9-0.9-1.5-1.2-1.9c-0.8-1.9-1.4-3.2-1.7-3.9c-0.1-0.4-0.2-0.8-0.2-1c-0.4-1.3-0.7-2.4-0.7-3.1c-1.1-3.2-2-5.7-2.5-7.4
		c-0.8-1.8-1.4-3.2-1.8-4.1c-0.3-1.2-0.4-1.8-0.3-2c-0.7-1-1.2-2.2-1.6-3.4c-0.2-1-0.4-1.7-0.4-2.2c-1.7-4.2-2.9-7.3-3.6-9.3
		c-2-0.2-3.6-0.2-4.6-0.3c-1.1-0.1-1.7,0-1.8,0.2c-0.3,0.6-0.5,1.1-0.6,1.4c-0.7,1.6-1.1,2.7-1.4,3.5c-0.3,0.9-0.5,1.6-0.6,2
		c-0.9,2-1.5,3.5-1.7,4.5c-0.7,2.1-1.3,3.7-1.7,4.8c-0.1,0.5-0.1,0.8-0.1,1.1c0.1-0.4,0.2-0.6,0.3-0.7c0,0,0,0,0,0.1
		c0,0.4-0.1,1.2-0.4,2.2c-0.3,1.1-0.5,1.7-0.7,1.7c-0.1,0-0.2-0.2-0.3-0.6c-0.2,0.2-0.3,0.4-0.4,0.5c-1.1,3.5-2,6.2-2.6,7.9
		c-0.8,2.4-1.5,4.2-2,5.4c-0.8,2.5-1.4,4.4-1.7,5.6c-0.9,2-1.6,3.5-2,4.4c-0.4,0.9-1,1.6-1.6,2c-0.7,0.6-1.1,1.1-1.4,1.5
		c-0.8,0.6-1.2,1-1.2,1.3c0,0.1,0,0.2,0.1,0.3c1.8,0.2,2.8,0.3,2.8,0.3c1.2-0.2,2.2-0.3,2.8-0.5c2.8,0,5,0.1,6.5,0.2
		c1-0.2,1.7-0.3,2.2-0.5c-0.1-0.2-0.3-0.5-0.5-0.9c-0.3-0.1-0.5-0.1-0.6-0.2c-0.5-0.2-1.1-0.6-1.8-1.1c-0.7-0.6-1.1-1-1.2-1.2
		c-0.2-0.4-0.2-1.3,0-2.5c0.3-1.7,0.4-2.5,0.4-2.3c0-0.3,0.3-1.4,0.9-3.2c0.5-1.1,0.8-1.9,1.1-2.5c0.5-1.1,1.1-1.6,1.7-1.6l8.2-0.1
		c3.8-0.2,5.9-0.3,6.4-0.3c0.3,0,0.5,0.1,0.5,0.2c0,0.5,0.2,1.3,0.6,2.4c0.5,1.3,0.8,2,0.9,2.2c0.7,3,1.2,5.2,1.5,6.7
		c0.1,0.3,0.1,0.7-0.1,1.3c-0.2,0.5-0.5,0.9-0.9,1.2c-0.9,0.3-1.7,0.5-2.2,0.5c-0.1,0.5-0.2,1.2-0.1,2c0.4,0.4,1.2,0.6,2.3,0.3
		c2.1-0.4,5-0.6,8.8-0.6h3.1c-0.1,0,0.6,0.1,2.1,0.2c0.9,0.1,1.6,0,2.1-0.2V81.1z M223.5,33.3c-0.6,0.1-1.2,0.2-1.8,0.2
		c-1.6,0.1-3.2,0.2-4.9,0.5c-1.6,0.3-2.3,0.4-2.3,0.4h-6.4c0.1,0-1.4-0.1-4.7-0.4c-3.3-0.3-5.7-0.4-7.3-0.4c-5.5,0-7.9,0-7.1,0.1
		l-1.2,1.6c-0.2,0.9-0.4,2.7-0.8,5.4c-0.3,2.2-0.6,3.9-0.9,4.9c-0.1,0.2,0,0.5,0,1c0.1,0.5,0.2,0.9,0.2,1c0.9,0,1.5-0.2,1.7-0.7
		c0.5-0.9,1-2.5,1.6-4.8c0.1-0.5,0.7-1.2,1.8-2c1.1-0.8,2-1.2,2.8-1.2h7.2c0.4,3.6,0.6,5.6,0.6,5.9c0.5,1.6,1,2.8,1.3,3.7
		c-0.1,0.2-0.2,0.3-0.3,0.3h-1v13.9c-0.2,3.9-0.3,7.6-0.4,11.2c-0.2,2-0.4,3.2-0.5,3.5c-0.6,1-1.6,1.9-3,2.6
		c-1.6,0.6-2.7,0.9-3.5,1.1c0,0.3,0,0.5,0,0.6c0,0.3,0.1,0.5,0.3,0.5h22c0.6-0.7,0.9-1.3,0.9-1.7c-1.2-0.3-2.4-0.5-3.6-0.8
		c-1.5-0.4-2.3-1.2-2.6-2.5c-0.5-2.7-1-4.7-1.2-6c-0.1-2.5,0-4.3,0.1-5.6c-0.3-3.6-0.5-5.4-0.5-5.3c0.5-5.5,0.6-9.8,0.3-12.9
		c-0.3-3.1-0.3-5.5,0.1-7.2c0.2-0.6,0.6-1.1,1.3-1.3c2-0.4,3.5-0.6,4.6-0.7c2.1-0.5,3.5-0.5,4-0.1c1.3,0.9,2.1,2.1,2.3,3.8
		c0.4,2.9,0.6,4.4,0.6,4.6c0.1,0,0.4,0,0.7-0.1c0.3-0.1,0.6-0.1,0.7-0.1v-9c0.2-1.4,0.4-2.5,0.5-3.5
		C224.8,33.4,224.3,33.2,223.5,33.3 M181.3,33.8c-0.1,0-0.3,0-0.6-0.1c-0.3,0-0.5,0-0.6,0c-2.4,0.2-4.1,0.2-5.1,0.1
		c-0.5,0-1,0.1-1.3,0.1c-1.8-0.4-3.6-0.4-5.5-0.2c-0.9,0.1-1.3,0.2-1.2,0.2c0,0.4,0.1,0.7,0.2,1c0.8,0.2,1.3,0.3,1.6,0.3
		c1.7,0.5,2.7,1.1,2.9,1.9c0.6,2,1,3.8,1.2,5.3l-0.1,18.3c0.2,2.3,0.2,4.1,0,5.5c-0.3,2-0.5,3.8-0.7,5.2c-0.4,1.7-1.4,3.3-2.9,4.8
		c-1.6,1.7-3.1,2.5-4.5,2.5h-5.2c-0.9,0-1.7,0-2.4-0.1c-0.8-0.1-1.7-0.5-2.6-1.2c-0.7-0.5-1.4-1.1-2.1-1.6c-0.9-1-1.5-1.8-1.9-2.3
		c-0.6-0.8-1-1.4-1.3-1.9c0.1-0.4,0.1-0.8,0-1c-0.2-0.5-0.4-0.9-0.5-1.2c0-0.6,0-1.1,0-1.4c-0.1-1.7-0.2-2.6-0.2-2.6
		c-0.2-0.4-0.3-0.7-0.5-0.9c-0.3-1.9-0.4-3.1-0.3-3.7c0.2-1.8,0.3-2.7,0.3-2.9c-0.1-0.2-0.1-0.4-0.2-0.5c0.2-1.9,0.2-3.1,0.2-3.4
		c-0.2-2.2-0.4-3.2-0.4-2.9c0.2-1.6,0.3-2.7,0.2-3.1c0.2-1.3,0.3-2,0.3-2c-0.2-0.9-0.4-1.4-0.4-1.3c0.6-2.7,1.2-5.3,1.7-7.6
		c0.1-0.3,0.3-0.6,0.8-1c0.3-0.2,0.6-0.3,0.8-0.4c0.3-0.2,0.6-0.4,0.7-0.5c1.6-0.3,2.4-0.6,2.4-1c0-0.2-0.1-0.4-0.3-0.7
		c-2.5,0.2-4.3,0.2-5.6,0.2c-0.3,0-0.8,0.1-1.5,0.2c-0.6,0.1-1,0.2-1.1,0.2h-3.8c-2.6,0-4.9-0.2-6.9-0.5c-0.9-0.1-1.3,0.1-1.3,0.5
		c0,0.1,0,0.3,0.1,0.4c2.2,0.5,3.4,0.9,3.7,1.1c1,0.6,1.5,1.6,1.7,3.1c0.5,6.7,0.9,11.7,1.1,15.1l0.3,12.3
		c0.2,6.5,2.6,11.1,7.3,13.8c0.7,0.4,1.2,0.7,1.5,0.7c0.8,0.1,1.4,0.2,1.9,0.2c1.4,0.5,2.4,1,3.1,1.4c1.1,0.2,2,0.3,2.6,0.3
		c1.7,0.4,2.3,0.5,2,0.5h2.9c0,0,0.2,0.1,0.5,0.2c0.3,0.1,0.5,0.2,0.6,0.1c0.8-0.4,1.3-0.6,1.7-0.9c1.8-0.5,2.9-0.6,3.3-0.3
		c1.3-0.9,2.7-1.9,4-2.8c1.7-1.2,2.8-2.2,3.4-3c0.5-0.7,1.1-1.9,1.9-3.5c0.7-1.6,1.2-2.9,1.3-3.7c0.4-2.7,0.6-4.7,0.7-6.1
		c-0.1,0.5-0.1-0.5-0.1-3c0-0.1,0-0.2,0.1-0.3c0.1-0.1,0.1-0.2,0.1-0.3c0-3.3-0.1-6-0.3-8.1c-0.1-0.5-0.1-0.9,0-1
		c0-0.1,0.1-0.3,0.2-0.6c0.1-0.3,0.1-0.5,0.1-0.6v-3c0,0-0.2-1.2-0.5-3.6c-0.1-0.4,0-1.3,0.1-2.7c0.1-0.3,0.2-0.5,0.3-0.6
		c0.2-1.5,0.7-2.6,1.5-3.4c0.7-0.3,1.3-0.5,1.7-0.4c1-0.3,1.7-0.4,2.2-0.5c0.3-0.1,0.5-0.6,0.5-1.5
		C182.8,33.6,181.6,33.8,181.3,33.8 M135,80.5c-0.6,0-1.1-0.1-1.4-0.1c-1.3-0.5-2.2-0.9-2.8-1.2c-0.3-0.2-0.4-0.4-0.5-0.5
		c-1.7-1.4-3-2.6-3.9-3.6c-2.3-1.9-3.5-2.9-3.7-3.1c-0.5-0.6-0.8-1.1-1.1-1.5c-0.6-0.4-1.1-0.6-1.5-0.8c-0.6-0.4-1.1-0.9-1.6-1.4
		c-1.4-1.6-2.5-2.6-3.1-3.1c-0.8-0.5-1.4-0.9-1.8-1.1c-1.8-1.7-3.1-2.9-4-3.8c-0.2-0.3-0.2-0.5-0.3-0.6c-1.3-1.3-2.5-2.6-3.8-3.7
		c-0.4-0.3-0.7-0.4-0.9-0.5c0.9-0.9,1.5-1.6,2-2.1c0.6-0.8,1-1.4,1.3-1.8c2.7-2.8,4.3-4.4,4.8-4.8c0.3-0.2,0.6-0.3,0.8-0.4
		c3.3-3.5,5.8-6.2,7.6-8.2c0.4-0.2,0.6-0.4,0.8-0.5c1.1-1,1.9-1.7,2.3-2.1c1.5-0.8,3-1.1,4.7-0.9c0.1-0.5,0.2-1.1,0.2-1.6
		c-3.4,0.1-6,0.2-7.9,0.3c0,0-0.5-0.1-1.5-0.2c-0.4,0-0.8,0.1-1,0.2c-3.1-0.3-5.2-0.3-6.4,0c0,0.7,0.1,1.1,0.2,1.2
		c0.7,0.1,1.3,0.2,2,0.3c0.8,0.1,1.5,0.5,2,1.1c0.5,0.6,0.6,1.2,0.2,2c-0.5,1-1,1.8-1.4,2.4c-0.7,0.9-1.2,1.5-1.6,1.9
		c-1.2,1.4-2.8,3-4.8,5c-0.5,0.4-0.9,0.7-1.2,0.9c-0.9,1.1-2.7,2.9-5.3,5.5c-0.7,0.8-1.3,1.4-1.7,1.9c-0.6,0.5-0.9,0.7-1,0.8
		c-0.2-1.5-0.2-2.6-0.1-3.4c-0.3-1.6-0.4-2.4-0.4-2.4c0.1-1,0.1-1.8,0.2-2.4c-0.2-0.5-0.2-1-0.2-1.4c0-0.1,0.1-0.2,0.2-0.4
		c0.2-0.2,0.2-0.3,0.2-0.3c0-0.3-0.1-0.8-0.3-1.3c-0.1-0.5-0.2-0.8-0.2-0.9c0.3-2,0.6-3.5,0.8-4.5c0.2-1.3,0.3-2,0.4-2.1
		c0.6-0.9,1.3-1.5,2.3-1.9c0.8-0.2,1.5-0.3,2.3-0.5v-0.4c0-0.2,0-0.3,0-0.3c0-0.3-0.1-0.5-0.3-0.8c-0.7,0.1-2.6,0.1-5.7,0.1
		c-0.4,0-0.8,0-1.3,0.1c-0.5,0.1-0.8,0.1-0.8,0.1h-3.1l-6.2-0.3c-1.1-0.1-1.7,0.3-1.7,1c0,0.1,0,0.2,0.1,0.4
		c1.8,0.2,3.1,0.5,3.8,0.9c0.5,0.3,1,0.9,1.3,2.1c0.3,0.9,0.4,1.6,0.4,2.3V45c0,0.1-0.1,0.3-0.2,0.5v0.2v2.9
		c0.4,0.5,0.5,1.1,0.4,1.6c-0.4,1.8-0.4,3.2-0.1,4.3c0-0.2-0.1,0.6-0.1,2.2v3.8c0,0.5,0.1,0.9,0.4,1.3c0.3,0.3,0.4,0.5,0.4,0.4
		c-0.6,0.9-0.9,1.5-1,1.8c0,2.4,0.1,4.2,0.2,5.4c-0.2,2.4-0.3,4.1-0.5,5.3c-0.2,1.7-0.4,2.8-0.6,3.2c-0.5,1-1.2,1.6-1.9,2
		c-0.3,0.2-0.9,0.3-1.7,0.4c-0.6,0.1-1,0.3-1.1,0.5c0,0.1,0,0.2,0,0.3c0,0.5,0.3,0.8,0.9,0.9c0.5,0.1,1,0.1,1.5,0h5
		c-0.1,0,0.5-0.1,1.8-0.2c1.2-0.1,2-0.2,2.6-0.1c0.2,0,0.6,0.1,1.3,0.2c0.6,0.1,1,0.2,1,0.2h3.5c1.2-0.2,2-0.2,2.5-0.3
		c0.2-0.1,0.2-0.5,0.2-1.2c-1-0.4-1.7-0.6-2.3-0.7c-1.4-0.3-2.5-1-3.3-2.4c-0.1-0.7-0.2-1.3-0.2-1.7c-0.2-1-0.4-1.7-0.5-2.2
		c-0.2-1.5-0.3-2.7-0.4-3.5c0-1.7,0.1-3,0.1-3.9c-0.1-1.5-0.2-2.7-0.3-3.4c-0.1-1.4,0-2.2,0.3-2.4c0.8,0.6,1.5,1,1.9,1.4
		c0.7,0.6,1.3,1,1.7,1.3c0.6,0.8,1.1,1.4,1.3,1.8c0.6,0.4,1.1,0.6,1.5,0.7c0.3,0.3,0.4,0.5,0.5,0.7c0.5,0.3,1,0.5,1.3,0.7
		c0.1-0.3,0.2-0.5,0.3-0.7c-0.3-0.1-0.4-0.2-0.4-0.4c0.3,0,0.6,0.1,0.9,0.5c0.3,0.3,0.5,0.5,0.6,0.6c1,0.3,1.6,0.7,1.9,1.2
		c-0.6-0.2-0.9-0.2-1-0.3l-0.9-0.3c0,0-0.2,0.1-0.6,0.2c0.9,0.8,1.7,1.4,2.4,1.8c1,1,1.7,1.7,2.2,2.2c2.4,2,4.3,3.7,5.6,5
		c0.6,0.5,0.9,0.9,0.9,1.1c0.7,0.7,1.2,1.2,1.6,1.5c0.1,0.2,0.1,0.3,0.1,0.4c0,0.4-0.6,0.6-1.7,0.7c-0.3,0.4-0.2,0.9,0.1,1.4l6-0.1
		h3.6l6,0.1C135.5,81.4,135.3,80.9,135,80.5"/>
</g>
<g>
	<path class="st1" d="M89,101.6l0.2,0c0.5-0.1,0.9-0.1,1.2-0.6c0.2-0.4,0.2-1.2,0.2-1.6V93c0-1.2,0.1-2.1-1.3-2.2l-0.2,0v-0.5h5.2
		c1.7,0,3.7,0.1,5.1,1.2c1.5,1.1,2.3,3,2.3,4.9c0,1.8-0.8,3.6-2.2,4.7c-1.5,1.1-3.4,1.2-5.2,1.2H89V101.6z M92.3,99.7
		c0,0.4,0,1.1,0.4,1.4c0.3,0.3,1.4,0.3,1.8,0.3c3.3,0,5-2,5-5.3c0-1.4-0.3-2.9-1.3-3.9c-0.9-0.9-2.4-1.3-3.7-1.3
		c-0.5,0-1.6,0.1-1.9,0.5c-0.2,0.3-0.2,1-0.2,1.4V99.7z"/>
	<path class="st1" d="M105,97.1l0,0.9c0,0.8,0.3,1.8,0.8,2.4c0.5,0.7,1.4,1.1,2.2,1.1c1.2,0,2-0.6,2.6-1.6l0.6,0.3
		c-0.6,1.4-2.1,2.1-3.6,2.1c-1.2,0-2.2-0.3-3.1-1.1c-0.9-0.9-1.3-2.1-1.3-3.3c0-2.5,1.6-4.4,4.2-4.4c2.1,0,3.8,1.4,3.8,3.6H105z
		 M109.2,96.4c0-1.3-0.8-2.2-2-2.2c-1.2,0-2.1,1-2.2,2.2H109.2z"/>
	<path class="st1" d="M121.5,100c0,0.9,0.2,1.6,1.2,1.7h0.2v0.5h-4.7v-0.5h0.2c1.1-0.1,1.3-0.7,1.3-1.7v-3.6c0-0.5-0.1-0.9-0.3-1.3
		c-0.3-0.4-0.8-0.6-1.2-0.6c-1.2,0-2.3,0.7-3.1,1.4v4.1c0,1,0.2,1.6,1.3,1.7h0.2v0.5h-4.7v-0.5h0.2c1.2-0.1,1.4-0.6,1.4-1.7v-3.6
		c0-1-0.2-1.6-1.3-1.7h-0.3v-0.5l2.7-0.4h0.6v1.4c1.1-1,2.3-1.6,3.7-1.6c0.7,0,1.4,0.2,1.9,0.7c0.6,0.5,0.7,1.1,0.7,1.8V100z"/>
	<path class="st1" d="M129.1,94.2h-2.5v4.9c0,1,0,2.4,1.3,2.4c0.6,0,1.1-0.4,1.5-0.8l0.4,0.4c-0.6,0.8-1.5,1.1-2.5,1.1
		c-0.6,0-1.2-0.1-1.7-0.4c-0.7-0.5-0.8-1.1-0.8-1.9v-5.7h-1.5v-0.6c2-0.1,2.4-1.5,2.4-3.2h0.8v3.2h2.5V94.2z"/>
	<path class="st1" d="M140.1,101.7c-0.4,0.4-1.2,0.6-1.8,0.6c-0.9,0-1.6-0.4-1.9-1.3c-1,0.8-2,1.3-3.3,1.3c-1.2,0-2.7-0.7-2.7-2.1
		c0-1.2,0.7-1.8,1.7-2.2c0.9-0.4,1.9-0.6,2.9-0.7l1.3-0.1v-1.3c0-0.5-0.1-1-0.6-1.3c-0.5-0.3-1.1-0.4-1.6-0.4
		c-0.5,0-1.7,0.3-1.7,0.9v0.2c0,0.6-0.2,1.1-0.9,1.1c-0.4,0-0.8-0.3-0.8-0.8c0-0.7,0.8-1.4,1.4-1.6c0.7-0.3,1.7-0.5,2.5-0.5
		c0.7,0,1.7,0.2,2.3,0.6c0.9,0.5,1,1.2,1,2.2v3.4c0,0.7,0.1,1.8,1,1.8c0.3,0,0.5-0.1,0.7-0.3L140.1,101.7z M136.4,97.8
		c-1.3,0.1-4.2,0.5-4.2,2.2c0,0.9,0.8,1.4,1.6,1.4c0.9,0,1.9-0.6,2.6-1.2V97.8z"/>
	<path class="st1" d="M143.5,99.9c0,0.9,0.1,1.6,1.2,1.7l0.2,0v0.5h-4.6v-0.5h0.2c1.1-0.1,1.3-0.6,1.3-1.7v-7c0-1.2,0.1-2.1-1.3-2.2
		l-0.2,0v-0.5c0.9-0.1,1.7-0.2,2.5-0.6h0.7V99.9z"/>
	<path class="st1" d="M152.9,93c0-1.2,0.1-2.1-1.3-2.2l-0.3,0v-0.5h4.9v0.5h-0.2c-0.5,0-1,0.1-1.2,0.6c-0.2,0.4-0.2,1.2-0.2,1.6v2.4
		h6.3V93c0-1.2,0.1-2.1-1.3-2.2l-0.3,0v-0.5h4.9v0.5h-0.2c-0.5,0.1-1,0.1-1.2,0.6c-0.2,0.4-0.2,1.2-0.2,1.6v6.5
		c0,1.2-0.1,2.1,1.3,2.2l0.3,0v0.5h-4.9v-0.5h0.2c0.5,0,1-0.1,1.2-0.6c0.2-0.4,0.2-1.2,0.2-1.6v-3.3h-6.3v3.3c0,1.2-0.1,2.1,1.3,2.2
		l0.3,0v0.5h-4.9v-0.5h0.2c0.5-0.1,1-0.1,1.2-0.6c0.2-0.4,0.2-1.2,0.2-1.6V93z"/>
	<path class="st1" d="M167.3,97.1l0,0.9c0,0.8,0.3,1.8,0.8,2.4c0.5,0.7,1.4,1.1,2.2,1.1c1.2,0,2-0.6,2.6-1.6l0.6,0.3
		c-0.6,1.4-2.1,2.1-3.6,2.1c-1.2,0-2.2-0.3-3.1-1.1c-0.9-0.9-1.3-2.1-1.3-3.3c0-2.5,1.6-4.4,4.2-4.4c2.1,0,3.8,1.4,3.8,3.6H167.3z
		 M171.5,96.4c0-1.3-0.8-2.2-2-2.2c-1.2,0-2.1,1-2.2,2.2H171.5z"/>
	<path class="st1" d="M184.2,101.7c-0.4,0.4-1.2,0.6-1.8,0.6c-0.9,0-1.6-0.4-1.9-1.3c-1,0.8-2,1.3-3.3,1.3c-1.2,0-2.7-0.7-2.7-2.1
		c0-1.2,0.7-1.8,1.7-2.2c0.9-0.4,1.9-0.6,2.9-0.7l1.3-0.1v-1.3c0-0.5-0.1-1-0.6-1.3c-0.5-0.3-1.1-0.4-1.6-0.4
		c-0.5,0-1.7,0.3-1.7,0.9v0.2c0,0.6-0.2,1.1-0.9,1.1c-0.4,0-0.8-0.3-0.8-0.8c0-0.7,0.8-1.4,1.4-1.6c0.7-0.3,1.7-0.5,2.5-0.5
		c0.7,0,1.7,0.2,2.3,0.6c0.9,0.5,1,1.2,1,2.2v3.4c0,0.7,0.1,1.8,1,1.8c0.3,0,0.5-0.1,0.7-0.3L184.2,101.7z M180.5,97.8
		c-1.3,0.1-4.2,0.5-4.2,2.2c0,0.9,0.8,1.4,1.6,1.4c0.9,0,1.9-0.6,2.6-1.2V97.8z"/>
	<path class="st1" d="M187.6,99.9c0,0.9,0.1,1.6,1.2,1.7l0.2,0v0.5h-4.6v-0.5h0.2c1.1-0.1,1.3-0.6,1.3-1.7v-7c0-1.2,0.1-2.1-1.3-2.2
		l-0.2,0v-0.5c0.9-0.1,1.7-0.2,2.5-0.6h0.7V99.9z"/>
	<path class="st1" d="M195.3,94.2h-2.5v4.9c0,1,0,2.4,1.3,2.4c0.6,0,1.1-0.4,1.5-0.8l0.4,0.4c-0.6,0.8-1.5,1.1-2.5,1.1
		c-0.6,0-1.2-0.1-1.7-0.4c-0.7-0.5-0.8-1.1-0.8-1.9v-5.7h-1.5v-0.6c2-0.1,2.4-1.5,2.4-3.2h0.8v3.2h2.5V94.2z"/>
	<path class="st1" d="M205.8,99.9c0,1,0.1,1.6,1.2,1.7h0.2v0.5h-4.7v-0.5h0.2c1.2-0.1,1.4-0.6,1.4-1.7v-3.6c0-0.5,0-1-0.3-1.4
		c-0.3-0.3-0.8-0.5-1.2-0.5c-1,0-2.4,0.7-3.1,1.4v4.1c0,1,0.1,1.6,1.2,1.7h0.2v0.5h-4.7v-0.5h0.2c1.2-0.1,1.4-0.6,1.4-1.7v-7
		c0-1.2,0.1-2.1-1.3-2.2l-0.2,0v-0.5c0.9-0.1,1.7-0.2,2.5-0.6h0.7V95c1-0.9,2.2-1.5,3.6-1.5c0.6,0,1.4,0.2,2,0.6
		c0.7,0.5,0.7,1.3,0.7,2.1V99.9z"/>
	<path class="st1" d="M225,94.6h-0.6l-0.1-0.1c-0.4-0.8-0.9-1.8-1.5-2.5c-0.8-0.8-1.8-1.2-2.9-1.2c-1.3,0-2.4,0.6-3.1,1.7
		c-0.7,1.1-0.9,2.5-0.9,3.8c0,1.2,0.2,2.6,1,3.6c0.8,1,2,1.6,3.4,1.6c1.8,0,3.4-1.1,4.3-2.6l0.8,0.4c-1.2,2-3,3.1-5.4,3.1
		c-3.6,0-6.2-2.6-6.2-6.2c0-3.3,2.4-6.3,5.9-6.3c1.3,0,2.5,0.4,3.5,1.3l0.4-0.8h0.6L225,94.6z"/>
	<path class="st1" d="M228.5,97.1l0,0.9c0,0.8,0.3,1.8,0.8,2.4c0.5,0.7,1.4,1.1,2.2,1.1c1.2,0,2-0.6,2.6-1.6l0.6,0.3
		c-0.6,1.4-2.1,2.1-3.6,2.1c-1.2,0-2.2-0.3-3.1-1.1c-0.9-0.9-1.3-2.1-1.3-3.3c0-2.5,1.6-4.4,4.2-4.4c2.1,0,3.8,1.4,3.8,3.6H228.5z
		 M232.8,96.4c0-1.3-0.8-2.2-2-2.2c-1.2,0-2.1,1-2.2,2.2H232.8z"/>
	<path class="st1" d="M245,100c0,0.9,0.2,1.6,1.2,1.7h0.2v0.5h-4.7v-0.5h0.2c1.1-0.1,1.3-0.7,1.3-1.7v-3.6c0-0.5-0.1-0.9-0.3-1.3
		c-0.3-0.4-0.8-0.6-1.2-0.6c-1.2,0-2.3,0.7-3.1,1.4v4.1c0,1,0.2,1.6,1.3,1.7h0.2v0.5h-4.7v-0.5h0.2c1.2-0.1,1.4-0.6,1.4-1.7v-3.6
		c0-1-0.2-1.6-1.3-1.7h-0.3v-0.5l2.7-0.4h0.6v1.4c1-1,2.3-1.6,3.7-1.6c0.7,0,1.4,0.2,1.9,0.7c0.6,0.5,0.7,1.1,0.7,1.8V100z"/>
	<path class="st1" d="M252.7,94.2h-2.5v4.9c0,1,0,2.4,1.3,2.4c0.6,0,1.1-0.4,1.5-0.8l0.4,0.4c-0.6,0.8-1.5,1.1-2.5,1.1
		c-0.6,0-1.2-0.1-1.7-0.4c-0.7-0.5-0.8-1.1-0.8-1.9v-5.7H247v-0.6c2-0.1,2.4-1.5,2.4-3.2h0.8v3.2h2.5V94.2z"/>
	<path class="st1" d="M255.9,97.1l0,0.9c0,0.8,0.3,1.8,0.8,2.4c0.5,0.7,1.4,1.1,2.2,1.1c1.2,0,2-0.6,2.6-1.6l0.6,0.3
		c-0.6,1.4-2.1,2.1-3.6,2.1c-1.2,0-2.2-0.3-3.1-1.1c-0.9-0.9-1.3-2.1-1.3-3.3c0-2.5,1.6-4.4,4.2-4.4c2.1,0,3.8,1.4,3.8,3.6H255.9z
		 M260.1,96.4c0-1.3-0.8-2.2-2-2.2c-1.2,0-2.1,1-2.2,2.2H260.1z"/>
	<path class="st1" d="M266,99.9c0,1,0.2,1.6,1.3,1.7l0.3,0v0.5h-4.8v-0.5h0.2c1.2-0.1,1.3-0.6,1.3-1.7v-3.6c0-1-0.2-1.6-1.3-1.7
		h-0.3v-0.5l2.7-0.4h0.6V95c0.8-0.8,1.8-1.5,2.9-1.5c0.6,0,1.3,0.2,1.3,0.9c0,0.6-0.4,0.9-1,0.9c-0.8,0-1-0.6-1.6-0.6
		c-0.6,0-1.3,0.5-1.7,1V99.9z"/>
</g>
<g>
	<path class="st0" d="M79,30H68.3c-1.8,0-3.6,0-5.3-0.2c-0.5-0.1-1.3-0.4-1.5,0.2c-0.2,0.4-0.4,1.3-0.3,1.7c0.1,0.5,1,0.7,1.4,0.9
		c0.7,0.3,1.4,0.6,1.9,1.2c1,1.2,1.3,2.9,2,4.2c0.8,1.5,0.7,3.1,0.9,4.7c0.1,0.9,0.4,1.6,0.6,2.4c0.2,0.9,0.1,1.8,0.1,2.7
		c0,3.8,0.2,7.6,0,11.4c0,0.9-0.1,1.8,0.1,2.7c0.1,0.4,0.2,0.8,0.2,1.2c0,0.4-0.2,0.8-0.3,1.3c-0.3,1.8,0,3.7-0.1,5.5
		c0,0.9,0.1,1.8,0.1,2.7c0,0.3-0.2,0.7-0.2,1.1c0,0.4,0.2,0.7,0.3,1.1c0.3,0.8,0.3,1.7,0.3,2.6c0,0.8,0.1,1.7,0,2.5
		c-0.1,0.8-0.2,8.5-0.1,9.2c0.1,0.8,0.1,3.2-0.2,4.2c-0.7,2.2-1.8,5.5-2,5.9c-0.7,1.3-2.5,1.5-3.7,1.8c-0.6,0.2-1.1,0.4-1.2,1.1
		c-0.1,0.5-0.1,1.2,0.3,1.5c0.5,0.5,1.3,0.3,2,0.3c0.9,0,1.8-0.1,2.7-0.1c1.8,0,3.5,0,5.3-0.3c0.8-0.1,1.7,0.1,2.5,0
		c0.9-0.1,1.7-0.2,2.5-0.1c1.8,0.2,3.5,0.1,5.3,0.2c0.7,0,1.3,0.2,1.6-0.6c0.1-0.3,0.2-0.7,0.2-1c0-0.4,0.1-0.6-0.3-0.7
		c-1.4-0.3-2.7-0.7-3.8-1.6c-1.1-0.9-1.7-2.3-2-3.7c-0.8-3.3-0.7-6.8-0.6-10.2c0.1-1.9,0-3.8,0.1-5.8c0-0.9,0.1-1.8,0-2.7
		c-0.1-0.9-0.2-1.6,0-2.5c0.2-0.9,0.1-1.9,0.1-2.8c0-1,0-1.9,0-2.9c0-1.9,0-3.9,0-5.8c0-3.9,0-7.7,0.1-11.6c0-1.9,0-3.8,0-5.7
		c0-1.8,0.2-3.6,0.5-5.4c0.2-1.7,0.5-3.4,1.1-5c0.3-0.7,0.6-1.4,1-1.9c0.5-0.6,1.3-0.8,2-1.1c0.4-0.1,1.4-0.2,1.7-0.6
		c0.2-0.2,0.2-0.7,0.3-1c0.1-0.4,0.2-0.9,0.2-1.3C82.1,29.5,80.5,29.9,79,30"/>
</g>
</svg>
